Labtop Bold Italic.ufo
<glyph name="exclam" format="1">
  <advance width="142"/>
  <unicode hex="0021"/>
  <outline>
    <contour>
      <point x="126" y="121" type="line"/>
      <point x="263" y="834" type="line"/>
      <point x="198" y="834" type="line"/>
      <point x="61" y="121" type="line"/>
    </contour>
    <contour>
      <point x="100" y="-1" type="line"/>
      <point x="112" y="66" type="line"/>
      <point x="50" y="66" type="line"/>
      <point x="38" y="-1" type="line"/>
    </contour>
  </outline>
</glyph>
<glyph name="quotedbl" format="1">
  <advance width="245"/>
  <unicode hex="0022"/>
  <outline>
    <contour>
      <point x="320" y="591" type="line"/>
      <point x="362" y="814" type="line"/>
      <point x="293" y="814" type="line"/>
      <point x="251" y="591" type="line"/>
    </contour>
    <contour>
      <point x="222" y="591" type="line"/>
      <point x="264" y="814" type="line"/>
      <point x="195" y="814" type="line"/>
      <point x="153" y="591" type="line"/>
    </contour>
  </outline>
</glyph>
<glyph name="numbersign" format="1">
  <advance width="399"/>
  <unicode hex="0023"/>
  <outline>
    <contour>
      <point x="487" y="467" type="line"/>
      <point x="386" y="466" type="line"/>
      <point x="423" y="595" type="line"/>
      <point x="359" y="595" type="line"/>
      <point x="323" y="466" type="line"/>
      <point x="276" y="465" type="line"/>
      <point x="313" y="594" type="line"/>
      <point x="250" y="594" type="line"/>
      <point x="213" y="465" type="line"/>
      <point x="113" y="465" type="line"/>
      <point x="92" y="401" type="line"/>
      <point x="194" y="402" type="line"/>
      <point x="173" y="329" type="line"/>
      <point x="73" y="329" type="line"/>
      <point x="54" y="265" type="line"/>
      <point x="156" y="266" type="line"/>
      <point x="120" y="137" type="line"/>
      <point x="183" y="137" type="line"/>
      <point x="219" y="266" type="line"/>
      <point x="264" y="266" type="line"/>
      <point x="229" y="139" type="line"/>
      <point x="293" y="139" type="line"/>
      <point x="329" y="266" type="line"/>
      <point x="430" y="267" type="line"/>
      <point x="447" y="330" type="line"/>
      <point x="347" y="330" type="line"/>
      <point x="369" y="404" type="line"/>
      <point x="471" y="404" type="line"/>
    </contour>
    <contour>
      <point x="259" y="402" type="line"/>
      <point x="303" y="402" type="line"/>
      <point x="283" y="330" type="line"/>
      <point x="237" y="329" type="line"/>
    </contour>
  </outline>
</glyph>
<glyph name="dollar" format="1">
  <advance width="285"/>
  <unicode hex="0024"/>
  <outline>
    <contour>
      <point x="338" y="412" type="line"/>
      <point x="335" y="412" type="line"/>
      <point x="335" y="484"/>
      <point x="270" y="498" type="qcurve"/>
      <point x="324" y="779" type="line"/>
      <point x="338" y="770"/>
      <point x="338" y="743" type="qcurve" smooth="yes"/>
      <point x="338" y="727"/>
      <point x="334" y="710" type="qcurve" smooth="yes"/>
      <point x="317" y="627" type="line"/>
      <point x="381" y="627" type="line"/>
      <point x="395" y="702" type="line" smooth="yes"/>
      <point x="395" y="705"/>
      <point x="397" y="714"/>
      <point x="398" y="722"/>
      <point x="398" y="726" type="qcurve"/>
      <point x="400" y="733"/>
      <point x="400" y="748" type="qcurve" smooth="yes"/>
      <point x="400" y="824"/>
      <point x="335" y="838" type="qcurve"/>
      <point x="344" y="886" type="line"/>
      <point x="283" y="886" type="line"/>
      <point x="275" y="839" type="line"/>
      <point x="182" y="826"/>
      <point x="158" y="708" type="qcurve"/>
      <point x="135" y="587" type="line" smooth="yes"/>
      <point x="135" y="586"/>
      <point x="132" y="569"/>
      <point x="132" y="564" type="qcurve"/>
      <point x="130" y="558"/>
      <point x="130" y="542" type="qcurve" smooth="yes"/>
      <point x="130" y="461"/>
      <point x="199" y="449" type="qcurve"/>
      <point x="122" y="54" type="line"/>
      <point x="107" y="64"/>
      <point x="107" y="92" type="qcurve" smooth="yes"/>
      <point x="107" y="101"/>
      <point x="108" y="106" type="qcurve" smooth="yes"/>
      <point x="110" y="114"/>
      <point x="111" y="124" type="qcurve" smooth="yes"/>
      <point x="125" y="201" type="line"/>
      <point x="59" y="201" type="line"/>
      <point x="46" y="132" type="line" smooth="yes"/>
      <point x="44" y="116"/>
      <point x="42" y="110" type="qcurve"/>
      <point x="42" y="106"/>
      <point x="41" y="91"/>
      <point x="41" y="87" type="qcurve" smooth="yes"/>
      <point x="41" y="8"/>
      <point x="110" y="-5" type="qcurve"/>
      <point x="102" y="-50" type="line"/>
      <point x="163" y="-50" type="line"/>
      <point x="171" y="-6" type="line"/>
      <point x="259" y="9"/>
      <point x="283" y="126" type="qcurve"/>
    </contour>
    <contour>
      <point x="221" y="130" type="line"/>
      <point x="209" y="74"/>
      <point x="184" y="58" type="qcurve"/>
      <point x="258" y="440" type="line"/>
      <point x="273" y="431"/>
      <point x="273" y="409" type="qcurve" smooth="yes"/>
      <point x="273" y="399" type="line" smooth="yes"/>
      <point x="273" y="397"/>
      <point x="271" y="389" type="qcurve" smooth="yes"/>
    </contour>
    <contour>
      <point x="195" y="545" type="qcurve" smooth="yes"/>
      <point x="195" y="563"/>
      <point x="199" y="578" type="qcurve"/>
      <point x="224" y="704" type="line"/>
      <point x="233" y="762"/>
      <point x="263" y="778" type="qcurve"/>
      <point x="210" y="507" type="line"/>
      <point x="195" y="516"/>
    </contour>
  </outline>
</glyph>
<glyph name="percent" format="1">
  <advance width="577"/>
  <unicode hex="0025"/>
  <outline>
    <contour>
      <point x="352" y="537" type="qcurve" smooth="yes"/>
      <point x="383" y="697" type="line" smooth="yes"/>
      <point x="384" y="701"/>
      <point x="386" y="716"/>
      <point x="386" y="719" type="qcurve" smooth="yes"/>
      <point x="387" y="726"/>
      <point x="387" y="741" type="qcurve" smooth="yes"/>
      <point x="387" y="836"/>
      <point x="287" y="836" type="qcurve" smooth="yes"/>
      <point x="170" y="836"/>
      <point x="145" y="703" type="qcurve" smooth="yes"/>
      <point x="114" y="543" type="line" smooth="yes"/>
      <point x="112" y="529"/>
      <point x="110" y="520" type="qcurve" smooth="yes"/>
      <point x="110" y="517"/>
      <point x="109" y="502"/>
      <point x="109" y="498" type="qcurve" smooth="yes"/>
      <point x="109" y="402"/>
      <point x="208" y="402" type="qcurve" smooth="yes"/>
      <point x="326" y="402"/>
    </contour>
    <contour>
      <point x="588" y="128" type="qcurve" smooth="yes"/>
      <point x="619" y="288" type="line" smooth="yes"/>
      <point x="620" y="292"/>
      <point x="622" y="306"/>
      <point x="622" y="310" type="qcurve" smooth="yes"/>
      <point x="623" y="318"/>
      <point x="623" y="333" type="qcurve" smooth="yes"/>
      <point x="623" y="429"/>
      <point x="524" y="429" type="qcurve" smooth="yes"/>
      <point x="408" y="429"/>
      <point x="383" y="294" type="qcurve"/>
      <point x="352" y="134" type="line" smooth="yes"/>
      <point x="346" y="106"/>
      <point x="346" y="81" type="qcurve" smooth="yes"/>
      <point x="346" y="63"/>
      <point x="350" y="50" type="qcurve" smooth="yes"/>
      <point x="357" y="31"/>
      <point x="360" y="26" type="qcurve" smooth="yes"/>
      <point x="362" y="24"/>
      <point x="366" y="19"/>
      <point x="368" y="17" type="qcurve" smooth="yes"/>
      <point x="373" y="12"/>
      <point x="374" y="10" type="qcurve" smooth="yes"/>
      <point x="375" y="8" type="line" smooth="yes"/>
      <point x="376" y="6"/>
      <point x="377" y="6" type="qcurve" smooth="yes"/>
      <point x="394" y="-5"/>
      <point x="424" y="-5" type="qcurve" smooth="yes"/>
      <point x="465" y="-5"/>
      <point x="490" y="2" type="qcurve"/>
      <point x="518" y="8"/>
      <point x="556" y="40"/>
      <point x="568" y="65" type="qcurve" smooth="yes"/>
      <point x="581" y="92"/>
    </contour>
    <contour>
      <point x="649" y="841" type="line"/>
      <point x="581" y="841" type="line"/>
      <point x="63" y="-8" type="line"/>
      <point x="131" y="-8" type="line"/>
    </contour>
    <contour>
      <point x="523" y="132" type="line" smooth="yes"/>
      <point x="507" y="50"/>
      <point x="450" y="50" type="qcurve" smooth="yes"/>
      <point x="416" y="50"/>
      <point x="409" y="68" type="qcurve" smooth="yes"/>
      <point x="408" y="71"/>
      <point x="408" y="86" type="qcurve" smooth="yes"/>
      <point x="408" y="97"/>
      <point x="410" y="104" type="qcurve" smooth="yes"/>
      <point x="410" y="107"/>
      <point x="413" y="124"/>
      <point x="413" y="127" type="qcurve" smooth="yes"/>
      <point x="413" y="126" type="line"/>
      <point x="445" y="291" type="line"/>
      <point x="462" y="371"/>
      <point x="518" y="371" type="qcurve" smooth="yes"/>
      <point x="559" y="371"/>
      <point x="559" y="328" type="qcurve" smooth="yes"/>
      <point x="559" y="319"/>
      <point x="557" y="309"/>
      <point x="555" y="297" type="qcurve" smooth="yes"/>
    </contour>
    <contour>
      <point x="286" y="540" type="line" smooth="yes"/>
      <point x="270" y="459"/>
      <point x="213" y="459" type="qcurve" smooth="yes"/>
      <point x="179" y="459"/>
      <point x="175" y="475" type="qcurve"/>
      <point x="173" y="489"/>
      <point x="173" y="497" type="qcurve" smooth="yes"/>
      <point x="173" y="507"/>
      <point x="174" y="514" type="qcurve" smooth="yes"/>
      <point x="175" y="520"/>
      <point x="177" y="534" type="qcurve" smooth="yes"/>
      <point x="210" y="699" type="line" smooth="yes"/>
      <point x="226" y="780"/>
      <point x="282" y="780" type="qcurve" smooth="yes"/>
      <point x="323" y="780"/>
      <point x="323" y="736" type="qcurve" smooth="yes"/>
      <point x="323" y="727"/>
      <point x="321" y="717"/>
      <point x="319" y="705" type="qcurve" smooth="yes"/>
    </contour>
  </outline>
</glyph>
<glyph name="ampersand" format="1">
  <advance width="285"/>
  <unicode hex="0026"/>
  <outline>
    <contour>
      <point x="321" y="-97" type="line"/>
      <point x="329" y="-53" type="line"/>
      <point x="270" y="-53"/>
      <point x="270" y="-9" type="qcurve" smooth="yes"/>
      <point x="270" y="0"/>
      <point x="271" y="6" type="qcurve" smooth="yes"/>
      <point x="272" y="11"/>
      <point x="274" y="23" type="qcurve" smooth="yes"/>
      <point x="322" y="274" type="line"/>
      <point x="320" y="274" type="line"/>
      <point x="320" y="285" type="line" smooth="yes"/>
      <point x="320" y="379"/>
      <point x="207" y="379" type="qcurve"/>
      <point x="197" y="322" type="line"/>
      <point x="256" y="322"/>
      <point x="256" y="279" type="qcurve" smooth="yes"/>
      <point x="256" y="270"/>
      <point x="254" y="260"/>
      <point x="252" y="248" type="qcurve" smooth="yes"/>
      <point x="225" y="113" type="line" smooth="yes"/>
      <point x="218" y="73"/>
      <point x="197" y="60" type="qcurve"/>
      <point x="178" y="47"/>
      <point x="134" y="47" type="qcurve" smooth="yes"/>
      <point x="94" y="47"/>
      <point x="94" y="91" type="qcurve" smooth="yes"/>
      <point x="94" y="109"/>
      <point x="98" y="124" type="qcurve"/>
      <point x="146" y="372" type="line"/>
      <point x="157" y="423"/>
      <point x="165" y="431" type="qcurve"/>
      <point x="165" y="430" type="line"/>
      <point x="193" y="455"/>
      <point x="230" y="455" type="qcurve" smooth="yes"/>
      <point x="312" y="455"/>
      <point x="346" y="512" type="qcurve" smooth="yes"/>
      <point x="363" y="539"/>
      <point x="373" y="588" type="qcurve" smooth="yes"/>
      <point x="395" y="702" type="line" smooth="yes"/>
      <point x="396" y="705"/>
      <point x="398" y="721"/>
      <point x="398" y="724" type="qcurve" smooth="yes"/>
      <point x="399" y="731"/>
      <point x="399" y="746" type="qcurve" smooth="yes"/>
      <point x="399" y="841"/>
      <point x="300" y="841" type="qcurve" smooth="yes"/>
      <point x="183" y="841"/>
      <point x="158" y="708" type="qcurve" smooth="yes"/>
      <point x="136" y="594" type="line" smooth="yes"/>
      <point x="134" y="586"/>
      <point x="132" y="568" type="qcurve" smooth="yes"/>
      <point x="131" y="560"/>
      <point x="131" y="544" type="qcurve" smooth="yes"/>
      <point x="131" y="505"/>
      <point x="148" y="485" type="qcurve"/>
      <point x="120" y="468"/>
      <point x="107" y="448" type="qcurve"/>
      <point x="93" y="424"/>
      <point x="84" y="377" type="qcurve" smooth="yes"/>
      <point x="36" y="132" type="line" smooth="yes"/>
      <point x="31" y="104"/>
      <point x="31" y="87" type="qcurve" smooth="yes"/>
      <point x="31" y="-8"/>
      <point x="129" y="-8" type="qcurve" smooth="yes"/>
      <point x="171" y="-8"/>
      <point x="206" y="3" type="qcurve"/>
      <point x="206" y="-9" type="line" smooth="yes"/>
      <point x="206" y="-109"/>
      <point x="306" y="-109" type="qcurve"/>
    </contour>
    <contour>
      <point x="309" y="592" type="line" smooth="yes"/>
      <point x="293" y="510"/>
      <point x="235" y="510" type="qcurve" smooth="yes"/>
      <point x="195" y="510"/>
      <point x="195" y="553" type="qcurve" smooth="yes"/>
      <point x="195" y="569"/>
      <point x="199" y="586" type="qcurve" smooth="yes"/>
      <point x="222" y="704" type="line" smooth="yes"/>
      <point x="238" y="785"/>
      <point x="295" y="785" type="qcurve" smooth="yes"/>
      <point x="336" y="785"/>
      <point x="336" y="741" type="qcurve" smooth="yes"/>
      <point x="336" y="732"/>
      <point x="334" y="722"/>
      <point x="332" y="710" type="qcurve" smooth="yes"/>
    </contour>
  </outline>
</glyph>
<glyph name="quotesingle" format="1">
  <advance width="150"/>
  <unicode hex="0027"/>
  <outline>
    <contour>
      <point x="222" y="591" type="line"/>
      <point x="264" y="814" type="line"/>
      <point x="195" y="814" type="line"/>
      <point x="153" y="591" type="line"/>
    </contour>
  </outline>
</glyph>
<glyph name="parenleft" format="1">
  <advance width="150"/>
  <unicode hex="0028"/>
  <outline>
    <contour>
      <point x="112" y="-219" type="line"/>
      <point x="120" y="-177" type="line"/>
      <point x="70" y="-175"/>
      <point x="63" y="-158" type="qcurve"/>
      <point x="63" y="-160" type="line"/>
      <point x="60" y="-152"/>
      <point x="60" y="-138" type="qcurve" smooth="yes"/>
      <point x="60" y="-129"/>
      <point x="62" y="-122" type="qcurve" smooth="yes"/>
      <point x="62" y="-119"/>
      <point x="65" y="-104"/>
      <point x="65" y="-101" type="qcurve" smooth="yes"/>
      <point x="232" y="758" type="line" smooth="yes"/>
      <point x="241" y="804"/>
      <point x="254" y="817" type="qcurve"/>
      <point x="269" y="837"/>
      <point x="318" y="841" type="qcurve"/>
      <point x="329" y="897" type="line"/>
      <point x="243" y="892"/>
      <point x="211" y="857" type="qcurve"/>
      <point x="211" y="858" type="line"/>
      <point x="182" y="829"/>
      <point x="169" y="763" type="qcurve" smooth="yes"/>
      <point x="3" y="-92" type="line"/>
      <point x="-2" y="-124"/>
      <point x="-2" y="-141" type="qcurve" smooth="yes"/>
      <point x="-2" y="-170"/>
      <point x="9" y="-190" type="qcurve"/>
      <point x="8" y="-189" type="line"/>
      <point x="28" y="-230"/>
      <point x="97" y="-231" type="qcurve"/>
    </contour>
  </outline>
</glyph>
<glyph name="parenright" format="1">
  <advance width="150"/>
  <unicode hex="0029"/>
  <outline>
    <contour>
      <point x="136" y="-98" type="qcurve" smooth="yes"/>
      <point x="302" y="757" type="line"/>
      <point x="304" y="773"/>
      <point x="306" y="782" type="qcurve" smooth="yes"/>
      <point x="306" y="786"/>
      <point x="307" y="800"/>
      <point x="307" y="804" type="qcurve" smooth="yes"/>
      <point x="307" y="835"/>
      <point x="296" y="855" type="qcurve"/>
      <point x="296" y="854" type="line"/>
      <point x="276" y="893"/>
      <point x="194" y="897" type="qcurve"/>
      <point x="184" y="842" type="line"/>
      <point x="235" y="837"/>
      <point x="239" y="826" type="qcurve" smooth="yes"/>
      <point x="244" y="814"/>
      <point x="244" y="804" type="qcurve" smooth="yes"/>
      <point x="244" y="796"/>
      <point x="239" y="764" type="qcurve"/>
      <point x="72" y="-95" type="line" smooth="yes"/>
      <point x="63" y="-139"/>
      <point x="50" y="-155" type="qcurve"/>
      <point x="50" y="-154" type="line"/>
      <point x="33" y="-174"/>
      <point x="-14" y="-176" type="qcurve"/>
      <point x="-25" y="-231" type="line"/>
      <point x="59" y="-229"/>
      <point x="94" y="-193" type="qcurve"/>
      <point x="124" y="-160"/>
    </contour>
  </outline>
</glyph>
<glyph name="asterisk" format="1">
  <advance width="356"/>
  <unicode hex="002A"/>
  <outline>
    <contour>
      <point x="469" y="699" type="line"/>
      <point x="449" y="761" type="line"/>
      <point x="346" y="708" type="line"/>
      <point x="367" y="814" type="line"/>
      <point x="298" y="814" type="line"/>
      <point x="277" y="706" type="line"/>
      <point x="194" y="760" type="line"/>
      <point x="149" y="702" type="line"/>
      <point x="232" y="648" type="line"/>
      <point x="131" y="596" type="line"/>
      <point x="153" y="534" type="line"/>
      <point x="254" y="587" type="line"/>
      <point x="233" y="481" type="line"/>
      <point x="302" y="481" type="line"/>
      <point x="323" y="589" type="line"/>
      <point x="407" y="534" type="line"/>
      <point x="451" y="593" type="line"/>
      <point x="368" y="646" type="line"/>
    </contour>
  </outline>
</glyph>
<glyph name="plus" format="1">
  <advance width="366"/>
  <unicode hex="002B"/>
  <outline>
    <contour>
      <point x="424" y="324" type="line"/>
      <point x="435" y="385" type="line"/>
      <point x="287" y="385" type="line"/>
      <point x="317" y="532" type="line"/>
      <point x="253" y="532" type="line"/>
      <point x="224" y="385" type="line"/>
      <point x="76" y="385" type="line"/>
      <point x="65" y="324" type="line"/>
      <point x="212" y="324" type="line"/>
      <point x="183" y="175" type="line"/>
      <point x="247" y="175" type="line"/>
      <point x="275" y="324" type="line"/>
    </contour>
  </outline>
</glyph>
<glyph name="comma" format="1">
  <advance width="142"/>
  <unicode hex="002C"/>
  <outline>
    <contour>
      <point x="110" y="71" type="line"/>
      <point x="24" y="71" type="line"/>
      <point x="12" y="4" type="line"/>
      <point x="26" y="4" type="line"/>
      <point x="-4" y="-73" type="line"/>
      <point x="61" y="-73" type="line"/>
      <point x="110" y="52" type="line"/>
    </contour>
  </outline>
</glyph>
<glyph name="hyphen" format="1">
  <advance width="270"/>
  <unicode hex="002D"/>
  <outline>
    <contour>
      <point x="307" y="324" type="line"/>
      <point x="318" y="385" type="line"/>
      <point x="95" y="385" type="line"/>
      <point x="84" y="324" type="line"/>
    </contour>
  </outline>
</glyph>
<glyph name="period" format="1">
  <advance width="142"/>
  <unicode hex="002E"/>
  <outline>
    <contour>
      <point x="101" y="4" type="line"/>
      <point x="113" y="71" type="line"/>
      <point x="50" y="71" type="line"/>
      <point x="38" y="4" type="line"/>
    </contour>
  </outline>
</glyph>
<glyph name="slash" format="1">
  <advance width="291"/>
  <unicode hex="002F"/>
  <outline>
    <contour>
      <point x="469" y="841" type="line"/>
      <point x="403" y="841" type="line"/>
      <point x="-18" y="0" type="line"/>
      <point x="48" y="0" type="line"/>
    </contour>
  </outline>
</glyph>
<glyph name="zero" format="1">
  <advance width="285"/>
  <unicode hex="0030"/>
  <outline>
    <contour>
      <point x="283" y="126" type="qcurve" smooth="yes"/>
      <point x="395" y="702" type="line" smooth="yes"/>
      <point x="396" y="705"/>
      <point x="398" y="721"/>
      <point x="398" y="724" type="qcurve" smooth="yes"/>
      <point x="399" y="731"/>
      <point x="399" y="746" type="qcurve" smooth="yes"/>
      <point x="399" y="841"/>
      <point x="300" y="841" type="qcurve" smooth="yes"/>
      <point x="183" y="841"/>
      <point x="158" y="708" type="qcurve" smooth="yes"/>
      <point x="46" y="132" type="line" smooth="yes"/>
      <point x="41" y="104"/>
      <point x="41" y="87" type="qcurve" smooth="yes"/>
      <point x="41" y="-8"/>
      <point x="140" y="-8" type="qcurve" smooth="yes"/>
      <point x="257" y="-8"/>
    </contour>
    <contour>
      <point x="219" y="130" type="line" smooth="yes"/>
      <point x="202" y="47"/>
      <point x="145" y="47" type="qcurve" smooth="yes"/>
      <point x="105" y="47"/>
      <point x="105" y="89" type="qcurve" smooth="yes"/>
      <point x="105" y="95"/>
      <point x="106" y="97" type="qcurve" smooth="yes"/>
      <point x="290" y="497" type="line"/>
    </contour>
    <contour>
      <point x="222" y="704" type="line" smooth="yes"/>
      <point x="238" y="785"/>
      <point x="295" y="785" type="qcurve" smooth="yes"/>
      <point x="336" y="785"/>
      <point x="336" y="745" type="qcurve" smooth="yes"/>
      <point x="336" y="741" type="line"/>
      <point x="151" y="341" type="line"/>
    </contour>
  </outline>
</glyph>
<glyph name="one" format="1">
  <advance width="132"/>
  <unicode hex="0031"/>
  <outline>
    <contour>
      <point x="124" y="0" type="line"/>
      <point x="135" y="61" type="line"/>
      <point x="108" y="61" type="line"/>
      <point x="260" y="843" type="line"/>
      <point x="153" y="802" type="line"/>
      <point x="140" y="737" type="line"/>
      <point x="178" y="751" type="line"/>
      <point x="43" y="61" type="line"/>
      <point x="17" y="61" type="line"/>
      <point x="6" y="0" type="line"/>
    </contour>
  </outline>
</glyph>
<glyph name="two" format="1">
  <advance width="272"/>
  <unicode hex="0032"/>
  <outline>
    <contour>
      <point x="259" y="0" type="line"/>
      <point x="269" y="57" type="line"/>
      <point x="95" y="57" type="line"/>
      <point x="156" y="368" type="line" smooth="yes"/>
      <point x="163" y="402"/>
      <point x="178" y="415" type="qcurve"/>
      <point x="191" y="428"/>
      <point x="227" y="431" type="qcurve" smooth="yes"/>
      <point x="292" y="437"/>
      <point x="322" y="458" type="qcurve"/>
      <point x="353" y="484"/>
      <point x="366" y="551" type="qcurve" smooth="yes"/>
      <point x="395" y="702" type="line" smooth="yes"/>
      <point x="396" y="705"/>
      <point x="398" y="721"/>
      <point x="398" y="724" type="qcurve" smooth="yes"/>
      <point x="399" y="731"/>
      <point x="399" y="746" type="qcurve" smooth="yes"/>
      <point x="399" y="841"/>
      <point x="300" y="841" type="qcurve" smooth="yes"/>
      <point x="183" y="841"/>
      <point x="158" y="708" type="qcurve" smooth="yes"/>
      <point x="144" y="632" type="line"/>
      <point x="208" y="632" type="line"/>
      <point x="222" y="704" type="line" smooth="yes"/>
      <point x="238" y="785"/>
      <point x="295" y="785" type="qcurve" smooth="yes"/>
      <point x="336" y="785"/>
      <point x="336" y="741" type="qcurve" smooth="yes"/>
      <point x="336" y="732"/>
      <point x="334" y="722"/>
      <point x="332" y="710" type="qcurve" smooth="yes"/>
      <point x="302" y="559" type="line" smooth="yes"/>
      <point x="293" y="514"/>
      <point x="281" y="504" type="qcurve"/>
      <point x="272" y="495"/>
      <point x="219" y="490" type="qcurve"/>
      <point x="160" y="486"/>
      <point x="132" y="460" type="qcurve" smooth="yes"/>
      <point x="103" y="433"/>
      <point x="93" y="375" type="qcurve"/>
      <point x="21" y="0" type="line"/>
    </contour>
  </outline>
</glyph>
<glyph name="three" format="1">
  <advance width="265"/>
  <unicode hex="0033"/>
  <outline>
    <contour>
      <point x="271" y="126" type="qcurve" smooth="yes"/>
      <point x="320" y="377" type="line" smooth="yes"/>
      <point x="323" y="394"/>
      <point x="323" y="411" type="qcurve" smooth="yes"/>
      <point x="323" y="453"/>
      <point x="298" y="475" type="qcurve"/>
      <point x="344" y="505"/>
      <point x="358" y="571" type="qcurve"/>
      <point x="383" y="702" type="line" smooth="yes"/>
      <point x="384" y="705"/>
      <point x="386" y="721"/>
      <point x="386" y="724" type="qcurve" smooth="yes"/>
      <point x="387" y="731"/>
      <point x="387" y="746" type="qcurve" smooth="yes"/>
      <point x="387" y="841"/>
      <point x="288" y="841" type="qcurve" smooth="yes"/>
      <point x="171" y="841"/>
      <point x="146" y="708" type="qcurve" smooth="yes"/>
      <point x="132" y="632" type="line"/>
      <point x="196" y="632" type="line"/>
      <point x="210" y="704" type="line" smooth="yes"/>
      <point x="226" y="785"/>
      <point x="283" y="785" type="qcurve" smooth="yes"/>
      <point x="324" y="785"/>
      <point x="324" y="741" type="qcurve" smooth="yes"/>
      <point x="324" y="732"/>
      <point x="322" y="722"/>
      <point x="320" y="710" type="qcurve" smooth="yes"/>
      <point x="294" y="580" type="line" smooth="yes"/>
      <point x="286" y="535"/>
      <point x="272" y="521" type="qcurve" smooth="yes"/>
      <point x="256" y="505"/>
      <point x="212" y="505" type="qcurve" smooth="yes"/>
      <point x="166" y="505" type="line"/>
      <point x="156" y="449" type="line"/>
      <point x="207" y="449" type="line" smooth="yes"/>
      <point x="248" y="449"/>
      <point x="255" y="436" type="qcurve"/>
      <point x="255" y="437" type="line"/>
      <point x="260" y="429"/>
      <point x="260" y="414" type="qcurve" smooth="yes"/>
      <point x="260" y="407"/>
      <point x="255" y="379" type="qcurve" smooth="yes"/>
      <point x="207" y="130" type="line" smooth="yes"/>
      <point x="190" y="47"/>
      <point x="133" y="47" type="qcurve" smooth="yes"/>
      <point x="93" y="47"/>
      <point x="93" y="91" type="qcurve" smooth="yes"/>
      <point x="93" y="109"/>
      <point x="97" y="124" type="qcurve"/>
      <point x="112" y="206" type="line"/>
      <point x="48" y="206" type="line"/>
      <point x="34" y="132" type="line" smooth="yes"/>
      <point x="29" y="104"/>
      <point x="29" y="87" type="qcurve" smooth="yes"/>
      <point x="29" y="-8"/>
      <point x="128" y="-8" type="qcurve" smooth="yes"/>
      <point x="245" y="-8"/>
    </contour>
  </outline>
</glyph>
<glyph name="four" format="1">
  <advance width="273"/>
  <unicode hex="0034"/>
  <outline>
    <contour>
      <point x="373" y="449" type="line"/>
      <point x="383" y="505" type="line"/>
      <point x="330" y="505" type="line"/>
      <point x="395" y="834" type="line"/>
      <point x="333" y="834" type="line"/>
      <point x="61" y="449" type="line"/>
      <point x="255" y="449" type="line"/>
      <point x="169" y="0" type="line"/>
      <point x="233" y="0" type="line"/>
      <point x="319" y="449" type="line"/>
    </contour>
    <contour>
      <point x="176" y="505" type="line"/>
      <point x="301" y="682" type="line"/>
      <point x="266" y="505" type="line"/>
    </contour>
  </outline>
</glyph>
<glyph name="five" format="1">
  <advance width="285"/>
  <unicode hex="0035"/>
  <outline>
    <contour>
      <point x="283" y="126" type="qcurve" smooth="yes"/>
      <point x="329" y="364" type="line" smooth="yes"/>
      <point x="333" y="386"/>
      <point x="334" y="395" type="qcurve" smooth="yes"/>
      <point x="336" y="413"/>
      <point x="336" y="423" type="qcurve" smooth="yes"/>
      <point x="336" y="450"/>
      <point x="326" y="467" type="qcurve"/>
      <point x="327" y="466" type="line"/>
      <point x="308" y="506"/>
      <point x="233" y="506" type="qcurve" smooth="yes"/>
      <point x="183" y="506" type="line"/>
      <point x="235" y="776" type="line"/>
      <point x="410" y="776" type="line"/>
      <point x="420" y="834" type="line"/>
      <point x="182" y="834" type="line"/>
      <point x="107" y="450" type="line"/>
      <point x="219" y="450" type="line" smooth="yes"/>
      <point x="261" y="450"/>
      <point x="270" y="436" type="qcurve"/>
      <point x="272" y="428"/>
      <point x="272" y="420" type="qcurve" smooth="yes"/>
      <point x="272" y="409"/>
      <point x="271" y="402" type="qcurve" smooth="yes"/>
      <point x="268" y="382"/>
      <point x="267" y="379" type="qcurve" smooth="yes"/>
      <point x="219" y="130" type="line" smooth="yes"/>
      <point x="202" y="47"/>
      <point x="145" y="47" type="qcurve" smooth="yes"/>
      <point x="105" y="47"/>
      <point x="105" y="91" type="qcurve" smooth="yes"/>
      <point x="105" y="109"/>
      <point x="109" y="124" type="qcurve"/>
      <point x="124" y="206" type="line"/>
      <point x="60" y="206" type="line"/>
      <point x="46" y="132" type="line" smooth="yes"/>
      <point x="41" y="104"/>
      <point x="41" y="87" type="qcurve" smooth="yes"/>
      <point x="41" y="-8"/>
      <point x="140" y="-8" type="qcurve" smooth="yes"/>
      <point x="257" y="-8"/>
    </contour>
  </outline>
</glyph>
<glyph name="six" format="1">
  <advance width="285"/>
  <unicode hex="0036"/>
  <outline>
    <contour>
      <point x="283" y="126" type="qcurve" smooth="yes"/>
      <point x="330" y="367" type="line"/>
      <point x="332" y="383"/>
      <point x="334" y="390" type="qcurve"/>
      <point x="334" y="394"/>
      <point x="335" y="410"/>
      <point x="335" y="413" type="qcurve" smooth="yes"/>
      <point x="335" y="506"/>
      <point x="239" y="506" type="qcurve" smooth="yes"/>
      <point x="213" y="506"/>
      <point x="180" y="492" type="qcurve"/>
      <point x="222" y="704" type="line" smooth="yes"/>
      <point x="238" y="785"/>
      <point x="295" y="785" type="qcurve" smooth="yes"/>
      <point x="336" y="785"/>
      <point x="336" y="741" type="qcurve" smooth="yes"/>
      <point x="336" y="732"/>
      <point x="334" y="722"/>
      <point x="332" y="710" type="qcurve" smooth="yes"/>
      <point x="315" y="627" type="line"/>
      <point x="381" y="627" type="line"/>
      <point x="395" y="702" type="line" smooth="yes"/>
      <point x="396" y="705"/>
      <point x="398" y="721"/>
      <point x="398" y="724" type="qcurve" smooth="yes"/>
      <point x="399" y="731"/>
      <point x="399" y="746" type="qcurve" smooth="yes"/>
      <point x="399" y="841"/>
      <point x="300" y="841" type="qcurve" smooth="yes"/>
      <point x="183" y="841"/>
      <point x="158" y="708" type="qcurve" smooth="yes"/>
      <point x="46" y="132" type="line" smooth="yes"/>
      <point x="41" y="104"/>
      <point x="41" y="87" type="qcurve" smooth="yes"/>
      <point x="41" y="-8"/>
      <point x="140" y="-8" type="qcurve" smooth="yes"/>
      <point x="257" y="-8"/>
    </contour>
    <contour>
      <point x="219" y="130" type="line" smooth="yes"/>
      <point x="202" y="47"/>
      <point x="145" y="47" type="qcurve" smooth="yes"/>
      <point x="105" y="47"/>
      <point x="105" y="91" type="qcurve" smooth="yes"/>
      <point x="105" y="109"/>
      <point x="109" y="124" type="qcurve"/>
      <point x="156" y="368" type="line" smooth="yes"/>
      <point x="172" y="450"/>
      <point x="233" y="450" type="qcurve" smooth="yes"/>
      <point x="270" y="450"/>
      <point x="270" y="407" type="qcurve" smooth="yes"/>
      <point x="270" y="389"/>
      <point x="266" y="374" type="qcurve"/>
    </contour>
  </outline>
</glyph>
<glyph name="seven" format="1">
  <advance width="222"/>
  <unicode hex="0037"/>
  <outline>
    <contour>
      <point x="401" y="834" type="line"/>
      <point x="158" y="834" type="line"/>
      <point x="148" y="776" type="line"/>
      <point x="311" y="776" type="line"/>
      <point x="-18" y="0" type="line"/>
      <point x="46" y="0" type="line"/>
    </contour>
  </outline>
</glyph>
<glyph name="eight" format="1">
  <advance width="285"/>
  <unicode hex="0038"/>
  <outline>
    <contour>
      <point x="283" y="126" type="qcurve" smooth="yes"/>
      <point x="331" y="371" type="line" smooth="yes"/>
      <point x="331" y="374"/>
      <point x="333" y="383"/>
      <point x="334" y="391"/>
      <point x="334" y="395" type="qcurve" smooth="yes"/>
      <point x="336" y="403"/>
      <point x="336" y="418" type="qcurve" smooth="yes"/>
      <point x="336" y="457"/>
      <point x="317" y="480" type="qcurve"/>
      <point x="358" y="512"/>
      <point x="373" y="588" type="qcurve" smooth="yes"/>
      <point x="395" y="702" type="line" smooth="yes"/>
      <point x="396" y="705"/>
      <point x="398" y="721"/>
      <point x="398" y="724" type="qcurve" smooth="yes"/>
      <point x="399" y="731"/>
      <point x="399" y="746" type="qcurve" smooth="yes"/>
      <point x="399" y="841"/>
      <point x="300" y="841" type="qcurve" smooth="yes"/>
      <point x="183" y="841"/>
      <point x="158" y="708" type="qcurve" smooth="yes"/>
      <point x="136" y="594" type="line" smooth="yes"/>
      <point x="134" y="586"/>
      <point x="132" y="568" type="qcurve" smooth="yes"/>
      <point x="131" y="560"/>
      <point x="131" y="544" type="qcurve" smooth="yes"/>
      <point x="131" y="502"/>
      <point x="150" y="483" type="qcurve"/>
      <point x="109" y="451"/>
      <point x="94" y="377" type="qcurve" smooth="yes"/>
      <point x="46" y="132" type="line" smooth="yes"/>
      <point x="41" y="104"/>
      <point x="41" y="87" type="qcurve" smooth="yes"/>
      <point x="41" y="-8"/>
      <point x="140" y="-8" type="qcurve" smooth="yes"/>
      <point x="257" y="-8"/>
    </contour>
    <contour>
      <point x="219" y="130" type="line" smooth="yes"/>
      <point x="202" y="47"/>
      <point x="145" y="47" type="qcurve" smooth="yes"/>
      <point x="105" y="47"/>
      <point x="105" y="91" type="qcurve" smooth="yes"/>
      <point x="105" y="109"/>
      <point x="109" y="124" type="qcurve"/>
      <point x="157" y="372" type="line" smooth="yes"/>
      <point x="173" y="454"/>
      <point x="230" y="454" type="qcurve" smooth="yes"/>
      <point x="271" y="454"/>
      <point x="271" y="410" type="qcurve" smooth="yes"/>
      <point x="271" y="401"/>
      <point x="270" y="396" type="qcurve" smooth="yes"/>
      <point x="267" y="378" type="line"/>
    </contour>
    <contour>
      <point x="309" y="592" type="line" smooth="yes"/>
      <point x="293" y="510"/>
      <point x="235" y="510" type="qcurve" smooth="yes"/>
      <point x="195" y="510"/>
      <point x="195" y="553" type="qcurve" smooth="yes"/>
      <point x="195" y="569"/>
      <point x="199" y="586" type="qcurve" smooth="yes"/>
      <point x="222" y="704" type="line" smooth="yes"/>
      <point x="238" y="785"/>
      <point x="295" y="785" type="qcurve" smooth="yes"/>
      <point x="336" y="785"/>
      <point x="336" y="741" type="qcurve" smooth="yes"/>
      <point x="336" y="732"/>
      <point x="335" y="727" type="qcurve" smooth="yes"/>
      <point x="334" y="720"/>
      <point x="332" y="709" type="qcurve"/>
      <point x="332" y="710" type="line"/>
    </contour>
  </outline>
</glyph>
<glyph name="nine" format="1">
  <advance width="285"/>
  <unicode hex="0039"/>
  <outline>
    <contour>
      <point x="283" y="126" type="qcurve" smooth="yes"/>
      <point x="395" y="702" type="line" smooth="yes"/>
      <point x="396" y="705"/>
      <point x="398" y="721"/>
      <point x="398" y="724" type="qcurve" smooth="yes"/>
      <point x="399" y="731"/>
      <point x="399" y="746" type="qcurve" smooth="yes"/>
      <point x="399" y="841"/>
      <point x="300" y="841" type="qcurve" smooth="yes"/>
      <point x="183" y="841"/>
      <point x="158" y="708" type="qcurve" smooth="yes"/>
      <point x="134" y="585" type="line" smooth="yes"/>
      <point x="133" y="578"/>
      <point x="131" y="562" type="qcurve" smooth="yes"/>
      <point x="130" y="555"/>
      <point x="130" y="540" type="qcurve" smooth="yes"/>
      <point x="130" y="447"/>
      <point x="221" y="447" type="qcurve" smooth="yes"/>
      <point x="257" y="447"/>
      <point x="283" y="460" type="qcurve"/>
      <point x="219" y="130" type="line" smooth="yes"/>
      <point x="202" y="47"/>
      <point x="145" y="47" type="qcurve" smooth="yes"/>
      <point x="105" y="47"/>
      <point x="105" y="91" type="qcurve" smooth="yes"/>
      <point x="105" y="109"/>
      <point x="109" y="124" type="qcurve"/>
      <point x="124" y="206" type="line"/>
      <point x="60" y="206" type="line"/>
      <point x="46" y="132" type="line" smooth="yes"/>
      <point x="41" y="104"/>
      <point x="41" y="87" type="qcurve" smooth="yes"/>
      <point x="41" y="-8"/>
      <point x="140" y="-8" type="qcurve" smooth="yes"/>
      <point x="257" y="-8"/>
    </contour>
    <contour>
      <point x="307" y="585" type="line" smooth="yes"/>
      <point x="290" y="504"/>
      <point x="231" y="504" type="qcurve" smooth="yes"/>
      <point x="193" y="504"/>
      <point x="193" y="547" type="qcurve" smooth="yes"/>
      <point x="193" y="556"/>
      <point x="194" y="561" type="qcurve" smooth="yes"/>
      <point x="196" y="568"/>
      <point x="197" y="579" type="qcurve"/>
      <point x="222" y="704" type="line" smooth="yes"/>
      <point x="238" y="785"/>
      <point x="295" y="785" type="qcurve" smooth="yes"/>
      <point x="336" y="785"/>
      <point x="336" y="741" type="qcurve" smooth="yes"/>
      <point x="336" y="732"/>
      <point x="334" y="722"/>
      <point x="332" y="710" type="qcurve" smooth="yes"/>
    </contour>
  </outline>
</glyph>
<glyph name="colon" format="1">
  <advance width="142"/>
  <unicode hex="003A"/>
  <outline>
    <contour>
      <point x="162" y="326" type="line"/>
      <point x="177" y="394" type="line"/>
      <point x="114" y="394" type="line"/>
      <point x="99" y="326" type="line"/>
    </contour>
    <contour>
      <point x="101" y="4" type="line"/>
      <point x="113" y="71" type="line"/>
      <point x="50" y="71" type="line"/>
      <point x="38" y="4" type="line"/>
    </contour>
  </outline>
</glyph>
<glyph name="less" format="1">
  <advance width="441"/>
  <unicode hex="003C"/>
  <outline>
    <contour>
      <point x="433" y="132" type="line"/>
      <point x="447" y="201" type="line"/>
      <point x="212" y="348" type="line"/>
      <point x="504" y="492" type="line"/>
      <point x="517" y="568" type="line"/>
      <point x="109" y="371" type="line"/>
      <point x="102" y="329" type="line"/>
    </contour>
  </outline>
</glyph>
<glyph name="equal" format="1">
  <advance width="641"/>
  <unicode hex="003D"/>
  <outline>
    <contour>
      <point x="632" y="246" type="line"/>
      <point x="645" y="311" type="line"/>
      <point x="112" y="311" type="line"/>
      <point x="99" y="246" type="line"/>
    </contour>
    <contour>
      <point x="659" y="386" type="line"/>
      <point x="672" y="450" type="line"/>
      <point x="139" y="450" type="line"/>
      <point x="126" y="386" type="line"/>
    </contour>
  </outline>
</glyph>
<glyph name="greater" format="1">
  <advance width="441"/>
  <unicode hex="003E"/>
  <outline>
    <contour>
      <point x="472" y="326" type="line"/>
      <point x="479" y="368" type="line"/>
      <point x="147" y="565" type="line"/>
      <point x="134" y="494" type="line"/>
      <point x="369" y="350" type="line"/>
      <point x="77" y="204" type="line"/>
      <point x="62" y="128" type="line"/>
    </contour>
  </outline>
</glyph>
<glyph name="question" format="1">
  <advance width="251"/>
  <unicode hex="003F"/>
  <outline>
    <contour>
      <point x="338" y="583" type="qcurve"/>
      <point x="361" y="702" type="line" smooth="yes"/>
      <point x="362" y="705"/>
      <point x="364" y="721"/>
      <point x="364" y="724" type="qcurve" smooth="yes"/>
      <point x="365" y="731"/>
      <point x="365" y="746" type="qcurve" smooth="yes"/>
      <point x="365" y="841"/>
      <point x="266" y="841" type="qcurve" smooth="yes"/>
      <point x="147" y="841"/>
      <point x="122" y="708" type="qcurve" smooth="yes"/>
      <point x="108" y="632" type="line"/>
      <point x="174" y="632" type="line"/>
      <point x="188" y="704" type="line" smooth="yes"/>
      <point x="204" y="785"/>
      <point x="261" y="785" type="qcurve" smooth="yes"/>
      <point x="302" y="785"/>
      <point x="302" y="741" type="qcurve" smooth="yes"/>
      <point x="302" y="732"/>
      <point x="300" y="722"/>
      <point x="298" y="710" type="qcurve" smooth="yes"/>
      <point x="274" y="588" type="line" smooth="yes"/>
      <point x="264" y="537"/>
      <point x="247" y="522" type="qcurve"/>
      <point x="230" y="505"/>
      <point x="170" y="505" type="qcurve"/>
      <point x="97" y="121" type="line"/>
      <point x="162" y="121" type="line"/>
      <point x="226" y="453" type="line"/>
      <point x="251" y="458"/>
      <point x="268" y="468" type="qcurve"/>
      <point x="288" y="478"/>
      <point x="302" y="495" type="qcurve" smooth="yes"/>
      <point x="317" y="512"/>
      <point x="324" y="532" type="qcurve" smooth="yes"/>
      <point x="334" y="557"/>
    </contour>
    <contour>
      <point x="137" y="4" type="line"/>
      <point x="149" y="71" type="line"/>
      <point x="86" y="71" type="line"/>
      <point x="74" y="4" type="line"/>
    </contour>
  </outline>
</glyph>
<glyph name="at" format="1">
  <advance width="659"/>
  <unicode hex="0040"/>
  <outline>
    <contour>
      <point x="641" y="407" type="qcurve" smooth="yes"/>
      <point x="641" y="483"/>
      <point x="619" y="546" type="qcurve" smooth="yes"/>
      <point x="596" y="611"/>
      <point x="552" y="660" type="qcurve"/>
      <point x="473" y="745"/>
      <point x="358" y="745" type="qcurve" smooth="yes"/>
      <point x="184" y="745"/>
      <point x="84" y="567" type="qcurve" smooth="yes"/>
      <point x="16" y="445"/>
      <point x="16" y="286" type="qcurve" smooth="yes"/>
      <point x="16" y="92"/>
      <point x="119" y="-20" type="qcurve"/>
      <point x="202" y="-113"/>
      <point x="335" y="-113" type="qcurve" smooth="yes"/>
      <point x="461" y="-113"/>
      <point x="566" y="4" type="qcurve"/>
      <point x="546" y="52" type="line"/>
      <point x="438" y="-53"/>
      <point x="331" y="-53" type="qcurve" smooth="yes"/>
      <point x="206" y="-53"/>
      <point x="137" y="52" type="qcurve" smooth="yes"/>
      <point x="78" y="141"/>
      <point x="78" y="279" type="qcurve" smooth="yes"/>
      <point x="78" y="480"/>
      <point x="181" y="599" type="qcurve"/>
      <point x="253" y="684"/>
      <point x="356" y="684" type="qcurve" smooth="yes"/>
      <point x="463" y="684"/>
      <point x="525" y="601" type="qcurve"/>
      <point x="581" y="521"/>
      <point x="581" y="409" type="qcurve" smooth="yes"/>
      <point x="581" y="352"/>
      <point x="559" y="236"/>
      <point x="537" y="193" type="qcurve" smooth="yes"/>
      <point x="514" y="148"/>
      <point x="482" y="122" type="qcurve"/>
      <point x="450" y="94"/>
      <point x="407" y="92" type="qcurve"/>
      <point x="405" y="92" type="line" smooth="yes"/>
      <point x="384" y="92"/>
      <point x="383" y="111" type="qcurve"/>
      <point x="482" y="534" type="line"/>
      <point x="419" y="534" type="line"/>
      <point x="415" y="516" type="line"/>
      <point x="396" y="526"/>
      <point x="360" y="526" type="qcurve" smooth="yes"/>
      <point x="243" y="526"/>
      <point x="214" y="392" type="qcurve"/>
      <point x="214" y="393" type="line"/>
      <point x="173" y="233" type="line" smooth="yes"/>
      <point x="167" y="208"/>
      <point x="167" y="185" type="qcurve" smooth="yes"/>
      <point x="167" y="93"/>
      <point x="266" y="93" type="qcurve" smooth="yes"/>
      <point x="298" y="93"/>
      <point x="323" y="102" type="qcurve"/>
      <point x="324" y="66"/>
      <point x="346" y="48" type="qcurve"/>
      <point x="365" y="31"/>
      <point x="402" y="29" type="qcurve"/>
      <point x="404" y="29" type="line" smooth="yes"/>
      <point x="428" y="29"/>
      <point x="461" y="40" type="qcurve"/>
      <point x="493" y="52"/>
      <point x="522" y="77" type="qcurve" smooth="yes"/>
      <point x="553" y="104"/>
      <point x="578" y="140" type="qcurve" smooth="yes"/>
      <point x="603" y="177"/>
      <point x="620" y="232" type="qcurve"/>
      <point x="633" y="280"/>
      <point x="636" y="319" type="qcurve"/>
      <point x="641" y="355"/>
    </contour>
    <contour>
      <point x="345" y="231" type="line"/>
      <point x="327" y="148"/>
      <point x="271" y="148" type="qcurve" smooth="yes"/>
      <point x="230" y="148"/>
      <point x="230" y="190" type="qcurve" smooth="yes"/>
      <point x="230" y="200"/>
      <point x="235" y="225" type="qcurve"/>
      <point x="235" y="224" type="line"/>
      <point x="277" y="387" type="line" smooth="yes"/>
      <point x="287" y="428"/>
      <point x="306" y="450" type="qcurve" smooth="yes"/>
      <point x="323" y="470"/>
      <point x="355" y="470" type="qcurve" smooth="yes"/>
      <point x="392" y="470"/>
      <point x="392" y="430" type="qcurve" smooth="yes"/>
      <point x="392" y="422"/>
      <point x="387" y="394" type="qcurve"/>
      <point x="387" y="395" type="line"/>
    </contour>
  </outline>
</glyph>
<glyph name="A" format="1">
  <advance width="280"/>
  <unicode hex="0041"/>
  <outline>
    <contour>
      <point x="284" y="0" type="line"/>
      <point x="326" y="834" type="line"/>
      <point x="271" y="834" type="line"/>
      <point x="-11" y="0" type="line"/>
      <point x="51" y="0" type="line"/>
      <point x="179" y="379" type="line"/>
      <point x="242" y="379" type="line"/>
      <point x="221" y="0" type="line"/>
    </contour>
    <contour>
      <point x="199" y="440" type="line"/>
      <point x="254" y="602" type="line"/>
      <point x="245" y="440" type="line"/>
    </contour>
  </outline>
</glyph>
<glyph name="B" format="1">
  <advance width="279"/>
  <unicode hex="0042"/>
  <outline>
    <contour>
      <point x="283" y="137" type="qcurve"/>
      <point x="330" y="378" type="line" smooth="yes"/>
      <point x="333" y="396"/>
      <point x="333" y="414" type="qcurve" smooth="yes"/>
      <point x="333" y="456"/>
      <point x="309" y="478" type="qcurve"/>
      <point x="354" y="506"/>
      <point x="368" y="573" type="qcurve" smooth="yes"/>
      <point x="394" y="704" type="line" smooth="yes"/>
      <point x="396" y="714"/>
      <point x="397" y="722" type="qcurve" smooth="yes"/>
      <point x="398" y="727"/>
      <point x="398" y="741" type="qcurve" smooth="yes"/>
      <point x="398" y="834"/>
      <point x="295" y="834" type="qcurve" smooth="yes"/>
      <point x="181" y="834" type="line"/>
      <point x="20" y="0" type="line"/>
      <point x="139" y="0" type="line" smooth="yes"/>
      <point x="212" y="0"/>
      <point x="244" y="35" type="qcurve"/>
      <point x="270" y="65"/>
    </contour>
    <contour>
      <point x="219" y="132" type="line" smooth="yes"/>
      <point x="209" y="83"/>
      <point x="196" y="72" type="qcurve" smooth="yes"/>
      <point x="179" y="56"/>
      <point x="135" y="56" type="qcurve" smooth="yes"/>
      <point x="95" y="56" type="line"/>
      <point x="172" y="451" type="line"/>
      <point x="218" y="451" type="line" smooth="yes"/>
      <point x="260" y="451"/>
      <point x="269" y="437" type="qcurve"/>
      <point x="269" y="438" type="line"/>
      <point x="272" y="434"/>
      <point x="272" y="418" type="qcurve" smooth="yes"/>
      <point x="272" y="399"/>
      <point x="268" y="382" type="qcurve" smooth="yes"/>
    </contour>
    <contour>
      <point x="307" y="583" type="line" smooth="yes"/>
      <point x="298" y="535"/>
      <point x="276" y="516" type="qcurve"/>
      <point x="266" y="506"/>
      <point x="223" y="506" type="qcurve" smooth="yes"/>
      <point x="183" y="506" type="line"/>
      <point x="235" y="777" type="line"/>
      <point x="281" y="777" type="line" smooth="yes"/>
      <point x="324" y="777"/>
      <point x="331" y="764" type="qcurve" smooth="yes"/>
      <point x="336" y="756"/>
      <point x="336" y="743" type="qcurve" smooth="yes"/>
      <point x="336" y="735"/>
      <point x="331" y="707" type="qcurve" smooth="yes"/>
    </contour>
  </outline>
</glyph>
<glyph name="C" format="1">
  <advance width="265"/>
  <unicode hex="0043"/>
  <outline>
    <contour>
      <point x="283" y="126" type="qcurve" smooth="yes"/>
      <point x="298" y="206" type="line"/>
      <point x="233" y="206" type="line"/>
      <point x="219" y="130" type="line"/>
      <point x="202" y="47"/>
      <point x="145" y="47" type="qcurve" smooth="yes"/>
      <point x="105" y="47"/>
      <point x="105" y="91" type="qcurve" smooth="yes"/>
      <point x="105" y="109"/>
      <point x="109" y="124" type="qcurve"/>
      <point x="222" y="704" type="line" smooth="yes"/>
      <point x="238" y="785"/>
      <point x="295" y="785" type="qcurve" smooth="yes"/>
      <point x="336" y="785"/>
      <point x="336" y="741" type="qcurve" smooth="yes"/>
      <point x="336" y="732"/>
      <point x="334" y="722"/>
      <point x="332" y="710" type="qcurve" smooth="yes"/>
      <point x="316" y="632" type="line"/>
      <point x="382" y="632" type="line"/>
      <point x="395" y="702" type="line" smooth="yes"/>
      <point x="396" y="705"/>
      <point x="398" y="721"/>
      <point x="398" y="724" type="qcurve" smooth="yes"/>
      <point x="399" y="731"/>
      <point x="399" y="746" type="qcurve" smooth="yes"/>
      <point x="399" y="841"/>
      <point x="300" y="841" type="qcurve" smooth="yes"/>
      <point x="183" y="841"/>
      <point x="158" y="708" type="qcurve" smooth="yes"/>
      <point x="46" y="132" type="line" smooth="yes"/>
      <point x="41" y="104"/>
      <point x="41" y="87" type="qcurve" smooth="yes"/>
      <point x="41" y="-8"/>
      <point x="140" y="-8" type="qcurve" smooth="yes"/>
      <point x="257" y="-8"/>
    </contour>
  </outline>
</glyph>
<glyph name="D" format="1">
  <advance width="277"/>
  <unicode hex="0044"/>
  <outline>
    <contour>
      <point x="283" y="123" type="qcurve"/>
      <point x="393" y="691" type="line" smooth="yes"/>
      <point x="397" y="713"/>
      <point x="398" y="722" type="qcurve" smooth="yes"/>
      <point x="400" y="740"/>
      <point x="400" y="750" type="qcurve" smooth="yes"/>
      <point x="400" y="778"/>
      <point x="390" y="794" type="qcurve"/>
      <point x="390" y="793" type="line"/>
      <point x="369" y="834"/>
      <point x="296" y="834" type="qcurve" smooth="yes"/>
      <point x="182" y="834" type="line"/>
      <point x="21" y="0" type="line"/>
      <point x="140" y="0" type="line" smooth="yes"/>
      <point x="200" y="0"/>
      <point x="235" y="30" type="qcurve"/>
      <point x="270" y="62"/>
    </contour>
    <contour>
      <point x="219" y="132" type="line"/>
      <point x="212" y="88"/>
      <point x="198" y="72" type="qcurve"/>
      <point x="181" y="56"/>
      <point x="137" y="56" type="qcurve" smooth="yes"/>
      <point x="95" y="56" type="line"/>
      <point x="235" y="776" type="line"/>
      <point x="283" y="776" type="line" smooth="yes"/>
      <point x="324" y="776"/>
      <point x="331" y="764" type="qcurve" smooth="yes"/>
      <point x="336" y="756"/>
      <point x="336" y="743" type="qcurve" smooth="yes"/>
      <point x="336" y="736"/>
      <point x="331" y="708" type="qcurve" smooth="yes"/>
    </contour>
  </outline>
</glyph>
<glyph name="E" format="1">
  <advance width="257"/>
  <unicode hex="0045"/>
  <outline>
    <contour>
      <point x="255" y="0" type="line"/>
      <point x="265" y="56" type="line"/>
      <point x="95" y="56" type="line"/>
      <point x="172" y="451" type="line"/>
      <point x="343" y="451" type="line"/>
      <point x="354" y="506" type="line"/>
      <point x="183" y="506" type="line"/>
      <point x="235" y="777" type="line"/>
      <point x="406" y="777" type="line"/>
      <point x="416" y="834" type="line"/>
      <point x="181" y="834" type="line"/>
      <point x="20" y="0" type="line"/>
    </contour>
  </outline>
</glyph>
<glyph name="F" format="1">
  <advance width="250"/>
  <unicode hex="0046"/>
  <outline>
    <contour>
      <point x="411" y="776" type="line"/>
      <point x="421" y="834" type="line"/>
      <point x="186" y="834" type="line"/>
      <point x="25" y="0" type="line"/>
      <point x="90" y="0" type="line"/>
      <point x="177" y="452" type="line"/>
      <point x="325" y="452" type="line"/>
      <point x="335" y="509" type="line"/>
      <point x="188" y="509" type="line"/>
      <point x="240" y="776" type="line"/>
    </contour>
  </outline>
</glyph>
<glyph name="G" format="1">
  <advance width="285"/>
  <unicode hex="0047"/>
  <outline>
    <contour>
      <point x="283" y="126" type="qcurve" smooth="yes"/>
      <point x="358" y="509" type="line"/>
      <point x="236" y="509" type="line"/>
      <point x="225" y="447" type="line"/>
      <point x="280" y="447" type="line"/>
      <point x="219" y="130" type="line"/>
      <point x="202" y="47"/>
      <point x="145" y="47" type="qcurve" smooth="yes"/>
      <point x="105" y="47"/>
      <point x="105" y="91" type="qcurve" smooth="yes"/>
      <point x="105" y="109"/>
      <point x="109" y="124" type="qcurve"/>
      <point x="222" y="704" type="line" smooth="yes"/>
      <point x="238" y="785"/>
      <point x="295" y="785" type="qcurve" smooth="yes"/>
      <point x="336" y="785"/>
      <point x="336" y="741" type="qcurve" smooth="yes"/>
      <point x="336" y="732"/>
      <point x="335" y="727" type="qcurve" smooth="yes"/>
      <point x="334" y="720"/>
      <point x="332" y="709" type="qcurve"/>
      <point x="332" y="710" type="line"/>
      <point x="316" y="632" type="line"/>
      <point x="382" y="632" type="line"/>
      <point x="395" y="702" type="line" smooth="yes"/>
      <point x="396" y="705"/>
      <point x="398" y="721"/>
      <point x="398" y="724" type="qcurve" smooth="yes"/>
      <point x="399" y="731"/>
      <point x="399" y="746" type="qcurve" smooth="yes"/>
      <point x="399" y="841"/>
      <point x="300" y="841" type="qcurve" smooth="yes"/>
      <point x="183" y="841"/>
      <point x="158" y="708" type="qcurve" smooth="yes"/>
      <point x="46" y="132" type="line" smooth="yes"/>
      <point x="41" y="104"/>
      <point x="41" y="87" type="qcurve" smooth="yes"/>
      <point x="41" y="-8"/>
      <point x="140" y="-8" type="qcurve" smooth="yes"/>
      <point x="257" y="-8"/>
    </contour>
  </outline>
</glyph>
<glyph name="H" format="1">
  <advance width="281"/>
  <unicode hex="0048"/>
  <outline>
    <contour>
      <point x="261" y="0" type="line"/>
      <point x="422" y="834" type="line"/>
      <point x="359" y="834" type="line"/>
      <point x="296" y="506" type="line"/>
      <point x="187" y="506" type="line"/>
      <point x="250" y="834" type="line"/>
      <point x="185" y="834" type="line"/>
      <point x="24" y="0" type="line"/>
      <point x="89" y="0" type="line"/>
      <point x="176" y="451" type="line"/>
      <point x="285" y="451" type="line"/>
      <point x="197" y="0" type="line"/>
    </contour>
  </outline>
</glyph>
<glyph name="I" format="1">
  <advance width="111"/>
  <unicode hex="0049"/>
  <outline>
    <contour>
      <point x="108" y="1" type="line"/>
      <point x="119" y="62" type="line"/>
      <point x="97" y="62" type="line"/>
      <point x="235" y="771" type="line"/>
      <point x="258" y="771" type="line"/>
      <point x="269" y="832" type="line"/>
      <point x="162" y="832" type="line"/>
      <point x="151" y="771" type="line"/>
      <point x="171" y="771" type="line"/>
      <point x="33" y="62" type="line"/>
      <point x="12" y="62" type="line"/>
      <point x="1" y="1" type="line"/>
    </contour>
  </outline>
</glyph>
<glyph name="J" format="1">
  <advance width="265"/>
  <unicode hex="004A"/>
  <outline>
    <contour>
      <point x="263" y="126" type="qcurve" smooth="yes"/>
      <point x="400" y="834" type="line"/>
      <point x="335" y="834" type="line"/>
      <point x="199" y="130" type="line" smooth="yes"/>
      <point x="182" y="47"/>
      <point x="125" y="47" type="qcurve" smooth="yes"/>
      <point x="94" y="47"/>
      <point x="87" y="65" type="qcurve" smooth="yes"/>
      <point x="84" y="71"/>
      <point x="84" y="84" type="qcurve" smooth="yes"/>
      <point x="84" y="95"/>
      <point x="86" y="102" type="qcurve" smooth="yes"/>
      <point x="86" y="105"/>
      <point x="89" y="120"/>
      <point x="89" y="124" type="qcurve" smooth="yes"/>
      <point x="104" y="206" type="line"/>
      <point x="38" y="206" type="line"/>
      <point x="24" y="132" type="line" smooth="yes"/>
      <point x="24" y="128"/>
      <point x="22" y="113"/>
      <point x="21" y="110" type="qcurve" smooth="yes"/>
      <point x="20" y="103"/>
      <point x="20" y="88" type="qcurve" smooth="yes"/>
      <point x="20" y="-8"/>
      <point x="120" y="-8" type="qcurve" smooth="yes"/>
      <point x="237" y="-8"/>
    </contour>
  </outline>
</glyph>
<glyph name="K" format="1">
  <advance width="295"/>
  <unicode hex="004B"/>
  <outline>
    <contour>
      <point x="263" y="0" type="line"/>
      <point x="336" y="378" type="line" smooth="yes"/>
      <point x="339" y="396"/>
      <point x="339" y="414" type="qcurve" smooth="yes"/>
      <point x="339" y="456"/>
      <point x="315" y="478" type="qcurve"/>
      <point x="360" y="506"/>
      <point x="374" y="573" type="qcurve"/>
      <point x="424" y="834" type="line"/>
      <point x="361" y="834" type="line"/>
      <point x="313" y="583" type="line" smooth="yes"/>
      <point x="304" y="535"/>
      <point x="282" y="516" type="qcurve"/>
      <point x="272" y="506"/>
      <point x="229" y="506" type="qcurve" smooth="yes"/>
      <point x="189" y="506" type="line"/>
      <point x="252" y="834" type="line"/>
      <point x="187" y="834" type="line"/>
      <point x="26" y="0" type="line"/>
      <point x="91" y="0" type="line"/>
      <point x="178" y="451" type="line"/>
      <point x="224" y="451" type="line" smooth="yes"/>
      <point x="266" y="451"/>
      <point x="275" y="437" type="qcurve"/>
      <point x="275" y="438" type="line"/>
      <point x="278" y="434"/>
      <point x="278" y="418" type="qcurve" smooth="yes"/>
      <point x="278" y="399"/>
      <point x="274" y="382" type="qcurve" smooth="yes"/>
      <point x="199" y="0" type="line"/>
    </contour>
  </outline>
</glyph>
<glyph name="L" format="1">
  <advance width="246"/>
  <unicode hex="004C"/>
  <outline>
    <contour>
      <point x="259" y="0" type="line"/>
      <point x="269" y="56" type="line"/>
      <point x="98" y="56" type="line"/>
      <point x="249" y="834" type="line"/>
      <point x="184" y="834" type="line"/>
      <point x="23" y="0" type="line"/>
    </contour>
  </outline>
</glyph>
<glyph name="M" format="1">
  <advance width="459"/>
  <unicode hex="004D"/>
  <outline>
    <contour>
      <point x="432" y="0" type="line"/>
      <point x="593" y="834" type="line"/>
      <point x="530" y="834" type="line"/>
      <point x="264" y="209" type="line"/>
      <point x="247" y="834" type="line"/>
      <point x="184" y="834" type="line"/>
      <point x="23" y="0" type="line"/>
      <point x="88" y="0" type="line"/>
      <point x="193" y="545" type="line"/>
      <point x="209" y="49" type="line"/>
      <point x="261" y="49" type="line"/>
      <point x="474" y="550" type="line"/>
      <point x="368" y="0" type="line"/>
    </contour>
  </outline>
</glyph>
<glyph name="N" format="1">
  <advance width="287"/>
  <unicode hex="004E"/>
  <outline>
    <contour>
      <point x="273" y="0" type="line"/>
      <point x="429" y="834" type="line"/>
      <point x="365" y="834" type="line"/>
      <point x="264" y="315" type="line"/>
      <point x="248" y="832" type="line"/>
      <point x="246" y="832" type="line"/>
      <point x="246" y="834" type="line"/>
      <point x="184" y="834" type="line"/>
      <point x="23" y="0" type="line"/>
      <point x="88" y="0" type="line"/>
      <point x="193" y="545" type="line"/>
      <point x="210" y="34" type="line"/>
      <point x="204" y="0" type="line"/>
    </contour>
  </outline>
</glyph>
<glyph name="P" format="1">
  <advance width="280"/>
  <unicode hex="0050"/>
  <outline>
    <contour>
      <point x="378" y="574" type="qcurve" smooth="yes"/>
      <point x="401" y="691" type="line"/>
      <point x="408" y="720"/>
      <point x="408" y="752" type="qcurve" smooth="yes"/>
      <point x="408" y="775"/>
      <point x="400" y="794" type="qcurve"/>
      <point x="378" y="834"/>
      <point x="305" y="834" type="qcurve" smooth="yes"/>
      <point x="191" y="834" type="line"/>
      <point x="30" y="0" type="line"/>
      <point x="95" y="0" type="line"/>
      <point x="182" y="452" type="line"/>
      <point x="237" y="452" type="line" smooth="yes"/>
      <point x="355" y="452"/>
    </contour>
    <contour>
      <point x="317" y="584" type="line" smooth="yes"/>
      <point x="313" y="563"/>
      <point x="306" y="546" type="qcurve"/>
      <point x="302" y="532"/>
      <point x="293" y="523" type="qcurve"/>
      <point x="295" y="524" type="line"/>
      <point x="277" y="509"/>
      <point x="233" y="509" type="qcurve" smooth="yes"/>
      <point x="193" y="509" type="line"/>
      <point x="245" y="776" type="line"/>
      <point x="291" y="776" type="line" smooth="yes"/>
      <point x="333" y="776"/>
      <point x="342" y="763" type="qcurve"/>
      <point x="342" y="764" type="line"/>
      <point x="346" y="757"/>
      <point x="346" y="743" type="qcurve" smooth="yes"/>
      <point x="346" y="736"/>
      <point x="341" y="708" type="qcurve" smooth="yes"/>
    </contour>
  </outline>
</glyph>
<glyph name="Q" format="1">
  <advance width="285"/>
  <unicode hex="0051"/>
  <outline>
    <contour>
      <point x="283" y="126" type="qcurve" smooth="yes"/>
      <point x="395" y="702" type="line" smooth="yes"/>
      <point x="396" y="705"/>
      <point x="398" y="721"/>
      <point x="398" y="724" type="qcurve" smooth="yes"/>
      <point x="399" y="731"/>
      <point x="399" y="746" type="qcurve" smooth="yes"/>
      <point x="399" y="841"/>
      <point x="300" y="841" type="qcurve" smooth="yes"/>
      <point x="183" y="841"/>
      <point x="158" y="708" type="qcurve" smooth="yes"/>
      <point x="46" y="132" type="line" smooth="yes"/>
      <point x="46" y="128"/>
      <point x="44" y="113"/>
      <point x="43" y="110" type="qcurve" smooth="yes"/>
      <point x="42" y="103"/>
      <point x="42" y="88" type="qcurve" smooth="yes"/>
      <point x="42" y="7"/>
      <point x="111" y="-6" type="qcurve"/>
      <point x="105" y="-41" type="line" smooth="yes"/>
      <point x="104" y="-44"/>
      <point x="102" y="-59"/>
      <point x="102" y="-63" type="qcurve" smooth="yes"/>
      <point x="101" y="-70"/>
      <point x="101" y="-85" type="qcurve" smooth="yes"/>
      <point x="101" y="-180"/>
      <point x="213" y="-180" type="qcurve"/>
      <point x="223" y="-124" type="line"/>
      <point x="164" y="-124"/>
      <point x="164" y="-80" type="qcurve" smooth="yes"/>
      <point x="164" y="-72"/>
      <point x="165" y="-66" type="qcurve" smooth="yes"/>
      <point x="166" y="-61"/>
      <point x="168" y="-49" type="qcurve" smooth="yes"/>
      <point x="177" y="-4" type="line"/>
      <point x="262" y="15"/>
    </contour>
    <contour>
      <point x="219" y="130" type="line"/>
      <point x="208" y="82"/>
      <point x="190" y="64" type="qcurve"/>
      <point x="251" y="376" type="line" smooth="yes"/>
      <point x="252" y="380"/>
      <point x="254" y="395"/>
      <point x="254" y="398" type="qcurve" smooth="yes"/>
      <point x="255" y="405"/>
      <point x="255" y="420" type="qcurve" smooth="yes"/>
      <point x="255" y="501"/>
      <point x="184" y="513" type="qcurve"/>
      <point x="222" y="704" type="line" smooth="yes"/>
      <point x="238" y="785"/>
      <point x="295" y="785" type="qcurve" smooth="yes"/>
      <point x="336" y="785"/>
      <point x="336" y="741" type="qcurve" smooth="yes"/>
      <point x="336" y="732"/>
      <point x="334" y="722"/>
      <point x="332" y="710" type="qcurve" smooth="yes"/>
    </contour>
    <contour>
      <point x="105" y="90" type="qcurve" smooth="yes"/>
      <point x="105" y="107"/>
      <point x="109" y="124" type="qcurve" smooth="yes"/>
      <point x="173" y="455" type="line"/>
      <point x="191" y="446"/>
      <point x="191" y="415" type="qcurve" smooth="yes"/>
      <point x="191" y="406"/>
      <point x="189" y="396"/>
      <point x="187" y="384" type="qcurve" smooth="yes"/>
      <point x="123" y="52" type="line"/>
      <point x="105" y="60"/>
    </contour>
  </outline>
</glyph>
<glyph name="R" format="1">
  <advance width="298"/>
  <unicode hex="0052"/>
  <outline>
    <contour>
      <point x="263" y="0" type="line"/>
      <point x="334" y="368" type="line"/>
      <point x="338" y="383"/>
      <point x="338" y="407" type="qcurve" smooth="yes"/>
      <point x="338" y="450"/>
      <point x="314" y="472" type="qcurve"/>
      <point x="359" y="498"/>
      <point x="373" y="569" type="qcurve" smooth="yes"/>
      <point x="397" y="691" type="line"/>
      <point x="404" y="720"/>
      <point x="404" y="752" type="qcurve" smooth="yes"/>
      <point x="404" y="775"/>
      <point x="396" y="794" type="qcurve"/>
      <point x="374" y="834"/>
      <point x="301" y="834" type="qcurve" smooth="yes"/>
      <point x="187" y="834" type="line"/>
      <point x="26" y="0" type="line"/>
      <point x="91" y="0" type="line"/>
      <point x="176" y="441" type="line"/>
      <point x="222" y="441" type="line" smooth="yes"/>
      <point x="260" y="441"/>
      <point x="270" y="425" type="qcurve" smooth="yes"/>
      <point x="275" y="417"/>
      <point x="275" y="402" type="qcurve" smooth="yes"/>
      <point x="275" y="393"/>
      <point x="274" y="388" type="qcurve" smooth="yes"/>
      <point x="272" y="380"/>
      <point x="271" y="370" type="qcurve" smooth="yes"/>
      <point x="200" y="0" type="line"/>
    </contour>
    <contour>
      <point x="312" y="578" type="line" smooth="yes"/>
      <point x="303" y="533"/>
      <point x="288" y="518" type="qcurve"/>
      <point x="289" y="518" type="line"/>
      <point x="280" y="511"/>
      <point x="266" y="506" type="qcurve" smooth="yes"/>
      <point x="253" y="502"/>
      <point x="228" y="502" type="qcurve" smooth="yes"/>
      <point x="188" y="502" type="line"/>
      <point x="241" y="776" type="line"/>
      <point x="287" y="776" type="line" smooth="yes"/>
      <point x="329" y="776"/>
      <point x="338" y="763" type="qcurve"/>
      <point x="338" y="764" type="line"/>
      <point x="342" y="757"/>
      <point x="342" y="743" type="qcurve" smooth="yes"/>
      <point x="342" y="736"/>
      <point x="337" y="708" type="qcurve" smooth="yes"/>
    </contour>
  </outline>
</glyph>
<glyph name="S" format="1">
  <advance width="267"/>
  <unicode hex="0053"/>
  <outline>
    <contour>
      <point x="328" y="412" type="line"/>
      <point x="325" y="412" type="line"/>
      <point x="325" y="501"/>
      <point x="226" y="501" type="qcurve" smooth="yes"/>
      <point x="185" y="501"/>
      <point x="185" y="546" type="qcurve" smooth="yes"/>
      <point x="185" y="555"/>
      <point x="186" y="560" type="qcurve" smooth="yes"/>
      <point x="188" y="568"/>
      <point x="189" y="578" type="qcurve" smooth="yes"/>
      <point x="214" y="704" type="line" smooth="yes"/>
      <point x="230" y="786"/>
      <point x="287" y="786" type="qcurve" smooth="yes"/>
      <point x="328" y="786"/>
      <point x="328" y="742" type="qcurve" smooth="yes"/>
      <point x="328" y="733"/>
      <point x="327" y="728" type="qcurve" smooth="yes"/>
      <point x="324" y="710" type="line"/>
      <point x="307" y="627" type="line"/>
      <point x="371" y="627" type="line"/>
      <point x="385" y="702" type="line" smooth="yes"/>
      <point x="390" y="730"/>
      <point x="390" y="747" type="qcurve" smooth="yes"/>
      <point x="390" y="841"/>
      <point x="292" y="841" type="qcurve" smooth="yes"/>
      <point x="173" y="841"/>
      <point x="148" y="708" type="qcurve" smooth="yes"/>
      <point x="125" y="587" type="line" smooth="yes"/>
      <point x="124" y="580"/>
      <point x="122" y="564" type="qcurve" smooth="yes"/>
      <point x="121" y="557"/>
      <point x="121" y="542" type="qcurve" smooth="yes"/>
      <point x="121" y="446"/>
      <point x="221" y="446" type="qcurve" smooth="yes"/>
      <point x="264" y="446"/>
      <point x="264" y="410" type="qcurve" smooth="yes"/>
      <point x="264" y="402"/>
      <point x="261" y="389" type="qcurve" smooth="yes"/>
      <point x="211" y="130" type="line" smooth="yes"/>
      <point x="195" y="49"/>
      <point x="138" y="49" type="qcurve" smooth="yes"/>
      <point x="97" y="49"/>
      <point x="97" y="93" type="qcurve" smooth="yes"/>
      <point x="97" y="101"/>
      <point x="98" y="106" type="qcurve" smooth="yes"/>
      <point x="100" y="114"/>
      <point x="101" y="124" type="qcurve" smooth="yes"/>
      <point x="115" y="201" type="line"/>
      <point x="49" y="201" type="line"/>
      <point x="36" y="132" type="line" smooth="yes"/>
      <point x="36" y="128"/>
      <point x="34" y="113"/>
      <point x="33" y="110" type="qcurve" smooth="yes"/>
      <point x="32" y="103"/>
      <point x="32" y="88" type="qcurve" smooth="yes"/>
      <point x="32" y="-8"/>
      <point x="132" y="-8" type="qcurve" smooth="yes"/>
      <point x="247" y="-8"/>
      <point x="273" y="126" type="qcurve" smooth="yes"/>
    </contour>
  </outline>
</glyph>
<glyph name="T" format="1">
  <advance width="274"/>
  <unicode hex="0054"/>
  <outline>
    <contour>
      <point x="429" y="776" type="line"/>
      <point x="439" y="834" type="line"/>
      <point x="152" y="834" type="line"/>
      <point x="142" y="776" type="line"/>
      <point x="254" y="776" type="line"/>
      <point x="103" y="0" type="line"/>
      <point x="169" y="0" type="line"/>
      <point x="319" y="776" type="line"/>
    </contour>
  </outline>
</glyph>
<glyph name="U" format="1">
  <advance width="285"/>
  <unicode hex="0055"/>
  <outline>
    <contour>
      <point x="283" y="126" type="qcurve" smooth="yes"/>
      <point x="420" y="834" type="line"/>
      <point x="355" y="834" type="line"/>
      <point x="219" y="130" type="line" smooth="yes"/>
      <point x="202" y="47"/>
      <point x="145" y="47" type="qcurve" smooth="yes"/>
      <point x="105" y="47"/>
      <point x="105" y="91" type="qcurve" smooth="yes"/>
      <point x="105" y="109"/>
      <point x="109" y="124" type="qcurve"/>
      <point x="246" y="834" type="line"/>
      <point x="182" y="834" type="line"/>
      <point x="46" y="132" type="line" smooth="yes"/>
      <point x="41" y="104"/>
      <point x="41" y="87" type="qcurve" smooth="yes"/>
      <point x="41" y="-8"/>
      <point x="140" y="-8" type="qcurve" smooth="yes"/>
      <point x="257" y="-8"/>
    </contour>
  </outline>
</glyph>
<glyph name="V" format="1">
  <advance width="280"/>
  <unicode hex="0056"/>
  <outline>
    <contour>
      <point x="447" y="834" type="line"/>
      <point x="381" y="834" type="line"/>
      <point x="185" y="253" type="line"/>
      <point x="216" y="834" type="line"/>
      <point x="152" y="834" type="line"/>
      <point x="110" y="0" type="line"/>
      <point x="165" y="0" type="line"/>
    </contour>
  </outline>
</glyph>
<glyph name="W" format="1">
  <advance width="459"/>
  <unicode hex="0057"/>
  <outline>
    <contour>
      <point x="457" y="126" type="qcurve" smooth="yes"/>
      <point x="594" y="834" type="line"/>
      <point x="529" y="834" type="line"/>
      <point x="393" y="130" type="line" smooth="yes"/>
      <point x="376" y="47"/>
      <point x="319" y="47" type="qcurve" smooth="yes"/>
      <point x="293" y="47"/>
      <point x="292" y="117" type="qcurve" smooth="yes"/>
      <point x="292" y="169"/>
      <point x="304" y="233" type="qcurve" smooth="yes"/>
      <point x="420" y="834" type="line"/>
      <point x="355" y="834" type="line"/>
      <point x="240" y="239" type="line"/>
      <point x="230" y="197"/>
      <point x="226" y="178" type="qcurve"/>
      <point x="215" y="141"/>
      <point x="206" y="122" type="qcurve" smooth="yes"/>
      <point x="174" y="47"/>
      <point x="145" y="47" type="qcurve" smooth="yes"/>
      <point x="105" y="47"/>
      <point x="105" y="91" type="qcurve" smooth="yes"/>
      <point x="105" y="109"/>
      <point x="109" y="124" type="qcurve"/>
      <point x="246" y="834" type="line"/>
      <point x="182" y="834" type="line"/>
      <point x="46" y="132" type="line"/>
      <point x="44" y="116"/>
      <point x="42" y="108" type="qcurve" smooth="yes"/>
      <point x="42" y="104"/>
      <point x="41" y="90"/>
      <point x="41" y="86" type="qcurve" smooth="yes"/>
      <point x="41" y="-8"/>
      <point x="137" y="-8" type="qcurve" smooth="yes"/>
      <point x="140" y="-8" type="line" smooth="yes"/>
      <point x="198" y="-8"/>
      <point x="237" y="57" type="qcurve"/>
      <point x="247" y="-4"/>
      <point x="313" y="-8" type="qcurve"/>
      <point x="317" y="-8" type="line" smooth="yes"/>
      <point x="431" y="-8"/>
    </contour>
  </outline>
</glyph>
<glyph name="X" format="1">
  <advance width="280"/>
  <unicode hex="0058"/>
  <outline>
    <contour>
      <point x="286" y="0" type="line"/>
      <point x="251" y="416" type="line"/>
      <point x="450" y="834" type="line"/>
      <point x="382" y="834" type="line"/>
      <point x="239" y="533" type="line"/>
      <point x="217" y="834" type="line"/>
      <point x="150" y="834" type="line"/>
      <point x="186" y="429" type="line"/>
      <point x="-14" y="0" type="line"/>
      <point x="54" y="0" type="line"/>
      <point x="196" y="305" type="line"/>
      <point x="218" y="0" type="line"/>
    </contour>
  </outline>
</glyph>
<glyph name="Y" format="1">
  <advance width="267"/>
  <unicode hex="0059"/>
  <outline>
    <contour>
      <point x="445" y="834" type="line"/>
      <point x="377" y="834" type="line"/>
      <point x="234" y="533" type="line"/>
      <point x="212" y="834" type="line"/>
      <point x="145" y="834" type="line"/>
      <point x="182" y="430" type="line"/>
      <point x="99" y="0" type="line"/>
      <point x="164" y="0" type="line"/>
      <point x="246" y="424" type="line"/>
    </contour>
  </outline>
</glyph>
<glyph name="Z" format="1">
  <advance width="262"/>
  <unicode hex="005A"/>
  <outline>
    <contour>
      <point x="423" y="834" type="line"/>
      <point x="166" y="834" type="line"/>
      <point x="156" y="776" type="line"/>
      <point x="331" y="776" type="line"/>
      <point x="-4" y="0" type="line"/>
      <point x="254" y="0" type="line"/>
      <point x="264" y="56" type="line"/>
      <point x="89" y="56" type="line"/>
    </contour>
  </outline>
</glyph>
<glyph name="bracketleft" format="1">
  <advance width="150"/>
  <unicode hex="005B"/>
  <outline>
    <contour>
      <point x="109" y="-224" type="line"/>
      <point x="120" y="-169" type="line"/>
      <point x="54" y="-169" type="line"/>
      <point x="249" y="831" type="line"/>
      <point x="315" y="831" type="line"/>
      <point x="325" y="887" type="line"/>
      <point x="195" y="887" type="line"/>
      <point x="-22" y="-224" type="line"/>
    </contour>
  </outline>
</glyph>
<glyph name="backslash" format="1">
  <advance width="291"/>
  <unicode hex="005C"/>
  <outline>
    <contour>
      <point x="304" y="0" type="line"/>
      <point x="211" y="841" type="line"/>
      <point x="147" y="841" type="line"/>
      <point x="240" y="0" type="line"/>
    </contour>
  </outline>
</glyph>
<glyph name="bracketright" format="1">
  <advance width="150"/>
  <unicode hex="005D"/>
  <outline>
    <contour>
      <point x="109" y="-224" type="line"/>
      <point x="326" y="887" type="line"/>
      <point x="195" y="887" type="line"/>
      <point x="185" y="831" type="line"/>
      <point x="249" y="831" type="line"/>
      <point x="54" y="-169" type="line"/>
      <point x="-11" y="-169" type="line"/>
      <point x="-22" y="-224" type="line"/>
    </contour>
  </outline>
</glyph>
<glyph name="asciicircum" format="1">
  <advance width="332"/>
  <unicode hex="005E"/>
  <outline>
    <contour>
      <point x="338" y="536" type="line"/>
      <point x="350" y="824" type="line"/>
      <point x="295" y="824" type="line"/>
      <point x="195" y="536" type="line"/>
      <point x="259" y="536" type="line"/>
      <point x="277" y="587" type="line"/>
      <point x="275" y="536" type="line"/>
    </contour>
  </outline>
</glyph>
<glyph name="underscore" format="1">
  <advance width="558"/>
  <unicode hex="005F"/>
  <outline>
    <contour>
      <point x="553" y="-100" type="line"/>
      <point x="564" y="-37" type="line"/>
      <point x="-27" y="-37" type="line"/>
      <point x="-38" y="-100" type="line"/>
    </contour>
  </outline>
</glyph>
<glyph name="grave" format="1">
  <advance width="150"/>
  <unicode hex="0060"/>
  <outline>
    <contour>
      <point x="269" y="672" type="line"/>
      <point x="221" y="825" type="line"/>
      <point x="157" y="794" type="line"/>
      <point x="204" y="641" type="line"/>
    </contour>
  </outline>
</glyph>
<glyph name="a" format="1">
  <advance width="285"/>
  <unicode hex="0061"/>
  <outline>
    <contour>
      <point x="258" y="-4" type="line"/>
      <point x="378" y="609" type="line"/>
      <point x="315" y="609" type="line"/>
      <point x="311" y="591" type="line"/>
      <point x="291" y="601"/>
      <point x="255" y="601" type="qcurve" smooth="yes"/>
      <point x="137" y="601"/>
      <point x="111" y="467" type="qcurve" smooth="yes"/>
      <point x="46" y="132" type="line" smooth="yes"/>
      <point x="46" y="128"/>
      <point x="44" y="113"/>
      <point x="43" y="110" type="qcurve" smooth="yes"/>
      <point x="42" y="103"/>
      <point x="42" y="88" type="qcurve" smooth="yes"/>
      <point x="42" y="-8"/>
      <point x="142" y="-8" type="qcurve" smooth="yes"/>
      <point x="170" y="-8"/>
      <point x="196" y="1" type="qcurve"/>
      <point x="195" y="-4" type="line"/>
    </contour>
    <contour>
      <point x="219" y="130" type="line" smooth="yes"/>
      <point x="202" y="47"/>
      <point x="147" y="47" type="qcurve" smooth="yes"/>
      <point x="105" y="47"/>
      <point x="105" y="92" type="qcurve" smooth="yes"/>
      <point x="105" y="101"/>
      <point x="106" y="106" type="qcurve" smooth="yes"/>
      <point x="108" y="114"/>
      <point x="109" y="124" type="qcurve" smooth="yes"/>
      <point x="175" y="463" type="line" smooth="yes"/>
      <point x="191" y="545"/>
      <point x="250" y="545" type="qcurve" smooth="yes"/>
      <point x="289" y="545"/>
      <point x="289" y="501" type="qcurve" smooth="yes"/>
      <point x="289" y="492"/>
      <point x="288" y="486" type="qcurve" smooth="yes"/>
      <point x="287" y="481"/>
      <point x="285" y="469" type="qcurve" smooth="yes"/>
    </contour>
  </outline>
</glyph>
<glyph name="b" format="1">
  <advance width="275"/>
  <unicode hex="0062"/>
  <outline>
    <contour>
      <point x="283" y="126" type="qcurve" smooth="yes"/>
      <point x="348" y="461" type="line" smooth="yes"/>
      <point x="348" y="464"/>
      <point x="350" y="479"/>
      <point x="351" y="483" type="qcurve" smooth="yes"/>
      <point x="352" y="490"/>
      <point x="352" y="505" type="qcurve" smooth="yes"/>
      <point x="352" y="601"/>
      <point x="253" y="601" type="qcurve" smooth="yes"/>
      <point x="223" y="601"/>
      <point x="199" y="592" type="qcurve"/>
      <point x="244" y="824" type="line"/>
      <point x="180" y="824" type="line"/>
      <point x="20" y="-4" type="line"/>
      <point x="84" y="-4" type="line"/>
      <point x="85" y="3" type="line"/>
      <point x="110" y="-8"/>
      <point x="140" y="-8" type="qcurve" smooth="yes"/>
      <point x="257" y="-8"/>
    </contour>
    <contour>
      <point x="219" y="130" type="line" smooth="yes"/>
      <point x="202" y="47"/>
      <point x="145" y="47" type="qcurve" smooth="yes"/>
      <point x="105" y="47"/>
      <point x="105" y="91" type="qcurve" smooth="yes"/>
      <point x="105" y="109"/>
      <point x="109" y="124" type="qcurve"/>
      <point x="175" y="463" type="line" smooth="yes"/>
      <point x="191" y="545"/>
      <point x="248" y="545" type="qcurve" smooth="yes"/>
      <point x="289" y="545"/>
      <point x="289" y="501" type="qcurve" smooth="yes"/>
      <point x="289" y="492"/>
      <point x="288" y="486" type="qcurve" smooth="yes"/>
      <point x="287" y="481"/>
      <point x="285" y="469" type="qcurve" smooth="yes"/>
    </contour>
  </outline>
</glyph>
<glyph name="f" format="1">
  <advance width="254"/>
  <unicode hex="0066"/>
  <outline>
    <contour>
      <point x="395" y="664" type="line"/>
      <point x="400" y="693" type="line" smooth="yes"/>
      <point x="401" y="700"/>
      <point x="403" y="716" type="qcurve" smooth="yes"/>
      <point x="404" y="723"/>
      <point x="404" y="738" type="qcurve" smooth="yes"/>
      <point x="404" y="834"/>
      <point x="304" y="834" type="qcurve" smooth="yes"/>
      <point x="186" y="834"/>
      <point x="161" y="699" type="qcurve"/>
      <point x="23" y="-8" type="line"/>
      <point x="89" y="-8" type="line"/>
      <point x="195" y="540" type="line"/>
      <point x="332" y="540" type="line"/>
      <point x="344" y="600" type="line"/>
      <point x="207" y="600" type="line"/>
      <point x="226" y="696" type="line" smooth="yes"/>
      <point x="242" y="777"/>
      <point x="299" y="777" type="qcurve" smooth="yes"/>
      <point x="332" y="777"/>
      <point x="339" y="759" type="qcurve"/>
      <point x="339" y="761" type="line"/>
      <point x="340" y="758"/>
      <point x="340" y="752" type="qcurve"/>
      <point x="341" y="750"/>
      <point x="341" y="741" type="qcurve" smooth="yes"/>
      <point x="341" y="739"/>
      <point x="340" y="727"/>
      <point x="340" y="724" type="qcurve" smooth="yes"/>
      <point x="338" y="716"/>
      <point x="336" y="702" type="qcurve" smooth="yes"/>
      <point x="328" y="664" type="line"/>
    </contour>
  </outline>
</glyph>
<glyph name="g" format="1">
  <advance width="285"/>
  <unicode hex="0067"/>
  <outline>
    <contour>
      <point x="241" y="-98" type="qcurve" smooth="yes"/>
      <point x="376" y="599" type="line"/>
      <point x="313" y="599" type="line"/>
      <point x="311" y="590" type="line"/>
      <point x="284" y="601"/>
      <point x="253" y="601" type="qcurve" smooth="yes"/>
      <point x="137" y="601"/>
      <point x="111" y="467" type="qcurve" smooth="yes"/>
      <point x="46" y="132" type="line" smooth="yes"/>
      <point x="41" y="104"/>
      <point x="41" y="87" type="qcurve" smooth="yes"/>
      <point x="41" y="-8"/>
      <point x="140" y="-8" type="qcurve" smooth="yes"/>
      <point x="171" y="-8"/>
      <point x="195" y="1" type="qcurve"/>
      <point x="177" y="-95" type="line"/>
      <point x="160" y="-176"/>
      <point x="104" y="-176" type="qcurve" smooth="yes"/>
      <point x="72" y="-176"/>
      <point x="64" y="-158" type="qcurve"/>
      <point x="64" y="-159" type="line"/>
      <point x="62" y="-149"/>
      <point x="62" y="-141" type="qcurve" smooth="yes"/>
      <point x="62" y="-130"/>
      <point x="64" y="-124" type="qcurve"/>
      <point x="64" y="-120"/>
      <point x="67" y="-104"/>
      <point x="67" y="-101" type="qcurve" smooth="yes"/>
      <point x="84" y="-18" type="line"/>
      <point x="17" y="-18" type="line"/>
      <point x="3" y="-92" type="line" smooth="yes"/>
      <point x="2" y="-95"/>
      <point x="0" y="-111"/>
      <point x="0" y="-114" type="qcurve" smooth="yes"/>
      <point x="-1" y="-121"/>
      <point x="-1" y="-136" type="qcurve" smooth="yes"/>
      <point x="-1" y="-231"/>
      <point x="99" y="-231" type="qcurve" smooth="yes"/>
      <point x="216" y="-231"/>
    </contour>
    <contour>
      <point x="219" y="130" type="line" smooth="yes"/>
      <point x="202" y="47"/>
      <point x="145" y="47" type="qcurve" smooth="yes"/>
      <point x="105" y="47"/>
      <point x="105" y="91" type="qcurve" smooth="yes"/>
      <point x="105" y="109"/>
      <point x="109" y="124" type="qcurve"/>
      <point x="175" y="463" type="line" smooth="yes"/>
      <point x="191" y="545"/>
      <point x="248" y="545" type="qcurve" smooth="yes"/>
      <point x="289" y="545"/>
      <point x="289" y="501" type="qcurve" smooth="yes"/>
      <point x="289" y="492"/>
      <point x="288" y="486" type="qcurve" smooth="yes"/>
      <point x="287" y="481"/>
      <point x="285" y="469" type="qcurve" smooth="yes"/>
    </contour>
  </outline>
</glyph>
<glyph name="h" format="1">
  <advance width="285"/>
  <unicode hex="0068"/>
  <outline>
    <contour>
      <point x="257" y="-8" type="line"/>
      <point x="349" y="464" type="line" smooth="yes"/>
      <point x="350" y="467"/>
      <point x="352" y="483"/>
      <point x="352" y="486" type="qcurve" smooth="yes"/>
      <point x="353" y="493"/>
      <point x="353" y="508" type="qcurve" smooth="yes"/>
      <point x="353" y="604"/>
      <point x="254" y="604" type="qcurve" smooth="yes"/>
      <point x="219" y="604"/>
      <point x="198" y="594" type="qcurve"/>
      <point x="244" y="834" type="line"/>
      <point x="179" y="834" type="line"/>
      <point x="15" y="-8" type="line"/>
      <point x="83" y="-8" type="line"/>
      <point x="175" y="466" type="line" smooth="yes"/>
      <point x="192" y="549"/>
      <point x="249" y="549" type="qcurve" smooth="yes"/>
      <point x="289" y="549"/>
      <point x="289" y="505" type="qcurve" smooth="yes"/>
      <point x="289" y="487"/>
      <point x="285" y="472" type="qcurve"/>
      <point x="191" y="-8" type="line"/>
    </contour>
  </outline>
</glyph>
<glyph name="i" format="1">
  <advance width="116"/>
  <unicode hex="0069"/>
  <outline>
    <contour>
      <point x="88" y="0" type="line"/>
      <point x="206" y="604" type="line"/>
      <point x="140" y="604" type="line"/>
      <point x="22" y="0" type="line"/>
    </contour>
    <contour>
      <point x="217" y="664" type="line"/>
      <point x="228" y="726" type="line"/>
      <point x="163" y="726" type="line"/>
      <point x="152" y="664" type="line"/>
    </contour>
  </outline>
</glyph>
<glyph name="j" format="1">
  <advance width="104"/>
  <unicode hex="006A"/>
  <outline>
    <contour>
      <point x="62" y="-98" type="qcurve" smooth="yes"/>
      <point x="197" y="599" type="line"/>
      <point x="134" y="599" type="line"/>
      <point x="-1" y="-95" type="line"/>
      <point x="-18" y="-176"/>
      <point x="-88" y="-176" type="qcurve"/>
      <point x="-99" y="-231" type="line"/>
      <point x="37" y="-231"/>
    </contour>
    <contour>
      <point x="213" y="665" type="line"/>
      <point x="224" y="727" type="line"/>
      <point x="160" y="727" type="line"/>
      <point x="149" y="665" type="line"/>
    </contour>
  </outline>
</glyph>
<glyph name="k" format="1">
  <advance width="281"/>
  <unicode hex="006B"/>
  <outline>
    <contour>
      <point x="258" y="0" type="line"/>
      <point x="308" y="258" type="line" smooth="yes"/>
      <point x="312" y="275"/>
      <point x="312" y="298" type="qcurve" smooth="yes"/>
      <point x="312" y="337"/>
      <point x="291" y="358" type="qcurve"/>
      <point x="333" y="386"/>
      <point x="346" y="453" type="qcurve" smooth="yes"/>
      <point x="376" y="606" type="line"/>
      <point x="312" y="604" type="line"/>
      <point x="284" y="463" type="line"/>
      <point x="277" y="417"/>
      <point x="260" y="402" type="qcurve"/>
      <point x="244" y="386"/>
      <point x="200" y="386" type="qcurve" smooth="yes"/>
      <point x="160" y="386" type="line"/>
      <point x="247" y="834" type="line"/>
      <point x="182" y="834" type="line"/>
      <point x="21" y="0" type="line"/>
      <point x="86" y="0" type="line"/>
      <point x="148" y="326" type="line"/>
      <point x="194" y="326" type="line" smooth="yes"/>
      <point x="241" y="326"/>
      <point x="245" y="319" type="qcurve" smooth="yes"/>
      <point x="250" y="311"/>
      <point x="250" y="298" type="qcurve" smooth="yes"/>
      <point x="250" y="290"/>
      <point x="245" y="262" type="qcurve" smooth="yes"/>
      <point x="195" y="0" type="line"/>
    </contour>
  </outline>
</glyph>
<glyph name="l" format="1">
  <advance width="116"/>
  <unicode hex="006C"/>
  <outline>
    <contour>
      <point x="88" y="0" type="line"/>
      <point x="254" y="858" type="line"/>
      <point x="177" y="795" type="line"/>
      <point x="22" y="0" type="line"/>
    </contour>
  </outline>
</glyph>
<glyph name="m" format="1">
  <advance width="452"/>
  <unicode hex="006D"/>
  <outline>
    <contour>
      <point x="432" y="-8" type="line"/>
      <point x="524" y="464" type="line" smooth="yes"/>
      <point x="524" y="467"/>
      <point x="526" y="483"/>
      <point x="527" y="486" type="qcurve" smooth="yes"/>
      <point x="528" y="493"/>
      <point x="528" y="508" type="qcurve" smooth="yes"/>
      <point x="528" y="604"/>
      <point x="429" y="604" type="qcurve" smooth="yes"/>
      <point x="371" y="604"/>
      <point x="336" y="572" type="qcurve"/>
      <point x="313" y="604"/>
      <point x="254" y="604" type="qcurve" smooth="yes"/>
      <point x="223" y="604"/>
      <point x="199" y="595" type="qcurve"/>
      <point x="201" y="604" type="line"/>
      <point x="135" y="604" type="line"/>
      <point x="15" y="-8" type="line"/>
      <point x="83" y="-8" type="line"/>
      <point x="175" y="466" type="line" smooth="yes"/>
      <point x="192" y="549"/>
      <point x="249" y="549" type="qcurve" smooth="yes"/>
      <point x="289" y="549"/>
      <point x="289" y="505" type="qcurve" smooth="yes"/>
      <point x="289" y="487"/>
      <point x="285" y="472" type="qcurve"/>
      <point x="191" y="-8" type="line"/>
      <point x="258" y="-8" type="line"/>
      <point x="350" y="466" type="line" smooth="yes"/>
      <point x="367" y="549"/>
      <point x="424" y="549" type="qcurve" smooth="yes"/>
      <point x="464" y="549"/>
      <point x="464" y="505" type="qcurve" smooth="yes"/>
      <point x="464" y="487"/>
      <point x="460" y="472" type="qcurve"/>
      <point x="366" y="-8" type="line"/>
    </contour>
  </outline>
</glyph>
<glyph name="n" format="1">
  <advance width="279"/>
  <unicode hex="006E"/>
  <outline>
    <contour>
      <point x="257" y="-8" type="line"/>
      <point x="349" y="464" type="line" smooth="yes"/>
      <point x="350" y="467"/>
      <point x="352" y="483"/>
      <point x="352" y="486" type="qcurve" smooth="yes"/>
      <point x="353" y="493"/>
      <point x="353" y="508" type="qcurve" smooth="yes"/>
      <point x="353" y="604"/>
      <point x="254" y="604" type="qcurve" smooth="yes"/>
      <point x="223" y="604"/>
      <point x="199" y="595" type="qcurve"/>
      <point x="201" y="604" type="line"/>
      <point x="135" y="604" type="line"/>
      <point x="15" y="-8" type="line"/>
      <point x="83" y="-8" type="line"/>
      <point x="175" y="466" type="line" smooth="yes"/>
      <point x="192" y="549"/>
      <point x="249" y="549" type="qcurve" smooth="yes"/>
      <point x="289" y="549"/>
      <point x="289" y="505" type="qcurve" smooth="yes"/>
      <point x="289" y="487"/>
      <point x="285" y="472" type="qcurve"/>
      <point x="191" y="-8" type="line"/>
    </contour>
  </outline>
</glyph>
<glyph name="p" format="1">
  <advance width="275"/>
  <unicode hex="0070"/>
  <outline>
    <contour>
      <point x="278" y="126" type="qcurve" smooth="yes"/>
      <point x="343" y="461" type="line" smooth="yes"/>
      <point x="344" y="464"/>
      <point x="346" y="479"/>
      <point x="346" y="483" type="qcurve" smooth="yes"/>
      <point x="347" y="490"/>
      <point x="347" y="505" type="qcurve" smooth="yes"/>
      <point x="347" y="600"/>
      <point x="247" y="600" type="qcurve" smooth="yes"/>
      <point x="220" y="600"/>
      <point x="193" y="592" type="qcurve"/>
      <point x="194" y="596" type="line"/>
      <point x="131" y="596" type="line"/>
      <point x="-30" y="-231" type="line"/>
      <point x="34" y="-231" type="line"/>
      <point x="78" y="1" type="line"/>
      <point x="98" y="-9"/>
      <point x="134" y="-9" type="qcurve" smooth="yes"/>
      <point x="252" y="-9"/>
    </contour>
    <contour>
      <point x="214" y="129" type="line" smooth="yes"/>
      <point x="198" y="47"/>
      <point x="139" y="47" type="qcurve" smooth="yes"/>
      <point x="100" y="47"/>
      <point x="100" y="89" type="qcurve" smooth="yes"/>
      <point x="100" y="106"/>
      <point x="104" y="123" type="qcurve" smooth="yes"/>
      <point x="169" y="462" type="line"/>
      <point x="186" y="545"/>
      <point x="242" y="545" type="qcurve" smooth="yes"/>
      <point x="283" y="545"/>
      <point x="283" y="501" type="qcurve" smooth="yes"/>
      <point x="283" y="483"/>
      <point x="279" y="468" type="qcurve"/>
    </contour>
  </outline>
</glyph>
<glyph name="q" format="1">
  <advance width="275"/>
  <unicode hex="0071"/>
  <outline>
    <contour>
      <point x="209" y="-231" type="line"/>
      <point x="370" y="596" type="line"/>
      <point x="304" y="596" type="line"/>
      <point x="303" y="591" type="line"/>
      <point x="281" y="600"/>
      <point x="248" y="600" type="qcurve" smooth="yes"/>
      <point x="131" y="600"/>
      <point x="106" y="467" type="qcurve" smooth="yes"/>
      <point x="41" y="132" type="line" smooth="yes"/>
      <point x="41" y="130"/>
      <point x="38" y="114"/>
      <point x="38" y="110" type="qcurve" smooth="yes"/>
      <point x="36" y="102"/>
      <point x="36" y="87" type="qcurve" smooth="yes"/>
      <point x="36" y="-9"/>
      <point x="135" y="-9" type="qcurve" smooth="yes"/>
      <point x="161" y="-9"/>
      <point x="188" y="-1" type="qcurve"/>
      <point x="144" y="-231" type="line"/>
    </contour>
    <contour>
      <point x="214" y="129" type="line" smooth="yes"/>
      <point x="198" y="47"/>
      <point x="140" y="47" type="qcurve" smooth="yes"/>
      <point x="100" y="47"/>
      <point x="100" y="90" type="qcurve" smooth="yes"/>
      <point x="100" y="106"/>
      <point x="104" y="123" type="qcurve" smooth="yes"/>
      <point x="169" y="462" type="line"/>
      <point x="186" y="545"/>
      <point x="243" y="545" type="qcurve" smooth="yes"/>
      <point x="283" y="545"/>
      <point x="283" y="502" type="qcurve" smooth="yes"/>
      <point x="283" y="485"/>
      <point x="279" y="468" type="qcurve" smooth="yes"/>
    </contour>
  </outline>
</glyph>
<glyph name="r" format="1">
  <advance width="259"/>
  <unicode hex="0072"/>
  <outline>
    <contour>
      <point x="335" y="385" type="line"/>
      <point x="349" y="458" type="line" smooth="yes"/>
      <point x="355" y="488"/>
      <point x="355" y="513" type="qcurve" smooth="yes"/>
      <point x="355" y="555"/>
      <point x="335" y="578" type="qcurve" smooth="yes"/>
      <point x="316" y="600"/>
      <point x="266" y="600" type="qcurve" smooth="yes"/>
      <point x="257" y="600"/>
      <point x="235" y="598" type="qcurve" smooth="yes"/>
      <point x="221" y="596"/>
      <point x="203" y="590" type="qcurve"/>
      <point x="206" y="604" type="line"/>
      <point x="138" y="604" type="line"/>
      <point x="19" y="-3" type="line"/>
      <point x="86" y="-3" type="line"/>
      <point x="125" y="197" type="line"/>
      <point x="151" y="329" type="line"/>
      <point x="167" y="415" type="line"/>
      <point x="177" y="464" type="line"/>
      <point x="180" y="485"/>
      <point x="181" y="488" type="qcurve" smooth="yes"/>
      <point x="181" y="489"/>
      <point x="182" y="493"/>
      <point x="183" y="494" type="qcurve"/>
      <point x="183" y="493" type="line"/>
      <point x="204" y="542"/>
      <point x="247" y="542" type="qcurve" smooth="yes"/>
      <point x="271" y="542"/>
      <point x="280" y="532" type="qcurve" smooth="yes"/>
      <point x="289" y="523"/>
      <point x="289" y="506" type="qcurve" smooth="yes"/>
      <point x="289" y="495"/>
      <point x="284" y="467" type="qcurve" smooth="yes"/>
      <point x="269" y="385" type="line"/>
    </contour>
  </outline>
</glyph>
<glyph name="s" format="1">
  <advance width="267"/>
  <unicode hex="0073"/>
  <outline>
    <contour>
      <point x="303" y="259" type="line"/>
      <point x="299" y="259" type="line"/>
      <point x="298" y="349"/>
      <point x="199" y="349" type="qcurve" smooth="yes"/>
      <point x="159" y="349"/>
      <point x="159" y="394" type="qcurve" smooth="yes"/>
      <point x="159" y="396"/>
      <point x="160" y="408"/>
      <point x="160" y="412" type="qcurve" smooth="yes"/>
      <point x="162" y="420"/>
      <point x="164" y="434" type="qcurve" smooth="yes"/>
      <point x="170" y="463" type="line" smooth="yes"/>
      <point x="186" y="545"/>
      <point x="243" y="545" type="qcurve" smooth="yes"/>
      <point x="284" y="545"/>
      <point x="284" y="501" type="qcurve" smooth="yes"/>
      <point x="284" y="492"/>
      <point x="283" y="486" type="qcurve" smooth="yes"/>
      <point x="282" y="481"/>
      <point x="280" y="469" type="qcurve" smooth="yes"/>
      <point x="268" y="404" type="line"/>
      <point x="331" y="404" type="line"/>
      <point x="341" y="461" type="line" smooth="yes"/>
      <point x="346" y="489"/>
      <point x="346" y="506" type="qcurve" smooth="yes"/>
      <point x="346" y="601"/>
      <point x="248" y="601" type="qcurve" smooth="yes"/>
      <point x="126" y="601"/>
      <point x="104" y="466" type="qcurve"/>
      <point x="104" y="467" type="line"/>
      <point x="98" y="433" type="line" smooth="yes"/>
      <point x="98" y="430"/>
      <point x="96" y="414"/>
      <point x="95" y="411" type="qcurve" smooth="yes"/>
      <point x="94" y="404"/>
      <point x="94" y="389" type="qcurve" smooth="yes"/>
      <point x="94" y="294"/>
      <point x="194" y="294" type="qcurve" smooth="yes"/>
      <point x="237" y="294"/>
      <point x="237" y="257" type="qcurve" smooth="yes"/>
      <point x="237" y="251"/>
      <point x="236" y="248" type="qcurve"/>
      <point x="236" y="240"/>
      <point x="235" y="236" type="qcurve"/>
      <point x="235" y="237" type="line"/>
      <point x="214" y="130" type="line" smooth="yes"/>
      <point x="198" y="49"/>
      <point x="141" y="49" type="qcurve" smooth="yes"/>
      <point x="100" y="49"/>
      <point x="100" y="93" type="qcurve" smooth="yes"/>
      <point x="100" y="101"/>
      <point x="101" y="106" type="qcurve" smooth="yes"/>
      <point x="102" y="114"/>
      <point x="104" y="124" type="qcurve" smooth="yes"/>
      <point x="118" y="201" type="line"/>
      <point x="52" y="201" type="line"/>
      <point x="39" y="132" type="line" smooth="yes"/>
      <point x="38" y="128"/>
      <point x="36" y="113"/>
      <point x="36" y="110" type="qcurve" smooth="yes"/>
      <point x="35" y="103"/>
      <point x="35" y="88" type="qcurve" smooth="yes"/>
      <point x="35" y="-8"/>
      <point x="135" y="-8" type="qcurve" smooth="yes"/>
      <point x="250" y="-8"/>
      <point x="276" y="126" type="qcurve"/>
    </contour>
  </outline>
</glyph>
<glyph name="t" format="1">
  <advance width="190"/>
  <unicode hex="0074"/>
  <outline>
    <contour>
      <point x="305" y="545" type="line"/>
      <point x="317" y="605" type="line"/>
      <point x="205" y="605" type="line"/>
      <point x="229" y="730" type="line"/>
      <point x="164" y="730" type="line"/>
      <point x="23" y="0" type="line"/>
      <point x="88" y="0" type="line"/>
      <point x="193" y="545" type="line"/>
    </contour>
  </outline>
</glyph>
<glyph name="u" format="1">
  <advance width="285"/>
  <unicode hex="0075"/>
  <outline>
    <contour>
      <point x="283" y="126" type="qcurve" smooth="yes"/>
      <point x="377" y="604" type="line"/>
      <point x="311" y="604" type="line"/>
      <point x="219" y="130" type="line" smooth="yes"/>
      <point x="202" y="47"/>
      <point x="145" y="47" type="qcurve" smooth="yes"/>
      <point x="105" y="47"/>
      <point x="105" y="91" type="qcurve" smooth="yes"/>
      <point x="105" y="109"/>
      <point x="109" y="124" type="qcurve"/>
      <point x="203" y="604" type="line"/>
      <point x="138" y="604" type="line"/>
      <point x="46" y="132" type="line" smooth="yes"/>
      <point x="41" y="104"/>
      <point x="41" y="87" type="qcurve" smooth="yes"/>
      <point x="41" y="-8"/>
      <point x="140" y="-8" type="qcurve" smooth="yes"/>
      <point x="257" y="-8"/>
    </contour>
  </outline>
</glyph>
<glyph name="v" format="1">
  <advance width="219"/>
  <unicode hex="0076"/>
  <outline>
    <contour>
      <point x="346" y="602" type="line"/>
      <point x="280" y="602" type="line"/>
      <point x="154" y="241" type="line"/>
      <point x="170" y="602" type="line"/>
      <point x="106" y="602" type="line"/>
      <point x="82" y="0" type="line"/>
      <point x="136" y="0" type="line"/>
    </contour>
  </outline>
</glyph>
<glyph name="x" format="1">
  <advance width="245"/>
  <unicode hex="0078"/>
  <outline>
    <contour>
      <point x="254" y="2" type="line"/>
      <point x="222" y="316" type="line"/>
      <point x="363" y="600" type="line"/>
      <point x="295" y="600" type="line"/>
      <point x="202" y="416" type="line"/>
      <point x="183" y="600" type="line"/>
      <point x="119" y="600" type="line"/>
      <point x="146" y="313" type="line"/>
      <point x="-10" y="2" type="line"/>
      <point x="59" y="2" type="line"/>
      <point x="165" y="218" type="line"/>
      <point x="190" y="2" type="line"/>
    </contour>
  </outline>
</glyph>
<glyph name="z" format="1">
  <advance width="245"/>
  <unicode hex="007A"/>
  <outline>
    <contour>
      <point x="376" y="605" type="line"/>
      <point x="118" y="605" type="line"/>
      <point x="105" y="547" type="line"/>
      <point x="279" y="547" type="line"/>
      <point x="-18" y="0" type="line"/>
      <point x="240" y="0" type="line"/>
      <point x="250" y="56" type="line"/>
      <point x="77" y="56" type="line"/>
    </contour>
  </outline>
</glyph>
<glyph name="braceleft" format="1">
  <advance width="270"/>
  <unicode hex="007B"/>
  <outline>
    <contour>
      <point x="205" y="-219" type="line"/>
      <point x="213" y="-177" type="line"/>
      <point x="168" y="-176"/>
      <point x="157" y="-159" type="qcurve"/>
      <point x="154" y="-147"/>
      <point x="154" y="-138" type="qcurve" smooth="yes"/>
      <point x="154" y="-127"/>
      <point x="156" y="-121" type="qcurve" smooth="yes"/>
      <point x="156" y="-118"/>
      <point x="157" y="-112"/>
      <point x="159" y="-103"/>
      <point x="159" y="-101" type="qcurve" smooth="yes"/>
      <point x="159" y="-102" type="line"/>
      <point x="269" y="351" type="line"/>
      <point x="218" y="369" type="line"/>
      <point x="276" y="388" type="line"/>
      <point x="326" y="759" type="line"/>
      <point x="326" y="758" type="line"/>
      <point x="334" y="800"/>
      <point x="347" y="818" type="qcurve" smooth="yes"/>
      <point x="361" y="836"/>
      <point x="411" y="841" type="qcurve"/>
      <point x="422" y="897" type="line"/>
      <point x="382" y="896"/>
      <point x="352" y="886" type="qcurve" smooth="yes"/>
      <point x="322" y="875"/>
      <point x="305" y="858" type="qcurve" smooth="yes"/>
      <point x="271" y="824"/>
      <point x="262" y="762" type="qcurve"/>
      <point x="220" y="433" type="line"/>
      <point x="93" y="395" type="line"/>
      <point x="82" y="346" type="line"/>
      <point x="195" y="309" type="line"/>
      <point x="96" y="-92" type="line" smooth="yes"/>
      <point x="90" y="-118"/>
      <point x="90" y="-140" type="qcurve" smooth="yes"/>
      <point x="90" y="-185"/>
      <point x="114" y="-206" type="qcurve"/>
      <point x="136" y="-229"/>
      <point x="189" y="-231" type="qcurve"/>
    </contour>
  </outline>
</glyph>
<glyph name="braceright" format="1">
  <advance width="270"/>
  <unicode hex="007D"/>
  <outline>
    <contour>
      <point x="314" y="345" type="line"/>
      <point x="325" y="394" type="line"/>
      <point x="211" y="431" type="line"/>
      <point x="296" y="756" type="line" smooth="yes"/>
      <point x="302" y="780"/>
      <point x="302" y="803" type="qcurve" smooth="yes"/>
      <point x="302" y="832"/>
      <point x="290" y="855" type="qcurve"/>
      <point x="290" y="854" type="line"/>
      <point x="270" y="893"/>
      <point x="189" y="897" type="qcurve"/>
      <point x="179" y="842" type="line"/>
      <point x="214" y="837"/>
      <point x="224" y="828" type="qcurve"/>
      <point x="238" y="820"/>
      <point x="238" y="802" type="qcurve" smooth="yes"/>
      <point x="238" y="789"/>
      <point x="232" y="765" type="qcurve" smooth="yes"/>
      <point x="138" y="390" type="line"/>
      <point x="188" y="371" type="line"/>
      <point x="131" y="353" type="line"/>
      <point x="65" y="-96" type="line"/>
      <point x="61" y="-131"/>
      <point x="42" y="-154" type="qcurve" smooth="yes"/>
      <point x="24" y="-176"/>
      <point x="-19" y="-177" type="qcurve"/>
      <point x="-30" y="-232" type="line"/>
      <point x="49" y="-229"/>
      <point x="84" y="-194" type="qcurve"/>
      <point x="121" y="-162"/>
      <point x="130" y="-97" type="qcurve" smooth="yes"/>
      <point x="186" y="308" type="line"/>
    </contour>
  </outline>
</glyph>
<glyph name="asciitilde" format="1">
  <advance width="491"/>
  <unicode hex="007E"/>
  <outline>
    <contour>
      <point x="569" y="472" type="line"/>
      <point x="453" y="393"/>
      <point x="410" y="393" type="qcurve" smooth="yes"/>
      <point x="408" y="393"/>
      <point x="406" y="394" type="qcurve"/>
      <point x="403" y="394" type="line"/>
      <point x="377" y="396"/>
      <point x="335" y="432" type="qcurve" smooth="yes"/>
      <point x="282" y="479"/>
      <point x="237" y="479" type="qcurve"/>
      <point x="182" y="476"/>
      <point x="99" y="420" type="qcurve"/>
      <point x="72" y="336" type="line"/>
      <point x="194" y="416"/>
      <point x="233" y="416" type="qcurve" smooth="yes"/>
      <point x="239" y="416" type="line"/>
      <point x="258" y="412"/>
      <point x="296" y="383" type="qcurve" smooth="yes"/>
      <point x="322" y="362"/>
      <point x="354" y="345" type="qcurve" smooth="yes"/>
      <point x="380" y="332"/>
      <point x="404" y="332" type="qcurve" smooth="yes"/>
      <point x="458" y="332"/>
      <point x="543" y="390" type="qcurve"/>
    </contour>
  </outline>
</glyph>
<glyph name="exclamdown" format="1">
  <advance width="142"/>
  <unicode hex="00A1"/>
  <outline>
    <contour>
      <point x="65" y="-188" type="line"/>
      <point x="203" y="526" type="line"/>
      <point x="138" y="526" type="line"/>
      <point x="0" y="-188" type="line"/>
    </contour>
    <contour>
      <point x="213" y="580" type="line"/>
      <point x="225" y="647" type="line"/>
      <point x="163" y="647" type="line"/>
      <point x="151" y="580" type="line"/>
    </contour>
  </outline>
</glyph>
<glyph name="cent" format="1">
  <advance width="275"/>
  <unicode hex="00A2"/>
  <outline>
    <contour>
      <point x="305" y="238" type="qcurve" smooth="yes"/>
      <point x="320" y="318" type="line"/>
      <point x="255" y="318" type="line"/>
      <point x="241" y="242" type="line" smooth="yes"/>
      <point x="231" y="191"/>
      <point x="206" y="172" type="qcurve"/>
      <point x="299" y="649" type="line"/>
      <point x="310" y="638"/>
      <point x="310" y="615" type="qcurve" smooth="yes"/>
      <point x="310" y="598"/>
      <point x="306" y="581" type="qcurve" smooth="yes"/>
      <point x="292" y="504" type="line"/>
      <point x="357" y="504" type="line"/>
      <point x="370" y="573" type="line" smooth="yes"/>
      <point x="375" y="601"/>
      <point x="375" y="618" type="qcurve" smooth="yes"/>
      <point x="375" y="694"/>
      <point x="311" y="709" type="qcurve"/>
      <point x="327" y="796" type="line"/>
      <point x="262" y="796" type="line"/>
      <point x="246" y="710" type="line"/>
      <point x="156" y="694"/>
      <point x="133" y="579" type="qcurve" smooth="yes"/>
      <point x="68" y="244" type="line" smooth="yes"/>
      <point x="64" y="227"/>
      <point x="64" y="201" type="qcurve" smooth="yes"/>
      <point x="64" y="123"/>
      <point x="129" y="108" type="qcurve"/>
      <point x="115" y="41" type="line"/>
      <point x="181" y="41" type="line"/>
      <point x="194" y="107" type="line"/>
      <point x="237" y="114"/>
      <point x="266" y="148" type="qcurve" smooth="yes"/>
      <point x="294" y="180"/>
    </contour>
    <contour>
      <point x="127" y="203" type="qcurve" smooth="yes"/>
      <point x="127" y="221"/>
      <point x="131" y="236" type="qcurve"/>
      <point x="196" y="575" type="line" smooth="yes"/>
      <point x="205" y="627"/>
      <point x="233" y="646" type="qcurve"/>
      <point x="139" y="167" type="line"/>
      <point x="127" y="178"/>
    </contour>
  </outline>
</glyph>
<glyph name="sterling" format="1">
  <advance width="246"/>
  <unicode hex="00A3"/>
  <outline>
    <contour>
      <point x="285" y="322" type="line"/>
      <point x="296" y="387" type="line"/>
      <point x="162" y="387" type="line"/>
      <point x="177" y="462" type="line"/>
      <point x="312" y="462" type="line"/>
      <point x="323" y="526" type="line"/>
      <point x="189" y="526" type="line"/>
      <point x="250" y="834" type="line"/>
      <point x="184" y="834" type="line"/>
      <point x="124" y="526" type="line"/>
      <point x="81" y="526" type="line"/>
      <point x="70" y="462" type="line"/>
      <point x="112" y="462" type="line"/>
      <point x="97" y="387" type="line"/>
      <point x="54" y="387" type="line"/>
      <point x="43" y="322" type="line"/>
      <point x="85" y="322" type="line"/>
      <point x="22" y="0" type="line"/>
      <point x="259" y="0" type="line"/>
      <point x="269" y="56" type="line"/>
      <point x="98" y="56" type="line"/>
      <point x="150" y="322" type="line"/>
    </contour>
  </outline>
</glyph>
<glyph name="currency" format="1">
  <advance width="295"/>
  <unicode hex="00A4"/>
  <outline>
    <contour>
      <point x="308" y="126" type="qcurve" smooth="yes"/>
      <point x="323" y="206" type="line"/>
      <point x="258" y="206" type="line"/>
      <point x="244" y="130" type="line"/>
      <point x="227" y="47"/>
      <point x="170" y="47" type="qcurve" smooth="yes"/>
      <point x="130" y="47"/>
      <point x="130" y="91" type="qcurve" smooth="yes"/>
      <point x="130" y="109"/>
      <point x="134" y="124" type="qcurve"/>
      <point x="175" y="341" type="line"/>
      <point x="289" y="341" type="line"/>
      <point x="302" y="406" type="line"/>
      <point x="188" y="406" type="line"/>
      <point x="202" y="480" type="line"/>
      <point x="343" y="480" type="line"/>
      <point x="356" y="545" type="line"/>
      <point x="215" y="545" type="line"/>
      <point x="247" y="704" type="line" smooth="yes"/>
      <point x="264" y="785"/>
      <point x="320" y="785" type="qcurve" smooth="yes"/>
      <point x="361" y="785"/>
      <point x="361" y="741" type="qcurve" smooth="yes"/>
      <point x="361" y="732"/>
      <point x="359" y="722"/>
      <point x="357" y="710" type="qcurve" smooth="yes"/>
      <point x="341" y="632" type="line"/>
      <point x="407" y="632" type="line"/>
      <point x="420" y="702" type="line" smooth="yes"/>
      <point x="420" y="705"/>
      <point x="422" y="721"/>
      <point x="423" y="724" type="qcurve" smooth="yes"/>
      <point x="424" y="731"/>
      <point x="424" y="746" type="qcurve" smooth="yes"/>
      <point x="424" y="841"/>
      <point x="325" y="841" type="qcurve" smooth="yes"/>
      <point x="207" y="841"/>
      <point x="182" y="708" type="qcurve"/>
      <point x="150" y="545" type="line"/>
      <point x="118" y="545" type="line"/>
      <point x="105" y="480" type="line"/>
      <point x="137" y="480" type="line"/>
      <point x="123" y="406" type="line"/>
      <point x="63" y="406" type="line"/>
      <point x="50" y="341" type="line"/>
      <point x="110" y="341" type="line"/>
      <point x="70" y="132" type="line" smooth="yes"/>
      <point x="70" y="128"/>
      <point x="68" y="113"/>
      <point x="67" y="110" type="qcurve" smooth="yes"/>
      <point x="66" y="103"/>
      <point x="66" y="88" type="qcurve" smooth="yes"/>
      <point x="66" y="-8"/>
      <point x="165" y="-8" type="qcurve" smooth="yes"/>
      <point x="282" y="-8"/>
    </contour>
  </outline>
</glyph>
<glyph name="yen" format="1">
  <advance width="263"/>
  <unicode hex="00A5"/>
  <outline>
    <contour>
      <point x="443" y="834" type="line"/>
      <point x="375" y="834" type="line"/>
      <point x="232" y="533" type="line"/>
      <point x="210" y="834" type="line"/>
      <point x="143" y="834" type="line"/>
      <point x="180" y="430" type="line"/>
      <point x="173" y="396" type="line"/>
      <point x="85" y="396" type="line"/>
      <point x="72" y="331" type="line"/>
      <point x="160" y="331" type="line"/>
      <point x="151" y="284" type="line"/>
      <point x="63" y="284" type="line"/>
      <point x="52" y="219" type="line"/>
      <point x="139" y="219" type="line"/>
      <point x="96" y="0" type="line"/>
      <point x="162" y="0" type="line"/>
      <point x="204" y="219" type="line"/>
      <point x="295" y="219" type="line"/>
      <point x="306" y="284" type="line"/>
      <point x="216" y="284" type="line"/>
      <point x="225" y="331" type="line"/>
      <point x="316" y="331" type="line"/>
      <point x="329" y="396" type="line"/>
      <point x="238" y="396" type="line"/>
      <point x="244" y="424" type="line"/>
    </contour>
  </outline>
</glyph>
<glyph name="brokenbar" format="1">
  <advance width="244"/>
  <unicode hex="00A6"/>
  <outline>
    <contour>
      <point x="226" y="369" type="line"/>
      <point x="311" y="812" type="line"/>
      <point x="240" y="812" type="line"/>
      <point x="155" y="369" type="line"/>
    </contour>
    <contour>
      <point x="117" y="-191" type="line"/>
      <point x="202" y="252" type="line"/>
      <point x="131" y="252" type="line"/>
      <point x="46" y="-191" type="line"/>
    </contour>
  </outline>
</glyph>
<glyph name="section" format="1">
  <advance width="285"/>
  <unicode hex="00A7"/>
  <outline>
    <contour>
      <point x="266" y="33" type="line"/>
      <point x="268" y="44" type="line" smooth="yes"/>
      <point x="268" y="46"/>
      <point x="269" y="47" type="qcurve"/>
      <point x="269" y="55" type="line"/>
      <point x="274" y="84" type="line"/>
      <point x="271" y="84" type="line"/>
      <point x="271" y="124"/>
      <point x="249" y="146" type="qcurve"/>
      <point x="291" y="175"/>
      <point x="306" y="241" type="qcurve"/>
      <point x="314" y="287" type="line" smooth="yes"/>
      <point x="319" y="315"/>
      <point x="319" y="332" type="qcurve" smooth="yes"/>
      <point x="319" y="342"/>
      <point x="318" y="346" type="qcurve"/>
      <point x="318" y="354"/>
      <point x="317" y="357" type="qcurve" smooth="yes"/>
      <point x="303" y="431"/>
      <point x="220" y="431" type="qcurve" smooth="yes"/>
      <point x="177" y="431"/>
      <point x="177" y="468" type="qcurve" smooth="yes"/>
      <point x="177" y="474"/>
      <point x="178" y="476" type="qcurve"/>
      <point x="178" y="483"/>
      <point x="179" y="487" type="qcurve" smooth="yes"/>
      <point x="200" y="594" type="line" smooth="yes"/>
      <point x="216" y="675"/>
      <point x="272" y="675" type="qcurve" smooth="yes"/>
      <point x="314" y="675"/>
      <point x="314" y="631" type="qcurve" smooth="yes"/>
      <point x="314" y="622"/>
      <point x="313" y="616" type="qcurve" smooth="yes"/>
      <point x="312" y="611"/>
      <point x="310" y="599" type="qcurve"/>
      <point x="310" y="600" type="line"/>
      <point x="294" y="522" type="line"/>
      <point x="360" y="522" type="line"/>
      <point x="374" y="592" type="line" smooth="yes"/>
      <point x="378" y="609"/>
      <point x="378" y="634" type="qcurve" smooth="yes"/>
      <point x="378" y="731"/>
      <point x="277" y="731" type="qcurve" smooth="yes"/>
      <point x="162" y="731"/>
      <point x="137" y="598" type="qcurve"/>
      <point x="110" y="465" type="line"/>
      <point x="115" y="465" type="line"/>
      <point x="116" y="428"/>
      <point x="137" y="404" type="qcurve"/>
      <point x="95" y="376"/>
      <point x="80" y="308" type="qcurve"/>
      <point x="72" y="263" type="line" smooth="yes"/>
      <point x="70" y="247"/>
      <point x="68" y="239" type="qcurve" smooth="yes"/>
      <point x="68" y="235"/>
      <point x="67" y="219"/>
      <point x="67" y="216" type="qcurve" smooth="yes"/>
      <point x="67" y="206"/>
      <point x="68" y="202" type="qcurve"/>
      <point x="68" y="194"/>
      <point x="69" y="191" type="qcurve" smooth="yes"/>
      <point x="82" y="119"/>
      <point x="167" y="119" type="qcurve" smooth="yes"/>
      <point x="210" y="119"/>
      <point x="210" y="82" type="qcurve" smooth="yes"/>
      <point x="210" y="72" type="line"/>
      <point x="209" y="70"/>
      <point x="208" y="63"/>
      <point x="208" y="61" type="qcurve" smooth="yes"/>
      <point x="208" y="62" type="line"/>
      <point x="187" y="-45" type="line"/>
      <point x="170" y="-126"/>
      <point x="114" y="-126" type="qcurve" smooth="yes"/>
      <point x="73" y="-126"/>
      <point x="73" y="-82" type="qcurve" smooth="yes"/>
      <point x="73" y="-74"/>
      <point x="74" y="-68" type="qcurve" smooth="yes"/>
      <point x="75" y="-63"/>
      <point x="77" y="-51" type="qcurve" smooth="yes"/>
      <point x="91" y="26" type="line"/>
      <point x="25" y="26" type="line"/>
      <point x="12" y="-43" type="line" smooth="yes"/>
      <point x="12" y="-46"/>
      <point x="10" y="-62"/>
      <point x="9" y="-65" type="qcurve" smooth="yes"/>
      <point x="8" y="-72"/>
      <point x="8" y="-87" type="qcurve" smooth="yes"/>
      <point x="8" y="-183"/>
      <point x="108" y="-183" type="qcurve" smooth="yes"/>
      <point x="223" y="-183"/>
      <point x="249" y="-49" type="qcurve" smooth="yes"/>
      <point x="259" y="3" type="line"/>
    </contour>
    <contour>
      <point x="244" y="260" type="line"/>
      <point x="228" y="179"/>
      <point x="170" y="179" type="qcurve" smooth="yes"/>
      <point x="140" y="179"/>
      <point x="132" y="197" type="qcurve" smooth="yes"/>
      <point x="132" y="198"/>
      <point x="130" y="202"/>
      <point x="130" y="203" type="qcurve" smooth="yes"/>
      <point x="130" y="211" type="line" smooth="yes"/>
      <point x="130" y="221"/>
      <point x="132" y="228" type="qcurve"/>
      <point x="132" y="232"/>
      <point x="135" y="249"/>
      <point x="135" y="252" type="qcurve" smooth="yes"/>
      <point x="135" y="251" type="line"/>
      <point x="143" y="288" type="line"/>
      <point x="159" y="370"/>
      <point x="216" y="370" type="qcurve" smooth="yes"/>
      <point x="246" y="370"/>
      <point x="254" y="353" type="qcurve"/>
      <point x="254" y="354" type="line"/>
      <point x="255" y="353"/>
      <point x="255" y="347" type="qcurve" smooth="yes"/>
      <point x="255" y="337" type="line" smooth="yes"/>
      <point x="255" y="326"/>
      <point x="254" y="320" type="qcurve" smooth="yes"/>
      <point x="252" y="311"/>
      <point x="251" y="299" type="qcurve"/>
      <point x="245" y="271" type="line"/>
      <point x="246" y="271" type="line"/>
    </contour>
  </outline>
</glyph>
<glyph name="dieresis" format="1">
  <advance width="174"/>
  <unicode hex="00A8"/>
  <outline>
    <contour>
      <point x="201" y="687" type="line"/>
      <point x="213" y="754" type="line"/>
      <point x="149" y="754" type="line"/>
      <point x="137" y="687" type="line"/>
    </contour>
    <contour>
      <point x="299" y="687" type="line"/>
      <point x="311" y="754" type="line"/>
      <point x="248" y="754" type="line"/>
      <point x="236" y="687" type="line"/>
    </contour>
  </outline>
</glyph>
<glyph name="copyright" format="1">
  <advance width="932"/>
  <unicode hex="00A9"/>
  <outline>
    <contour>
      <point x="873" y="404" type="qcurve"/>
      <point x="886" y="466"/>
      <point x="886" y="528" type="qcurve" smooth="yes"/>
      <point x="886" y="787"/>
      <point x="613" y="787" type="qcurve" smooth="yes"/>
      <point x="446" y="787"/>
      <point x="342" y="683" type="qcurve" smooth="yes"/>
      <point x="293" y="634"/>
      <point x="262" y="567" type="qcurve"/>
      <point x="229" y="500"/>
      <point x="211" y="410" type="qcurve" smooth="yes"/>
      <point x="199" y="347"/>
      <point x="199" y="293" type="qcurve" smooth="yes"/>
      <point x="199" y="198"/>
      <point x="238" y="136" type="qcurve"/>
      <point x="304" y="27"/>
      <point x="471" y="27" type="qcurve" smooth="yes"/>
      <point x="636" y="27"/>
      <point x="742" y="131" type="qcurve"/>
      <point x="839" y="228"/>
    </contour>
    <contour>
      <point x="808" y="410" type="qcurve" smooth="yes"/>
      <point x="747" y="91"/>
      <point x="478" y="91" type="qcurve" smooth="yes"/>
      <point x="346" y="91"/>
      <point x="295" y="178" type="qcurve"/>
      <point x="265" y="227"/>
      <point x="265" y="303" type="qcurve" smooth="yes"/>
      <point x="265" y="324"/>
      <point x="268" y="350" type="qcurve" smooth="yes"/>
      <point x="270" y="363"/>
      <point x="276" y="404" type="qcurve"/>
      <point x="338" y="722"/>
      <point x="606" y="722" type="qcurve" smooth="yes"/>
      <point x="820" y="722"/>
      <point x="820" y="518" type="qcurve" smooth="yes"/>
      <point x="820" y="472"/>
    </contour>
    <contour>
      <point x="634" y="264" type="qcurve" smooth="yes"/>
      <point x="649" y="344" type="line"/>
      <point x="584" y="344" type="line"/>
      <point x="570" y="268" type="line" smooth="yes"/>
      <point x="554" y="186"/>
      <point x="495" y="186" type="qcurve" smooth="yes"/>
      <point x="456" y="186"/>
      <point x="456" y="228" type="qcurve" smooth="yes"/>
      <point x="456" y="245"/>
      <point x="460" y="262" type="qcurve" smooth="yes"/>
      <point x="518" y="563" type="line" smooth="yes"/>
      <point x="534" y="645"/>
      <point x="590" y="645" type="qcurve" smooth="yes"/>
      <point x="632" y="645"/>
      <point x="632" y="600" type="qcurve" smooth="yes"/>
      <point x="632" y="591"/>
      <point x="631" y="586" type="qcurve" smooth="yes"/>
      <point x="630" y="578"/>
      <point x="628" y="568" type="qcurve"/>
      <point x="628" y="569" type="line"/>
      <point x="614" y="492" type="line"/>
      <point x="679" y="492" type="line"/>
      <point x="692" y="561" type="line" smooth="yes"/>
      <point x="696" y="578"/>
      <point x="696" y="603" type="qcurve" smooth="yes"/>
      <point x="696" y="701"/>
      <point x="595" y="701" type="qcurve" smooth="yes"/>
      <point x="480" y="701"/>
      <point x="454" y="567" type="qcurve" smooth="yes"/>
      <point x="396" y="270" type="line" smooth="yes"/>
      <point x="391" y="242"/>
      <point x="391" y="225" type="qcurve" smooth="yes"/>
      <point x="391" y="131"/>
      <point x="490" y="131" type="qcurve" smooth="yes"/>
      <point x="609" y="131"/>
    </contour>
  </outline>
</glyph>
<glyph name="ordfeminine" format="1">
  <advance width="285"/>
  <unicode hex="00AA"/>
  <outline>
    <contour>
      <point x="350" y="471" type="line" smooth="yes"/>
      <point x="393" y="691" type="line" smooth="yes"/>
      <point x="394" y="695"/>
      <point x="396" y="709"/>
      <point x="396" y="713" type="qcurve" smooth="yes"/>
      <point x="397" y="720"/>
      <point x="397" y="735" type="qcurve" smooth="yes"/>
      <point x="397" y="831"/>
      <point x="297" y="831" type="qcurve" smooth="yes"/>
      <point x="182" y="831"/>
      <point x="156" y="697" type="qcurve"/>
      <point x="156" y="698" type="line"/>
      <point x="149" y="671" type="line"/>
      <point x="215" y="671" type="line"/>
      <point x="219" y="693" type="line"/>
      <point x="236" y="774"/>
      <point x="291" y="774" type="qcurve" smooth="yes"/>
      <point x="333" y="774"/>
      <point x="333" y="730" type="qcurve" smooth="yes"/>
      <point x="333" y="721"/>
      <point x="332" y="716" type="qcurve" smooth="yes"/>
      <point x="329" y="698" type="line"/>
      <point x="329" y="699" type="line"/>
      <point x="318" y="641" type="line"/>
      <point x="296" y="650"/>
      <point x="262" y="650" type="qcurve" smooth="yes"/>
      <point x="146" y="650"/>
      <point x="121" y="517" type="qcurve"/>
      <point x="113" y="477" type="line" smooth="yes"/>
      <point x="113" y="476"/>
      <point x="110" y="459"/>
      <point x="110" y="454" type="qcurve"/>
      <point x="108" y="448"/>
      <point x="108" y="432" type="qcurve" smooth="yes"/>
      <point x="108" y="336"/>
      <point x="206" y="336" type="qcurve" smooth="yes"/>
      <point x="238" y="336"/>
      <point x="258" y="343" type="qcurve"/>
      <point x="258" y="340" type="line"/>
      <point x="323" y="340" type="line"/>
      <point x="342" y="438" type="line"/>
      <point x="341" y="436" type="line"/>
      <point x="342" y="443"/>
      <point x="346" y="452" type="qcurve"/>
      <point x="346" y="455"/>
    </contour>
    <contour>
      <point x="278" y="447" type="line"/>
      <point x="279" y="448" type="line"/>
      <point x="262" y="392"/>
      <point x="211" y="392" type="qcurve" smooth="yes"/>
      <point x="182" y="392"/>
      <point x="174" y="410" type="qcurve"/>
      <point x="174" y="409" type="line"/>
      <point x="171" y="416"/>
      <point x="171" y="431" type="qcurve" smooth="yes"/>
      <point x="171" y="433"/>
      <point x="172" y="443"/>
      <point x="172" y="446" type="qcurve" smooth="yes"/>
      <point x="174" y="454"/>
      <point x="176" y="468" type="qcurve" smooth="yes"/>
      <point x="184" y="513" type="line"/>
      <point x="200" y="594"/>
      <point x="256" y="594" type="qcurve" smooth="yes"/>
      <point x="298" y="594"/>
      <point x="298" y="555" type="qcurve" smooth="yes"/>
      <point x="298" y="548"/>
      <point x="297" y="545" type="qcurve" smooth="yes"/>
    </contour>
  </outline>
</glyph>
<glyph name="guillemotleft" format="1">
  <advance width="482"/>
  <unicode hex="00AB"/>
  <outline>
    <contour>
      <point x="321" y="127" type="line"/>
      <point x="337" y="199" type="line"/>
      <point x="188" y="347" type="line"/>
      <point x="394" y="494" type="line"/>
      <point x="408" y="573" type="line"/>
      <point x="109" y="368" type="line"/>
      <point x="103" y="332" type="line"/>
    </contour>
    <contour>
      <point x="468" y="127" type="line"/>
      <point x="484" y="199" type="line"/>
      <point x="335" y="347" type="line"/>
      <point x="541" y="494" type="line"/>
      <point x="555" y="574" type="line"/>
      <point x="258" y="369" type="line"/>
      <point x="252" y="332" type="line"/>
    </contour>
  </outline>
</glyph>
<glyph name="logicalnot" format="1">
  <advance width="497"/>
  <unicode hex="00AC"/>
  <outline>
    <contour>
      <point x="525" y="264" type="line"/>
      <point x="556" y="420" type="line"/>
      <point x="99" y="420" type="line"/>
      <point x="86" y="356" type="line"/>
      <point x="479" y="356" type="line"/>
      <point x="461" y="264" type="line"/>
    </contour>
  </outline>
</glyph>
<glyph name="registered" format="1">
  <advance width="932"/>
  <unicode hex="00AE"/>
  <outline>
    <contour>
      <point x="873" y="404" type="qcurve"/>
      <point x="886" y="466"/>
      <point x="886" y="528" type="qcurve" smooth="yes"/>
      <point x="886" y="787"/>
      <point x="613" y="787" type="qcurve" smooth="yes"/>
      <point x="446" y="787"/>
      <point x="342" y="683" type="qcurve" smooth="yes"/>
      <point x="293" y="634"/>
      <point x="262" y="567" type="qcurve"/>
      <point x="229" y="500"/>
      <point x="211" y="410" type="qcurve" smooth="yes"/>
      <point x="199" y="347"/>
      <point x="199" y="293" type="qcurve" smooth="yes"/>
      <point x="199" y="198"/>
      <point x="238" y="136" type="qcurve"/>
      <point x="304" y="27"/>
      <point x="471" y="27" type="qcurve" smooth="yes"/>
      <point x="636" y="27"/>
      <point x="742" y="131" type="qcurve"/>
      <point x="839" y="228"/>
    </contour>
    <contour>
      <point x="808" y="410" type="qcurve" smooth="yes"/>
      <point x="747" y="91"/>
      <point x="478" y="91" type="qcurve" smooth="yes"/>
      <point x="346" y="91"/>
      <point x="295" y="178" type="qcurve"/>
      <point x="265" y="227"/>
      <point x="265" y="303" type="qcurve" smooth="yes"/>
      <point x="265" y="324"/>
      <point x="268" y="350" type="qcurve" smooth="yes"/>
      <point x="270" y="363"/>
      <point x="276" y="404" type="qcurve"/>
      <point x="338" y="722"/>
      <point x="606" y="722" type="qcurve" smooth="yes"/>
      <point x="820" y="722"/>
      <point x="820" y="518" type="qcurve" smooth="yes"/>
      <point x="820" y="472"/>
    </contour>
    <contour>
      <point x="640" y="245" type="line"/>
      <point x="653" y="313" type="line" smooth="yes"/>
      <point x="656" y="331"/>
      <point x="656" y="349" type="qcurve" smooth="yes"/>
      <point x="656" y="395"/>
      <point x="631" y="417" type="qcurve"/>
      <point x="655" y="430"/>
      <point x="670" y="455" type="qcurve" smooth="yes"/>
      <point x="685" y="482"/>
      <point x="692" y="514" type="qcurve"/>
      <point x="697" y="543" type="line" smooth="yes"/>
      <point x="701" y="565"/>
      <point x="702" y="575" type="qcurve" smooth="yes"/>
      <point x="704" y="595"/>
      <point x="704" y="603" type="qcurve" smooth="yes"/>
      <point x="704" y="630"/>
      <point x="694" y="647" type="qcurve"/>
      <point x="695" y="646" type="line"/>
      <point x="676" y="686"/>
      <point x="600" y="686" type="qcurve" smooth="yes"/>
      <point x="486" y="686" type="line"/>
      <point x="377" y="131" type="line"/>
      <point x="443" y="131" type="line"/>
      <point x="492" y="387" type="line"/>
      <point x="539" y="387" type="line" smooth="yes"/>
      <point x="577" y="387"/>
      <point x="588" y="370" type="qcurve" smooth="yes"/>
      <point x="593" y="362"/>
      <point x="593" y="351" type="qcurve" smooth="yes"/>
      <point x="593" y="342"/>
      <point x="588" y="317" type="qcurve" smooth="yes"/>
      <point x="551" y="131" type="line"/>
      <point x="615" y="131" type="line"/>
      <point x="637" y="245" type="line"/>
    </contour>
    <contour>
      <point x="628" y="523" type="line" smooth="yes"/>
      <point x="620" y="480"/>
      <point x="604" y="463" type="qcurve"/>
      <point x="605" y="463" type="line"/>
      <point x="598" y="456"/>
      <point x="582" y="451" type="qcurve" smooth="yes"/>
      <point x="570" y="447"/>
      <point x="545" y="447" type="qcurve" smooth="yes"/>
      <point x="504" y="447" type="line"/>
      <point x="539" y="629" type="line"/>
      <point x="586" y="629" type="line" smooth="yes"/>
      <point x="628" y="629"/>
      <point x="637" y="616" type="qcurve"/>
      <point x="637" y="617" type="line"/>
      <point x="640" y="613"/>
      <point x="640" y="597" type="qcurve" smooth="yes"/>
      <point x="640" y="588"/>
      <point x="638" y="582" type="qcurve"/>
      <point x="638" y="578"/>
      <point x="635" y="562"/>
      <point x="635" y="560" type="qcurve" smooth="yes"/>
    </contour>
  </outline>
</glyph>
<glyph name="macron" format="1">
  <advance width="266"/>
  <unicode hex="00AF"/>
  <outline>
    <contour>
      <point x="405" y="891" type="line"/>
      <point x="418" y="955" type="line"/>
      <point x="214" y="955" type="line"/>
      <point x="201" y="891" type="line"/>
    </contour>
  </outline>
</glyph>
<glyph name="degree" format="1">
  <advance width="369"/>
  <unicode hex="00B0"/>
  <outline>
    <contour>
      <point x="471" y="656" type="qcurve" smooth="yes"/>
      <point x="474" y="671"/>
      <point x="474" y="688" type="qcurve" smooth="yes"/>
      <point x="474" y="717"/>
      <point x="464" y="740" type="qcurve"/>
      <point x="454" y="766"/>
      <point x="436" y="783" type="qcurve"/>
      <point x="420" y="800"/>
      <point x="394" y="811" type="qcurve" smooth="yes"/>
      <point x="370" y="821"/>
      <point x="339" y="821" type="qcurve" smooth="yes"/>
      <point x="304" y="821"/>
      <point x="273" y="809" type="qcurve" smooth="yes"/>
      <point x="239" y="796"/>
      <point x="216" y="776" type="qcurve" smooth="yes"/>
      <point x="191" y="755"/>
      <point x="172" y="725" type="qcurve" smooth="yes"/>
      <point x="155" y="698"/>
      <point x="147" y="662" type="qcurve" smooth="yes"/>
      <point x="144" y="646"/>
      <point x="144" y="629" type="qcurve" smooth="yes"/>
      <point x="144" y="570"/>
      <point x="180" y="533" type="qcurve" smooth="yes"/>
      <point x="217" y="496"/>
      <point x="280" y="496" type="qcurve" smooth="yes"/>
      <point x="347" y="496"/>
      <point x="402" y="543" type="qcurve"/>
      <point x="402" y="542" type="line"/>
      <point x="458" y="587"/>
    </contour>
    <contour>
      <point x="414" y="662" type="line"/>
      <point x="409" y="637"/>
      <point x="398" y="619" type="qcurve" smooth="yes"/>
      <point x="385" y="598"/>
      <point x="368" y="584" type="qcurve" smooth="yes"/>
      <point x="350" y="569"/>
      <point x="330" y="562" type="qcurve" smooth="yes"/>
      <point x="308" y="554"/>
      <point x="287" y="554" type="qcurve" smooth="yes"/>
      <point x="250" y="554"/>
      <point x="226" y="576" type="qcurve"/>
      <point x="203" y="601"/>
      <point x="203" y="634" type="qcurve" smooth="yes"/>
      <point x="203" y="644" type="line" smooth="yes"/>
      <point x="203" y="646"/>
      <point x="205" y="656" type="qcurve" smooth="yes"/>
      <point x="210" y="682"/>
      <point x="221" y="698" type="qcurve"/>
      <point x="232" y="717"/>
      <point x="268" y="747"/>
      <point x="290" y="756" type="qcurve" smooth="yes"/>
      <point x="312" y="764"/>
      <point x="334" y="764" type="qcurve" smooth="yes"/>
      <point x="369" y="764"/>
      <point x="394" y="741" type="qcurve"/>
      <point x="416" y="717"/>
      <point x="416" y="683" type="qcurve" smooth="yes"/>
      <point x="416" y="673" type="line" smooth="yes"/>
      <point x="416" y="671"/>
      <point x="414" y="663" type="qcurve"/>
    </contour>
  </outline>
</glyph>
<glyph name="plusminus" format="1">
  <advance width="399"/>
  <unicode hex="00B1"/>
  <outline>
    <contour>
      <point x="443" y="324" type="line"/>
      <point x="454" y="385" type="line"/>
      <point x="306" y="385" type="line"/>
      <point x="336" y="532" type="line"/>
      <point x="272" y="532" type="line"/>
      <point x="243" y="385" type="line"/>
      <point x="95" y="385" type="line"/>
      <point x="84" y="324" type="line"/>
      <point x="231" y="324" type="line"/>
      <point x="202" y="175" type="line"/>
      <point x="266" y="175" type="line"/>
      <point x="294" y="324" type="line"/>
    </contour>
    <contour>
      <point x="399" y="100" type="line"/>
      <point x="410" y="161" type="line"/>
      <point x="51" y="161" type="line"/>
      <point x="40" y="100" type="line"/>
    </contour>
  </outline>
</glyph>
<glyph name="twosuperior" format="1">
  <advance width="229"/>
  <unicode hex="00B2"/>
  <outline>
    <contour>
      <point x="284" y="317" type="line"/>
      <point x="293" y="371" type="line"/>
      <point x="189" y="371" type="line"/>
      <point x="224" y="547" type="line" smooth="yes"/>
      <point x="226" y="554"/>
      <point x="228" y="564"/>
      <point x="233" y="568" type="qcurve" smooth="yes"/>
      <point x="239" y="572"/>
      <point x="244" y="572" type="qcurve"/>
      <point x="252" y="574"/>
      <point x="265" y="576" type="qcurve" smooth="yes"/>
      <point x="277" y="577"/>
      <point x="300" y="582" type="qcurve"/>
      <point x="316" y="589"/>
      <point x="324" y="596" type="qcurve" smooth="yes"/>
      <point x="334" y="606"/>
      <point x="338" y="619" type="qcurve"/>
      <point x="345" y="634"/>
      <point x="349" y="656" type="qcurve" smooth="yes"/>
      <point x="367" y="747" type="line" smooth="yes"/>
      <point x="370" y="760"/>
      <point x="370" y="776" type="qcurve" smooth="yes"/>
      <point x="370" y="841"/>
      <point x="300" y="841" type="qcurve" smooth="yes"/>
      <point x="258" y="841"/>
      <point x="236" y="820" type="qcurve" smooth="yes"/>
      <point x="213" y="797"/>
      <point x="204" y="753" type="qcurve" smooth="yes"/>
      <point x="192" y="696" type="line"/>
      <point x="253" y="696" type="line"/>
      <point x="263" y="748" type="line" smooth="yes"/>
      <point x="264" y="753"/>
      <point x="268" y="766" type="qcurve" smooth="yes"/>
      <point x="272" y="778" type="line"/>
      <point x="281" y="787"/>
      <point x="295" y="787" type="qcurve" smooth="yes"/>
      <point x="304" y="787"/>
      <point x="309" y="783" type="qcurve"/>
      <point x="311" y="775"/>
      <point x="311" y="774" type="qcurve" smooth="yes"/>
      <point x="311" y="768"/>
      <point x="308" y="754" type="qcurve" smooth="yes"/>
      <point x="291" y="664" type="line"/>
      <point x="286" y="643"/>
      <point x="280" y="638" type="qcurve" smooth="yes"/>
      <point x="273" y="632"/>
      <point x="251" y="631" type="qcurve"/>
      <point x="179" y="624"/>
      <point x="165" y="553" type="qcurve" smooth="yes"/>
      <point x="120" y="317" type="line"/>
    </contour>
    <contour>
      <point x="274" y="781" type="qcurve" smooth="yes"/>
      <point x="273" y="779" type="line" smooth="yes"/>
      <point x="273" y="780"/>
    </contour>
  </outline>
</glyph>
<glyph name="threesuperior" format="1">
  <advance width="229"/>
  <unicode hex="00B3"/>
  <outline>
    <contour>
      <point x="299" y="399" type="qcurve" smooth="yes"/>
      <point x="328" y="549" type="line"/>
      <point x="328" y="548" type="line"/>
      <point x="330" y="556"/>
      <point x="330" y="560" type="qcurve" smooth="yes"/>
      <point x="330" y="574" type="line" smooth="yes"/>
      <point x="330" y="596"/>
      <point x="321" y="609" type="qcurve"/>
      <point x="344" y="629"/>
      <point x="351" y="667" type="qcurve" smooth="yes"/>
      <point x="366" y="744" type="line" smooth="yes"/>
      <point x="369" y="759"/>
      <point x="369" y="773" type="qcurve" smooth="yes"/>
      <point x="369" y="840"/>
      <point x="299" y="840" type="qcurve" smooth="yes"/>
      <point x="220" y="840"/>
      <point x="203" y="750" type="qcurve" smooth="yes"/>
      <point x="193" y="695" type="line"/>
      <point x="253" y="695" type="line"/>
      <point x="263" y="747" type="line" smooth="yes"/>
      <point x="268" y="770"/>
      <point x="272" y="777" type="qcurve"/>
      <point x="280" y="786"/>
      <point x="295" y="786" type="qcurve" smooth="yes"/>
      <point x="304" y="786"/>
      <point x="309" y="782" type="qcurve"/>
      <point x="310" y="779"/>
      <point x="310" y="773" type="qcurve" smooth="yes"/>
      <point x="310" y="764" type="line" smooth="yes"/>
      <point x="310" y="763"/>
      <point x="308" y="753" type="qcurve" smooth="yes"/>
      <point x="293" y="675" type="line" smooth="yes"/>
      <point x="290" y="662"/>
      <point x="287" y="654" type="qcurve" smooth="yes"/>
      <point x="282" y="644"/>
      <point x="282" y="643" type="qcurve" smooth="yes"/>
      <point x="283" y="645" type="line"/>
      <point x="275" y="637"/>
      <point x="254" y="637" type="qcurve" smooth="yes"/>
      <point x="217" y="637" type="line"/>
      <point x="208" y="584" type="line"/>
      <point x="250" y="584" type="line" smooth="yes"/>
      <point x="273" y="584"/>
      <point x="273" y="577" type="qcurve" smooth="yes"/>
      <point x="273" y="573"/>
      <point x="272" y="568" type="qcurve" smooth="yes"/>
      <point x="271" y="564"/>
      <point x="269" y="554" type="qcurve" smooth="yes"/>
      <point x="240" y="404" type="line" smooth="yes"/>
      <point x="232" y="365"/>
      <point x="207" y="365" type="qcurve" smooth="yes"/>
      <point x="195" y="365"/>
      <point x="193" y="370" type="qcurve"/>
      <point x="193" y="369" type="line"/>
      <point x="192" y="370"/>
      <point x="192" y="376" type="qcurve" smooth="yes"/>
      <point x="192" y="383"/>
      <point x="195" y="398" type="qcurve" smooth="yes"/>
      <point x="206" y="459" type="line"/>
      <point x="146" y="459" type="line"/>
      <point x="136" y="405" type="line" smooth="yes"/>
      <point x="133" y="392"/>
      <point x="133" y="376" type="qcurve" smooth="yes"/>
      <point x="133" y="310"/>
      <point x="202" y="310" type="qcurve" smooth="yes"/>
      <point x="282" y="310"/>
    </contour>
  </outline>
</glyph>
<glyph name="acute" format="1">
  <advance width="150"/>
  <unicode hex="00B4"/>
  <outline>
    <contour>
      <point x="294" y="791" type="line"/>
      <point x="235" y="824" type="line"/>
      <point x="132" y="675" type="line"/>
      <point x="189" y="642" type="line"/>
    </contour>
  </outline>
</glyph>
<glyph name="paragraph" format="1">
  <advance width="366"/>
  <unicode hex="00B6"/>
  <outline>
    <contour>
      <point x="507" y="772" type="line"/>
      <point x="518" y="834" type="line"/>
      <point x="285" y="834" type="line" smooth="yes"/>
      <point x="214" y="834"/>
      <point x="180" y="797" type="qcurve"/>
      <point x="152" y="769"/>
      <point x="139" y="697" type="qcurve"/>
      <point x="116" y="579" type="line" smooth="yes"/>
      <point x="113" y="561"/>
      <point x="113" y="544" type="qcurve" smooth="yes"/>
      <point x="113" y="452"/>
      <point x="217" y="452" type="qcurve" smooth="yes"/>
      <point x="265" y="452" type="line"/>
      <point x="165" y="-60" type="line"/>
      <point x="231" y="-60" type="line"/>
      <point x="392" y="772" type="line"/>
      <point x="411" y="772" type="line"/>
      <point x="249" y="-60" type="line"/>
      <point x="315" y="-60" type="line"/>
      <point x="476" y="772" type="line"/>
    </contour>
  </outline>
</glyph>
<glyph name="periodcentered" format="1">
  <advance width="426"/>
  <unicode hex="00B7"/>
  <outline>
    <contour>
      <point x="448" y="379" type="line"/>
      <point x="421" y="414" type="line"/>
      <point x="440" y="435"/>
      <point x="450" y="456" type="qcurve" smooth="yes"/>
      <point x="462" y="482"/>
      <point x="466" y="504" type="qcurve" smooth="yes"/>
      <point x="469" y="519"/>
      <point x="469" y="536" type="qcurve" smooth="yes"/>
      <point x="469" y="568"/>
      <point x="457" y="593" type="qcurve"/>
      <point x="498" y="628" type="line"/>
      <point x="462" y="673" type="line"/>
      <point x="422" y="640" type="line"/>
      <point x="386" y="670"/>
      <point x="333" y="670" type="qcurve" smooth="yes"/>
      <point x="305" y="670"/>
      <point x="284" y="663" type="qcurve" smooth="yes"/>
      <point x="259" y="655"/>
      <point x="238" y="642" type="qcurve"/>
      <point x="213" y="673" type="line"/>
      <point x="164" y="631" type="line"/>
      <point x="188" y="602" type="line"/>
      <point x="169" y="583"/>
      <point x="158" y="559" type="qcurve" smooth="yes"/>
      <point x="146" y="533"/>
      <point x="142" y="509" type="qcurve" smooth="yes"/>
      <point x="140" y="497"/>
      <point x="139" y="492" type="qcurve" smooth="yes"/>
      <point x="138" y="486"/>
      <point x="138" y="473" type="qcurve" smooth="yes"/>
      <point x="138" y="440"/>
      <point x="152" y="414" type="qcurve"/>
      <point x="114" y="383" type="line"/>
      <point x="153" y="339" type="line"/>
      <point x="191" y="370" type="line"/>
      <point x="225" y="345"/>
      <point x="274" y="345" type="qcurve" smooth="yes"/>
      <point x="330" y="345"/>
      <point x="373" y="373" type="qcurve"/>
      <point x="401" y="339" type="line"/>
    </contour>
    <contour>
      <point x="408" y="510" type="line"/>
      <point x="404" y="489"/>
      <point x="392" y="467" type="qcurve" smooth="yes"/>
      <point x="380" y="447"/>
      <point x="363" y="432" type="qcurve" smooth="yes"/>
      <point x="345" y="417"/>
      <point x="325" y="410" type="qcurve"/>
      <point x="304" y="401"/>
      <point x="281" y="401" type="qcurve" smooth="yes"/>
      <point x="245" y="401"/>
      <point x="220" y="424" type="qcurve"/>
      <point x="197" y="447"/>
      <point x="197" y="482" type="qcurve" smooth="yes"/>
      <point x="197" y="490"/>
      <point x="200" y="504" type="qcurve" smooth="yes"/>
      <point x="205" y="530"/>
      <point x="216" y="546" type="qcurve"/>
      <point x="228" y="566"/>
      <point x="246" y="580" type="qcurve"/>
      <point x="263" y="596"/>
      <point x="284" y="603" type="qcurve" smooth="yes"/>
      <point x="306" y="611"/>
      <point x="328" y="611" type="qcurve" smooth="yes"/>
      <point x="366" y="611"/>
      <point x="410" y="567"/>
      <point x="410" y="532" type="qcurve" smooth="yes"/>
      <point x="410" y="522" type="line" smooth="yes"/>
      <point x="410" y="519"/>
      <point x="408" y="511" type="qcurve"/>
    </contour>
  </outline>
</glyph>
<glyph name="cedilla" format="1">
  <advance width="249"/>
  <unicode hex="00B8"/>
  <outline>
    <contour>
      <point x="159" y="-132" type="qcurve"/>
      <point x="167" y="-89" type="line" smooth="yes"/>
      <point x="168" y="-86"/>
      <point x="168" y="-81" type="qcurve"/>
      <point x="169" y="-78"/>
      <point x="169" y="-72" type="qcurve" smooth="yes"/>
      <point x="169" y="-36"/>
      <point x="133" y="-31" type="qcurve"/>
      <point x="147" y="35" type="line"/>
      <point x="93" y="35" type="line"/>
      <point x="70" y="-81" type="line"/>
      <point x="96" y="-81" type="line" smooth="yes"/>
      <point x="98" y="-81"/>
      <point x="99" y="-80" type="qcurve"/>
      <point x="102" y="-80" type="line"/>
      <point x="105" y="-80" type="line"/>
      <point x="106" y="-81"/>
      <point x="108" y="-81" type="qcurve" smooth="yes"/>
      <point x="111" y="-81"/>
      <point x="111" y="-82" type="qcurve" smooth="yes"/>
      <point x="111" y="-88"/>
      <point x="110" y="-90" type="qcurve" smooth="yes"/>
      <point x="103" y="-126" type="line" smooth="yes"/>
      <point x="100" y="-139"/>
      <point x="92" y="-144" type="qcurve"/>
      <point x="29" y="-144" type="line"/>
      <point x="20" y="-195" type="line"/>
      <point x="82" y="-195" type="line" smooth="yes"/>
      <point x="114" y="-195"/>
      <point x="134" y="-180" type="qcurve"/>
      <point x="151" y="-164"/>
    </contour>
  </outline>
</glyph>
<glyph name="onesuperior" format="1">
  <advance width="226"/>
  <unicode hex="00B9"/>
  <outline>
    <contour>
      <point x="245" y="315" type="line"/>
      <point x="255" y="372" type="line"/>
      <point x="239" y="372" type="line"/>
      <point x="332" y="844" type="line"/>
      <point x="244" y="815" type="line"/>
      <point x="233" y="753" type="line"/>
      <point x="255" y="761" type="line"/>
      <point x="179" y="372" type="line"/>
      <point x="163" y="372" type="line"/>
      <point x="153" y="315" type="line"/>
    </contour>
  </outline>
</glyph>
<glyph name="ordmasculine" format="1">
  <advance width="187"/>
  <unicode hex="00BA"/>
  <outline>
    <contour>
      <point x="288" y="561" type="qcurve"/>
      <point x="324" y="748" type="line" smooth="yes"/>
      <point x="327" y="762"/>
      <point x="327" y="775" type="qcurve" smooth="yes"/>
      <point x="327" y="842"/>
      <point x="252" y="842" type="qcurve" smooth="yes"/>
      <point x="165" y="842"/>
      <point x="149" y="754" type="qcurve" smooth="yes"/>
      <point x="113" y="567" type="line" smooth="yes"/>
      <point x="110" y="554"/>
      <point x="110" y="539" type="qcurve" smooth="yes"/>
      <point x="110" y="471"/>
      <point x="186" y="471" type="qcurve" smooth="yes"/>
      <point x="272" y="471"/>
    </contour>
    <contour>
      <point x="226" y="565" type="line" smooth="yes"/>
      <point x="219" y="525"/>
      <point x="190" y="525" type="qcurve" smooth="yes"/>
      <point x="171" y="525"/>
      <point x="171" y="544" type="qcurve" smooth="yes"/>
      <point x="171" y="548"/>
      <point x="172" y="550" type="qcurve"/>
      <point x="172" y="557"/>
      <point x="173" y="560" type="qcurve"/>
      <point x="173" y="559" type="line"/>
      <point x="210" y="748" type="line" smooth="yes"/>
      <point x="218" y="789"/>
      <point x="247" y="789" type="qcurve" smooth="yes"/>
      <point x="265" y="789"/>
      <point x="265" y="770" type="qcurve" smooth="yes"/>
      <point x="265" y="766"/>
      <point x="264" y="762" type="qcurve"/>
      <point x="264" y="756"/>
      <point x="263" y="753" type="qcurve"/>
      <point x="263" y="754" type="line"/>
    </contour>
  </outline>
</glyph>
<glyph name="guillemotright" format="1">
  <advance width="482"/>
  <unicode hex="00BB"/>
  <outline>
    <contour>
      <point x="362" y="329" type="line"/>
      <point x="368" y="365" type="line"/>
      <point x="148" y="571" type="line"/>
      <point x="134" y="496" type="line"/>
      <point x="283" y="350" type="line"/>
      <point x="77" y="203" type="line"/>
      <point x="60" y="123" type="line"/>
    </contour>
    <contour>
      <point x="509" y="328" type="line"/>
      <point x="515" y="365" type="line"/>
      <point x="297" y="571" type="line"/>
      <point x="283" y="496" type="line"/>
      <point x="431" y="350" type="line"/>
      <point x="226" y="203" type="line"/>
      <point x="209" y="122" type="line"/>
    </contour>
  </outline>
</glyph>
<glyph name="onequarter" format="1">
  <advance width="291"/>
  <unicode hex="00BC"/>
  <outline>
    <contour>
      <point x="469" y="841" type="line"/>
      <point x="403" y="841" type="line"/>
      <point x="-18" y="0" type="line"/>
      <point x="48" y="0" type="line"/>
    </contour>
    <contour>
      <point x="480" y="270" type="line"/>
      <point x="492" y="322" type="line"/>
      <point x="461" y="322" type="line"/>
      <point x="499" y="520" type="line"/>
      <point x="444" y="520" type="line"/>
      <point x="267" y="270" type="line"/>
      <point x="390" y="270" type="line"/>
      <point x="339" y="0" type="line"/>
      <point x="399" y="0" type="line"/>
      <point x="450" y="270" type="line"/>
    </contour>
    <contour>
      <point x="78" y="321" type="line"/>
      <point x="91" y="379" type="line"/>
      <point x="73" y="379" type="line"/>
      <point x="165" y="852" type="line"/>
      <point x="77" y="820" type="line"/>
      <point x="66" y="758" type="line"/>
      <point x="90" y="767" type="line"/>
      <point x="14" y="379" type="line"/>
      <point x="0" y="379" type="line"/>
      <point x="-13" y="321" type="line"/>
    </contour>
    <contour>
      <point x="375" y="322" type="line"/>
      <point x="411" y="373" type="line"/>
      <point x="401" y="322" type="line"/>
    </contour>
  </outline>
</glyph>
<glyph name="onehalf" format="1">
  <advance width="291"/>
  <unicode hex="00BD"/>
  <outline>
    <contour>
      <point x="469" y="841" type="line"/>
      <point x="403" y="841" type="line"/>
      <point x="-18" y="0" type="line"/>
      <point x="48" y="0" type="line"/>
    </contour>
    <contour>
      <point x="423" y="0" type="line"/>
      <point x="434" y="55" type="line"/>
      <point x="329" y="55" type="line"/>
      <point x="363" y="229" type="line"/>
      <point x="368" y="248"/>
      <point x="369" y="250" type="qcurve" smooth="yes"/>
      <point x="374" y="256"/>
      <point x="406" y="260" type="qcurve"/>
      <point x="444" y="268"/>
      <point x="459" y="278" type="qcurve"/>
      <point x="480" y="297"/>
      <point x="488" y="339" type="qcurve"/>
      <point x="488" y="338" type="line"/>
      <point x="506" y="429" type="line" smooth="yes"/>
      <point x="509" y="444"/>
      <point x="509" y="458" type="qcurve" smooth="yes"/>
      <point x="509" y="525"/>
      <point x="440" y="525" type="qcurve" smooth="yes"/>
      <point x="362" y="525"/>
      <point x="345" y="435" type="qcurve" smooth="yes"/>
      <point x="335" y="379" type="line"/>
      <point x="393" y="379" type="line"/>
      <point x="402" y="431" type="line" smooth="yes"/>
      <point x="403" y="441"/>
      <point x="407" y="448" type="qcurve"/>
      <point x="412" y="461" type="line"/>
      <point x="422" y="471"/>
      <point x="436" y="471" type="qcurve" smooth="yes"/>
      <point x="448" y="471"/>
      <point x="450" y="466" type="qcurve"/>
      <point x="450" y="462" type="line"/>
      <point x="451" y="461"/>
      <point x="451" y="458" type="qcurve" smooth="yes"/>
      <point x="451" y="452"/>
      <point x="448" y="437" type="qcurve" smooth="yes"/>
      <point x="431" y="347" type="line" smooth="yes"/>
      <point x="430" y="337"/>
      <point x="426" y="330" type="qcurve"/>
      <point x="425" y="326"/>
      <point x="420" y="321" type="qcurve" smooth="yes"/>
      <point x="418" y="320"/>
      <point x="408" y="316" type="qcurve"/>
      <point x="405" y="316"/>
      <point x="389" y="314" type="qcurve" smooth="yes"/>
      <point x="320" y="307"/>
      <point x="306" y="235" type="qcurve" smooth="yes"/>
      <point x="261" y="0" type="line"/>
    </contour>
    <contour>
      <point x="78" y="321" type="line"/>
      <point x="91" y="379" type="line"/>
      <point x="73" y="379" type="line"/>
      <point x="165" y="852" type="line"/>
      <point x="77" y="820" type="line"/>
      <point x="66" y="758" type="line"/>
      <point x="90" y="767" type="line"/>
      <point x="14" y="379" type="line"/>
      <point x="0" y="379" type="line"/>
      <point x="-13" y="321" type="line"/>
    </contour>
    <contour>
      <point x="414" y="464" type="qcurve" smooth="yes"/>
      <point x="413" y="462" type="line" smooth="yes"/>
      <point x="413" y="463"/>
    </contour>
  </outline>
</glyph>
<glyph name="threequarters" format="1">
  <advance width="291"/>
  <unicode hex="00BE"/>
  <outline>
    <contour>
      <point x="469" y="841" type="line"/>
      <point x="403" y="841" type="line"/>
      <point x="-18" y="0" type="line"/>
      <point x="48" y="0" type="line"/>
    </contour>
    <contour>
      <point x="135" y="399" type="qcurve" smooth="yes"/>
      <point x="164" y="549" type="line"/>
      <point x="164" y="548" type="line"/>
      <point x="166" y="556"/>
      <point x="166" y="560" type="qcurve" smooth="yes"/>
      <point x="166" y="574" type="line" smooth="yes"/>
      <point x="166" y="596"/>
      <point x="157" y="609" type="qcurve"/>
      <point x="180" y="629"/>
      <point x="187" y="667" type="qcurve" smooth="yes"/>
      <point x="202" y="744" type="line" smooth="yes"/>
      <point x="205" y="759"/>
      <point x="205" y="773" type="qcurve" smooth="yes"/>
      <point x="205" y="840"/>
      <point x="136" y="840" type="qcurve" smooth="yes"/>
      <point x="56" y="840"/>
      <point x="39" y="750" type="qcurve" smooth="yes"/>
      <point x="29" y="695" type="line"/>
      <point x="89" y="695" type="line"/>
      <point x="99" y="747" type="line" smooth="yes"/>
      <point x="100" y="754"/>
      <point x="104" y="764" type="qcurve" smooth="yes"/>
      <point x="108" y="776" type="line"/>
      <point x="118" y="786"/>
      <point x="132" y="786" type="qcurve" smooth="yes"/>
      <point x="144" y="786"/>
      <point x="146" y="781" type="qcurve"/>
      <point x="146" y="778" type="line"/>
      <point x="147" y="777"/>
      <point x="147" y="775" type="qcurve" smooth="yes"/>
      <point x="147" y="768"/>
      <point x="144" y="753" type="qcurve" smooth="yes"/>
      <point x="129" y="675" type="line" smooth="yes"/>
      <point x="124" y="651"/>
      <point x="119" y="646" type="qcurve" smooth="yes"/>
      <point x="110" y="637"/>
      <point x="90" y="637" type="qcurve" smooth="yes"/>
      <point x="52" y="637" type="line"/>
      <point x="43" y="584" type="line"/>
      <point x="86" y="584" type="line" smooth="yes"/>
      <point x="108" y="584"/>
      <point x="108" y="576" type="qcurve" smooth="yes"/>
      <point x="108" y="569"/>
      <point x="105" y="554" type="qcurve" smooth="yes"/>
      <point x="76" y="404" type="line" smooth="yes"/>
      <point x="68" y="365"/>
      <point x="44" y="365" type="qcurve" smooth="yes"/>
      <point x="32" y="365"/>
      <point x="29" y="369" type="qcurve"/>
      <point x="29" y="377" type="line"/>
      <point x="29" y="386" type="line" smooth="yes"/>
      <point x="29" y="388"/>
      <point x="31" y="398" type="qcurve" smooth="yes"/>
      <point x="42" y="459" type="line"/>
      <point x="-18" y="459" type="line"/>
      <point x="-28" y="405" type="line" smooth="yes"/>
      <point x="-31" y="392"/>
      <point x="-31" y="376" type="qcurve" smooth="yes"/>
      <point x="-31" y="310"/>
      <point x="39" y="310" type="qcurve" smooth="yes"/>
      <point x="118" y="310"/>
    </contour>
    <contour>
      <point x="480" y="270" type="line"/>
      <point x="492" y="322" type="line"/>
      <point x="461" y="322" type="line"/>
      <point x="499" y="520" type="line"/>
      <point x="444" y="520" type="line"/>
      <point x="267" y="270" type="line"/>
      <point x="390" y="270" type="line"/>
      <point x="339" y="0" type="line"/>
      <point x="399" y="0" type="line"/>
      <point x="450" y="270" type="line"/>
    </contour>
    <contour>
      <point x="375" y="322" type="line"/>
      <point x="411" y="373" type="line"/>
      <point x="401" y="322" type="line"/>
    </contour>
  </outline>
</glyph>
<glyph name="questiondown" format="1">
  <advance width="275"/>
  <unicode hex="00BF"/>
  <outline>
    <contour>
      <point x="239" y="-48" type="qcurve" smooth="yes"/>
      <point x="253" y="27" type="line"/>
      <point x="187" y="27" type="line"/>
      <point x="174" y="-45" type="line"/>
      <point x="157" y="-125"/>
      <point x="101" y="-125" type="qcurve" smooth="yes"/>
      <point x="60" y="-125"/>
      <point x="60" y="-82" type="qcurve" smooth="yes"/>
      <point x="60" y="-74"/>
      <point x="61" y="-68" type="qcurve" smooth="yes"/>
      <point x="62" y="-63"/>
      <point x="64" y="-51" type="qcurve" smooth="yes"/>
      <point x="88" y="72" type="line" smooth="yes"/>
      <point x="98" y="122"/>
      <point x="115" y="135" type="qcurve"/>
      <point x="135" y="155"/>
      <point x="192" y="155" type="qcurve"/>
      <point x="267" y="539" type="line"/>
      <point x="201" y="539" type="line"/>
      <point x="137" y="207" type="line"/>
      <point x="85" y="196"/>
      <point x="59" y="163" type="qcurve"/>
      <point x="60" y="164" type="line"/>
      <point x="36" y="136"/>
      <point x="23" y="75" type="qcurve" smooth="yes"/>
      <point x="0" y="-42" type="line" smooth="yes"/>
      <point x="0" y="-46"/>
      <point x="-2" y="-61"/>
      <point x="-3" y="-64" type="qcurve" smooth="yes"/>
      <point x="-4" y="-72"/>
      <point x="-4" y="-87" type="qcurve" smooth="yes"/>
      <point x="-4" y="-183"/>
      <point x="95" y="-183" type="qcurve" smooth="yes"/>
      <point x="214" y="-183"/>
    </contour>
    <contour>
      <point x="275" y="589" type="line"/>
      <point x="290" y="656" type="line"/>
      <point x="226" y="656" type="line"/>
      <point x="211" y="589" type="line"/>
    </contour>
  </outline>
</glyph>
<glyph name="Agrave" format="1">
  <advance width="280"/>
  <unicode hex="00C0"/>
  <outline>
    <contour>
      <point x="284" y="0" type="line"/>
      <point x="326" y="834" type="line"/>
      <point x="271" y="834" type="line"/>
      <point x="-11" y="0" type="line"/>
      <point x="51" y="0" type="line"/>
      <point x="179" y="379" type="line"/>
      <point x="242" y="379" type="line"/>
      <point x="221" y="0" type="line"/>
    </contour>
    <contour>
      <point x="375" y="872" type="line"/>
      <point x="327" y="1022" type="line"/>
      <point x="262" y="995" type="line"/>
      <point x="310" y="841" type="line"/>
    </contour>
    <contour>
      <point x="199" y="440" type="line"/>
      <point x="254" y="602" type="line"/>
      <point x="245" y="440" type="line"/>
    </contour>
  </outline>
</glyph>
<glyph name="Aacute" format="1">
  <advance width="280"/>
  <unicode hex="00C1"/>
  <outline>
    <contour>
      <point x="284" y="0" type="line"/>
      <point x="326" y="834" type="line"/>
      <point x="271" y="834" type="line"/>
      <point x="-11" y="0" type="line"/>
      <point x="51" y="0" type="line"/>
      <point x="179" y="379" type="line"/>
      <point x="242" y="379" type="line"/>
      <point x="221" y="0" type="line"/>
    </contour>
    <contour>
      <point x="400" y="991" type="line"/>
      <point x="341" y="1021" type="line"/>
      <point x="237" y="875" type="line"/>
      <point x="296" y="842" type="line"/>
    </contour>
    <contour>
      <point x="199" y="440" type="line"/>
      <point x="254" y="602" type="line"/>
      <point x="245" y="440" type="line"/>
    </contour>
  </outline>
</glyph>
<glyph name="Acircumflex" format="1">
  <advance width="280"/>
  <unicode hex="00C2"/>
  <outline>
    <contour>
      <point x="284" y="0" type="line"/>
      <point x="326" y="834" type="line"/>
      <point x="271" y="834" type="line"/>
      <point x="-11" y="0" type="line"/>
      <point x="51" y="0" type="line"/>
      <point x="179" y="379" type="line"/>
      <point x="242" y="379" type="line"/>
      <point x="221" y="0" type="line"/>
    </contour>
    <contour>
      <point x="386" y="842" type="line"/>
      <point x="367" y="1027" type="line"/>
      <point x="306" y="1027" type="line"/>
      <point x="215" y="842" type="line"/>
      <point x="282" y="842" type="line"/>
      <point x="314" y="904" type="line"/>
      <point x="323" y="842" type="line"/>
    </contour>
    <contour>
      <point x="199" y="440" type="line"/>
      <point x="254" y="602" type="line"/>
      <point x="245" y="440" type="line"/>
    </contour>
  </outline>
</glyph>
<glyph name="Atilde" format="1">
  <advance width="280"/>
  <unicode hex="00C3"/>
  <outline>
    <contour>
      <point x="284" y="0" type="line"/>
      <point x="326" y="834" type="line"/>
      <point x="271" y="834" type="line"/>
      <point x="-11" y="0" type="line"/>
      <point x="51" y="0" type="line"/>
      <point x="179" y="379" type="line"/>
      <point x="242" y="379" type="line"/>
      <point x="221" y="0" type="line"/>
    </contour>
    <contour>
      <point x="477" y="1008" type="line"/>
      <point x="382" y="926"/>
      <point x="362" y="926" type="qcurve"/>
      <point x="353" y="928"/>
      <point x="332" y="950" type="qcurve"/>
      <point x="299" y="980"/>
      <point x="283" y="981" type="qcurve"/>
      <point x="279" y="981" type="line" smooth="yes"/>
      <point x="258" y="981"/>
      <point x="236" y="969" type="qcurve" smooth="yes"/>
      <point x="212" y="957"/>
      <point x="183" y="931" type="qcurve"/>
      <point x="156" y="836" type="line"/>
      <point x="251" y="919"/>
      <point x="270" y="919" type="qcurve"/>
      <point x="277" y="916"/>
      <point x="294" y="900" type="qcurve"/>
      <point x="293" y="900" type="line"/>
      <point x="298" y="895" type="line" smooth="yes"/>
      <point x="314" y="879"/>
      <point x="325" y="874" type="qcurve"/>
      <point x="338" y="866"/>
      <point x="352" y="864" type="qcurve"/>
      <point x="357" y="864" type="line" smooth="yes"/>
      <point x="392" y="864"/>
      <point x="449" y="912" type="qcurve"/>
    </contour>
    <contour>
      <point x="199" y="440" type="line"/>
      <point x="254" y="602" type="line"/>
      <point x="245" y="440" type="line"/>
    </contour>
    <contour>
      <point x="269" y="919" type="qcurve" smooth="yes"/>
      <point x="267" y="920" type="line" smooth="yes"/>
      <point x="268" y="920"/>
    </contour>
  </outline>
</glyph>
<glyph name="Aring" format="1">
  <advance width="280"/>
  <unicode hex="00C5"/>
  <outline>
    <contour>
      <point x="284" y="0" type="line"/>
      <point x="325" y="820" type="line"/>
      <point x="357" y="827"/>
      <point x="383" y="853" type="qcurve" smooth="yes"/>
      <point x="407" y="877"/>
      <point x="415" y="913" type="qcurve"/>
      <point x="415" y="914" type="line"/>
      <point x="416" y="917"/>
      <point x="416" y="924" type="qcurve"/>
      <point x="417" y="926"/>
      <point x="417" y="933" type="qcurve" smooth="yes"/>
      <point x="417" y="969"/>
      <point x="394" y="992" type="qcurve"/>
      <point x="372" y="1016"/>
      <point x="333" y="1016" type="qcurve" smooth="yes"/>
      <point x="311" y="1016"/>
      <point x="294" y="1008" type="qcurve"/>
      <point x="281" y="1004"/>
      <point x="259" y="988" type="qcurve"/>
      <point x="241" y="972"/>
      <point x="232" y="956" type="qcurve" smooth="yes"/>
      <point x="222" y="938"/>
      <point x="217" y="918" type="qcurve" smooth="yes"/>
      <point x="216" y="915"/>
      <point x="216" y="909" type="qcurve"/>
      <point x="215" y="906"/>
      <point x="215" y="899" type="qcurve" smooth="yes"/>
      <point x="215" y="841"/>
      <point x="267" y="822" type="qcurve"/>
      <point x="-11" y="0" type="line"/>
      <point x="51" y="0" type="line"/>
      <point x="179" y="379" type="line"/>
      <point x="242" y="379" type="line"/>
      <point x="221" y="0" type="line"/>
    </contour>
    <contour>
      <point x="354" y="919" type="line"/>
      <point x="349" y="900"/>
      <point x="336" y="889" type="qcurve"/>
      <point x="324" y="877"/>
      <point x="306" y="877" type="qcurve" smooth="yes"/>
      <point x="294" y="877"/>
      <point x="285" y="884" type="qcurve"/>
      <point x="278" y="892"/>
      <point x="278" y="904" type="qcurve" smooth="yes"/>
      <point x="278" y="909"/>
      <point x="279" y="912" type="qcurve" smooth="yes"/>
      <point x="283" y="930"/>
      <point x="296" y="943" type="qcurve"/>
      <point x="311" y="955"/>
      <point x="327" y="955" type="qcurve" smooth="yes"/>
      <point x="339" y="955"/>
      <point x="348" y="948" type="qcurve"/>
      <point x="355" y="940"/>
      <point x="355" y="928" type="qcurve" smooth="yes"/>
      <point x="355" y="923"/>
      <point x="354" y="920" type="qcurve"/>
    </contour>
    <contour>
      <point x="199" y="440" type="line"/>
      <point x="254" y="602" type="line"/>
      <point x="245" y="440" type="line"/>
    </contour>
  </outline>
</glyph>
<glyph name="AE" format="1">
  <advance width="475"/>
  <unicode hex="00C6"/>
  <outline>
    <contour>
      <point x="452" y="0" type="line"/>
      <point x="462" y="56" type="line"/>
      <point x="292" y="56" type="line"/>
      <point x="369" y="451" type="line"/>
      <point x="540" y="451" type="line"/>
      <point x="551" y="506" type="line"/>
      <point x="380" y="506" type="line"/>
      <point x="432" y="777" type="line"/>
      <point x="603" y="777" type="line"/>
      <point x="613" y="834" type="line"/>
      <point x="387" y="834" type="line"/>
      <point x="-15" y="0" type="line"/>
      <point x="50" y="0" type="line"/>
      <point x="233" y="379" type="line"/>
      <point x="294" y="379" type="line"/>
      <point x="218" y="0" type="line"/>
    </contour>
    <contour>
      <point x="261" y="440" type="line"/>
      <point x="337" y="596" type="line"/>
      <point x="306" y="440" type="line"/>
    </contour>
  </outline>
</glyph>
<glyph name="Ccedilla" format="1">
  <advance width="275"/>
  <unicode hex="00C7"/>
  <outline>
    <contour>
      <point x="283" y="126" type="qcurve"/>
      <point x="298" y="206" type="line"/>
      <point x="233" y="206" type="line"/>
      <point x="219" y="130" type="line"/>
      <point x="202" y="47"/>
      <point x="145" y="47" type="qcurve" smooth="yes"/>
      <point x="105" y="47"/>
      <point x="105" y="91" type="qcurve" smooth="yes"/>
      <point x="105" y="109"/>
      <point x="109" y="124" type="qcurve"/>
      <point x="222" y="704" type="line" smooth="yes"/>
      <point x="238" y="785"/>
      <point x="295" y="785" type="qcurve" smooth="yes"/>
      <point x="336" y="785"/>
      <point x="336" y="741" type="qcurve" smooth="yes"/>
      <point x="336" y="732"/>
      <point x="334" y="722"/>
      <point x="332" y="710" type="qcurve" smooth="yes"/>
      <point x="316" y="632" type="line"/>
      <point x="382" y="632" type="line"/>
      <point x="395" y="702" type="line" smooth="yes"/>
      <point x="396" y="705"/>
      <point x="398" y="721"/>
      <point x="398" y="724" type="qcurve" smooth="yes"/>
      <point x="399" y="731"/>
      <point x="399" y="746" type="qcurve" smooth="yes"/>
      <point x="399" y="841"/>
      <point x="300" y="841" type="qcurve" smooth="yes"/>
      <point x="183" y="841"/>
      <point x="158" y="708" type="qcurve" smooth="yes"/>
      <point x="46" y="132" type="line" smooth="yes"/>
      <point x="42" y="115"/>
      <point x="42" y="89" type="qcurve" smooth="yes"/>
      <point x="42" y="12"/>
      <point x="107" y="-5" type="qcurve"/>
      <point x="93" y="-81" type="line"/>
      <point x="119" y="-81" type="line" smooth="yes"/>
      <point x="120" y="-81"/>
      <point x="121" y="-80" type="qcurve"/>
      <point x="124" y="-80" type="line"/>
      <point x="128" y="-80" type="line"/>
      <point x="128" y="-81"/>
      <point x="131" y="-81" type="qcurve" smooth="yes"/>
      <point x="135" y="-81"/>
      <point x="135" y="-82" type="qcurve" smooth="yes"/>
      <point x="135" y="-88"/>
      <point x="134" y="-90" type="qcurve" smooth="yes"/>
      <point x="127" y="-126" type="line" smooth="yes"/>
      <point x="124" y="-139"/>
      <point x="116" y="-144" type="qcurve"/>
      <point x="53" y="-144" type="line"/>
      <point x="44" y="-195" type="line"/>
      <point x="106" y="-195" type="line" smooth="yes"/>
      <point x="138" y="-195"/>
      <point x="158" y="-180" type="qcurve"/>
      <point x="175" y="-164"/>
      <point x="183" y="-132" type="qcurve"/>
      <point x="191" y="-89" type="line" smooth="yes"/>
      <point x="192" y="-86"/>
      <point x="192" y="-81" type="qcurve"/>
      <point x="193" y="-78"/>
      <point x="193" y="-72" type="qcurve" smooth="yes"/>
      <point x="193" y="-36"/>
      <point x="157" y="-31" type="qcurve"/>
      <point x="162" y="-7" type="line"/>
      <point x="259" y="6"/>
    </contour>
  </outline>
</glyph>
<glyph name="Egrave" format="1">
  <advance width="290"/>
  <unicode hex="00C8"/>
  <outline>
    <contour>
      <point x="272" y="0" type="line"/>
      <point x="282" y="56" type="line"/>
      <point x="112" y="56" type="line"/>
      <point x="189" y="451" type="line"/>
      <point x="360" y="451" type="line"/>
      <point x="371" y="506" type="line"/>
      <point x="200" y="506" type="line"/>
      <point x="252" y="777" type="line"/>
      <point x="423" y="777" type="line"/>
      <point x="433" y="834" type="line"/>
      <point x="198" y="834" type="line"/>
      <point x="37" y="0" type="line"/>
    </contour>
    <contour>
      <point x="380" y="872" type="line"/>
      <point x="332" y="1022" type="line"/>
      <point x="267" y="995" type="line"/>
      <point x="315" y="841" type="line"/>
    </contour>
  </outline>
</glyph>
<glyph name="Eacute" format="1">
  <advance width="290"/>
  <unicode hex="00C9"/>
  <outline>
    <contour>
      <point x="272" y="0" type="line"/>
      <point x="282" y="56" type="line"/>
      <point x="112" y="56" type="line"/>
      <point x="189" y="451" type="line"/>
      <point x="360" y="451" type="line"/>
      <point x="371" y="506" type="line"/>
      <point x="200" y="506" type="line"/>
      <point x="252" y="777" type="line"/>
      <point x="423" y="777" type="line"/>
      <point x="433" y="834" type="line"/>
      <point x="198" y="834" type="line"/>
      <point x="37" y="0" type="line"/>
    </contour>
    <contour>
      <point x="405" y="991" type="line"/>
      <point x="346" y="1021" type="line"/>
      <point x="242" y="875" type="line"/>
      <point x="301" y="842" type="line"/>
    </contour>
  </outline>
</glyph>
<glyph name="Ecircumflex" format="1">
  <advance width="290"/>
  <unicode hex="00CA"/>
  <outline>
    <contour>
      <point x="259" y="0" type="line"/>
      <point x="269" y="56" type="line"/>
      <point x="99" y="56" type="line"/>
      <point x="176" y="451" type="line"/>
      <point x="347" y="451" type="line"/>
      <point x="358" y="506" type="line"/>
      <point x="187" y="506" type="line"/>
      <point x="239" y="777" type="line"/>
      <point x="410" y="777" type="line"/>
      <point x="420" y="834" type="line"/>
      <point x="185" y="834" type="line"/>
      <point x="24" y="0" type="line"/>
    </contour>
    <contour>
      <point x="390" y="842" type="line"/>
      <point x="372" y="1027" type="line"/>
      <point x="311" y="1027" type="line"/>
      <point x="220" y="842" type="line"/>
      <point x="287" y="842" type="line"/>
      <point x="319" y="904" type="line"/>
      <point x="328" y="842" type="line"/>
    </contour>
  </outline>
</glyph>
<glyph name="Edieresis" format="1">
  <advance width="290"/>
  <unicode hex="00CB"/>
  <outline>
    <contour>
      <point x="259" y="0" type="line"/>
      <point x="269" y="56" type="line"/>
      <point x="99" y="56" type="line"/>
      <point x="176" y="451" type="line"/>
      <point x="347" y="451" type="line"/>
      <point x="358" y="506" type="line"/>
      <point x="187" y="506" type="line"/>
      <point x="239" y="777" type="line"/>
      <point x="410" y="777" type="line"/>
      <point x="420" y="834" type="line"/>
      <point x="185" y="834" type="line"/>
      <point x="24" y="0" type="line"/>
    </contour>
    <contour>
      <point x="396" y="889" type="line"/>
      <point x="408" y="956" type="line"/>
      <point x="344" y="956" type="line"/>
      <point x="332" y="889" type="line"/>
    </contour>
    <contour>
      <point x="297" y="889" type="line"/>
      <point x="309" y="956" type="line"/>
      <point x="246" y="956" type="line"/>
      <point x="234" y="889" type="line"/>
    </contour>
  </outline>
</glyph>
<glyph name="Igrave" format="1">
  <advance width="127"/>
  <unicode hex="00CC"/>
  <outline>
    <contour>
      <point x="115" y="1" type="line"/>
      <point x="126" y="62" type="line"/>
      <point x="104" y="62" type="line"/>
      <point x="242" y="771" type="line"/>
      <point x="265" y="771" type="line"/>
      <point x="276" y="832" type="line"/>
      <point x="251" y="832" type="line"/>
      <point x="251" y="834" type="line"/>
      <point x="188" y="834" type="line"/>
      <point x="188" y="832" type="line"/>
      <point x="169" y="832" type="line"/>
      <point x="158" y="771" type="line"/>
      <point x="178" y="771" type="line"/>
      <point x="40" y="62" type="line"/>
      <point x="19" y="62" type="line"/>
      <point x="8" y="1" type="line"/>
      <point x="32" y="1" type="line"/>
      <point x="32" y="0" type="line"/>
      <point x="95" y="0" type="line"/>
      <point x="95" y="1" type="line"/>
    </contour>
    <contour>
      <point x="298" y="872" type="line"/>
      <point x="250" y="1023" type="line"/>
      <point x="186" y="995" type="line"/>
      <point x="235" y="841" type="line"/>
    </contour>
  </outline>
</glyph>
<glyph name="Iacute" format="1">
  <advance width="127"/>
  <unicode hex="00CD"/>
  <outline>
    <contour>
      <point x="115" y="1" type="line"/>
      <point x="126" y="62" type="line"/>
      <point x="104" y="62" type="line"/>
      <point x="242" y="771" type="line"/>
      <point x="265" y="771" type="line"/>
      <point x="276" y="832" type="line"/>
      <point x="251" y="832" type="line"/>
      <point x="251" y="834" type="line"/>
      <point x="188" y="834" type="line"/>
      <point x="188" y="832" type="line"/>
      <point x="169" y="832" type="line"/>
      <point x="158" y="771" type="line"/>
      <point x="178" y="771" type="line"/>
      <point x="40" y="62" type="line"/>
      <point x="19" y="62" type="line"/>
      <point x="8" y="1" type="line"/>
      <point x="32" y="1" type="line"/>
      <point x="32" y="0" type="line"/>
      <point x="95" y="0" type="line"/>
      <point x="95" y="1" type="line"/>
    </contour>
    <contour>
      <point x="323" y="991" type="line"/>
      <point x="266" y="1021" type="line"/>
      <point x="161" y="875" type="line"/>
      <point x="218" y="842" type="line"/>
    </contour>
  </outline>
</glyph>
<glyph name="Icircumflex" format="1">
  <advance width="127"/>
  <unicode hex="00CE"/>
  <outline>
    <contour>
      <point x="115" y="1" type="line"/>
      <point x="126" y="62" type="line"/>
      <point x="104" y="62" type="line"/>
      <point x="242" y="771" type="line"/>
      <point x="265" y="771" type="line"/>
      <point x="276" y="832" type="line"/>
      <point x="251" y="832" type="line"/>
      <point x="251" y="834" type="line"/>
      <point x="188" y="834" type="line"/>
      <point x="188" y="832" type="line"/>
      <point x="169" y="832" type="line"/>
      <point x="158" y="771" type="line"/>
      <point x="178" y="771" type="line"/>
      <point x="40" y="62" type="line"/>
      <point x="19" y="62" type="line"/>
      <point x="8" y="1" type="line"/>
      <point x="32" y="1" type="line"/>
      <point x="32" y="0" type="line"/>
      <point x="95" y="0" type="line"/>
      <point x="95" y="1" type="line"/>
    </contour>
    <contour>
      <point x="310" y="842" type="line"/>
      <point x="290" y="1027" type="line"/>
      <point x="228" y="1027" type="line"/>
      <point x="138" y="842" type="line"/>
      <point x="205" y="842" type="line"/>
      <point x="237" y="904" type="line"/>
      <point x="247" y="842" type="line"/>
    </contour>
  </outline>
</glyph>
<glyph name="Ntilde" format="1">
  <advance width="287"/>
  <unicode hex="00D1"/>
  <outline>
    <contour>
      <point x="273" y="0" type="line"/>
      <point x="429" y="834" type="line"/>
      <point x="365" y="834" type="line"/>
      <point x="264" y="315" type="line"/>
      <point x="248" y="832" type="line"/>
      <point x="246" y="832" type="line"/>
      <point x="246" y="834" type="line"/>
      <point x="184" y="834" type="line"/>
      <point x="23" y="0" type="line"/>
      <point x="88" y="0" type="line"/>
      <point x="193" y="545" type="line"/>
      <point x="210" y="34" type="line"/>
      <point x="204" y="0" type="line"/>
    </contour>
    <contour>
      <point x="478" y="1008" type="line"/>
      <point x="443" y="976"/>
      <point x="404" y="946" type="qcurve"/>
      <point x="376" y="927"/>
      <point x="367" y="926" type="qcurve"/>
      <point x="366" y="926" type="line"/>
      <point x="357" y="928"/>
      <point x="336" y="950" type="qcurve"/>
      <point x="303" y="980"/>
      <point x="285" y="981" type="qcurve"/>
      <point x="282" y="981" type="line" smooth="yes"/>
      <point x="262" y="981"/>
      <point x="239" y="969" type="qcurve" smooth="yes"/>
      <point x="215" y="956"/>
      <point x="187" y="931" type="qcurve"/>
      <point x="158" y="836" type="line"/>
      <point x="256" y="919"/>
      <point x="274" y="919" type="qcurve"/>
      <point x="278" y="918"/>
      <point x="283" y="913" type="qcurve" smooth="yes"/>
      <point x="284" y="912"/>
      <point x="293" y="905"/>
      <point x="296" y="902" type="qcurve" smooth="yes"/>
      <point x="301" y="896" type="line"/>
      <point x="333" y="867"/>
      <point x="354" y="864" type="qcurve"/>
      <point x="359" y="864" type="line" smooth="yes"/>
      <point x="396" y="864"/>
      <point x="454" y="913" type="qcurve"/>
    </contour>
    <contour>
      <point x="273" y="919" type="qcurve" smooth="yes"/>
      <point x="271" y="920" type="line" smooth="yes"/>
      <point x="272" y="920"/>
    </contour>
  </outline>
</glyph>
<glyph name="Otilde" format="1">
  <advance width="285"/>
  <unicode hex="00D5"/>
  <outline>
    <contour>
      <point x="283" y="126" type="qcurve" smooth="yes"/>
      <point x="395" y="702" type="line" smooth="yes"/>
      <point x="396" y="705"/>
      <point x="398" y="721"/>
      <point x="398" y="724" type="qcurve" smooth="yes"/>
      <point x="399" y="731"/>
      <point x="399" y="746" type="qcurve" smooth="yes"/>
      <point x="399" y="841"/>
      <point x="300" y="841" type="qcurve" smooth="yes"/>
      <point x="183" y="841"/>
      <point x="158" y="708" type="qcurve" smooth="yes"/>
      <point x="46" y="132" type="line" smooth="yes"/>
      <point x="41" y="104"/>
      <point x="41" y="87" type="qcurve" smooth="yes"/>
      <point x="41" y="-8"/>
      <point x="140" y="-8" type="qcurve" smooth="yes"/>
      <point x="257" y="-8"/>
    </contour>
    <contour>
      <point x="219" y="130" type="line" smooth="yes"/>
      <point x="202" y="47"/>
      <point x="145" y="47" type="qcurve" smooth="yes"/>
      <point x="105" y="47"/>
      <point x="105" y="91" type="qcurve" smooth="yes"/>
      <point x="105" y="109"/>
      <point x="109" y="124" type="qcurve"/>
      <point x="222" y="704" type="line" smooth="yes"/>
      <point x="238" y="785"/>
      <point x="295" y="785" type="qcurve" smooth="yes"/>
      <point x="336" y="785"/>
      <point x="336" y="741" type="qcurve" smooth="yes"/>
      <point x="336" y="732"/>
      <point x="334" y="722"/>
      <point x="332" y="710" type="qcurve" smooth="yes"/>
    </contour>
    <contour>
      <point x="477" y="1008" type="line"/>
      <point x="426" y="963"/>
      <point x="402" y="946" type="qcurve" smooth="yes"/>
      <point x="373" y="926"/>
      <point x="365" y="926" type="qcurve"/>
      <point x="356" y="928"/>
      <point x="335" y="950" type="qcurve"/>
      <point x="304" y="979"/>
      <point x="283" y="981" type="qcurve"/>
      <point x="279" y="981" type="line" smooth="yes"/>
      <point x="270" y="981"/>
      <point x="259" y="978" type="qcurve"/>
      <point x="238" y="969" type="line"/>
      <point x="220" y="960"/>
      <point x="185" y="931" type="qcurve"/>
      <point x="156" y="835" type="line"/>
      <point x="250" y="914"/>
      <point x="270" y="919" type="qcurve" smooth="yes"/>
      <point x="271" y="919"/>
      <point x="282" y="912" type="qcurve" smooth="yes"/>
      <point x="287" y="909"/>
      <point x="300" y="896" type="qcurve" smooth="yes"/>
      <point x="302" y="894" type="line"/>
      <point x="302" y="895" type="line"/>
      <point x="331" y="867"/>
      <point x="354" y="864" type="qcurve"/>
      <point x="359" y="864" type="line" smooth="yes"/>
      <point x="396" y="864"/>
      <point x="451" y="912" type="qcurve"/>
    </contour>
    <contour>
      <point x="272" y="919" type="line"/>
      <point x="274" y="919" type="line" smooth="yes"/>
      <point x="275" y="919"/>
      <point x="275" y="918" type="qcurve"/>
      <point x="276" y="918" type="line"/>
    </contour>
  </outline>
</glyph>
<glyph name="Odieresis" format="1">
  <advance width="285"/>
  <unicode hex="00D6"/>
  <outline>
    <contour>
      <point x="283" y="126" type="qcurve" smooth="yes"/>
      <point x="395" y="702" type="line" smooth="yes"/>
      <point x="396" y="705"/>
      <point x="398" y="721"/>
      <point x="398" y="724" type="qcurve" smooth="yes"/>
      <point x="399" y="731"/>
      <point x="399" y="746" type="qcurve" smooth="yes"/>
      <point x="399" y="841"/>
      <point x="300" y="841" type="qcurve" smooth="yes"/>
      <point x="183" y="841"/>
      <point x="158" y="708" type="qcurve" smooth="yes"/>
      <point x="46" y="132" type="line" smooth="yes"/>
      <point x="41" y="104"/>
      <point x="41" y="87" type="qcurve" smooth="yes"/>
      <point x="41" y="-8"/>
      <point x="140" y="-8" type="qcurve" smooth="yes"/>
      <point x="257" y="-8"/>
    </contour>
    <contour>
      <point x="219" y="130" type="line" smooth="yes"/>
      <point x="202" y="47"/>
      <point x="145" y="47" type="qcurve" smooth="yes"/>
      <point x="105" y="47"/>
      <point x="105" y="91" type="qcurve" smooth="yes"/>
      <point x="105" y="109"/>
      <point x="109" y="124" type="qcurve"/>
      <point x="222" y="704" type="line" smooth="yes"/>
      <point x="238" y="785"/>
      <point x="295" y="785" type="qcurve" smooth="yes"/>
      <point x="336" y="785"/>
      <point x="336" y="741" type="qcurve" smooth="yes"/>
      <point x="336" y="732"/>
      <point x="334" y="722"/>
      <point x="332" y="710" type="qcurve" smooth="yes"/>
    </contour>
    <contour>
      <point x="393" y="889" type="line"/>
      <point x="405" y="956" type="line"/>
      <point x="342" y="956" type="line"/>
      <point x="330" y="889" type="line"/>
    </contour>
    <contour>
      <point x="295" y="889" type="line"/>
      <point x="307" y="956" type="line"/>
      <point x="244" y="956" type="line"/>
      <point x="232" y="889" type="line"/>
    </contour>
  </outline>
</glyph>
<glyph name="multiply" format="1">
  <advance width="309"/>
  <unicode hex="00D7"/>
  <outline>
    <contour>
      <point x="352" y="248" type="line"/>
      <point x="267" y="352" type="line"/>
      <point x="391" y="457" type="line"/>
      <point x="357" y="503" type="line"/>
      <point x="230" y="398" type="line"/>
      <point x="147" y="502" type="line"/>
      <point x="96" y="461" type="line"/>
      <point x="180" y="356" type="line"/>
      <point x="56" y="253" type="line"/>
      <point x="93" y="205" type="line"/>
      <point x="219" y="310" type="line"/>
      <point x="303" y="205" type="line"/>
    </contour>
  </outline>
</glyph>
<glyph name="Oslash" format="1">
  <advance width="285"/>
  <unicode hex="00D8"/>
  <outline>
    <contour>
      <point x="448" y="841" type="line"/>
      <point x="380" y="841" type="line"/>
      <point x="370" y="820" type="line"/>
      <point x="344" y="841"/>
      <point x="300" y="841" type="qcurve" smooth="yes"/>
      <point x="183" y="841"/>
      <point x="158" y="708" type="qcurve" smooth="yes"/>
      <point x="46" y="131" type="line" smooth="yes"/>
      <point x="46" y="130"/>
      <point x="45" y="123"/>
      <point x="44" y="122" type="qcurve"/>
      <point x="44" y="111" type="line"/>
      <point x="44" y="108" type="line"/>
      <point x="43" y="108"/>
      <point x="43" y="107" type="qcurve" smooth="yes"/>
      <point x="-7" y="0" type="line"/>
      <point x="61" y="0" type="line"/>
      <point x="68" y="15" type="line"/>
      <point x="94" y="-8"/>
      <point x="140" y="-8" type="qcurve" smooth="yes"/>
      <point x="257" y="-8"/>
      <point x="283" y="126" type="qcurve" smooth="yes"/>
      <point x="395" y="702" type="line"/>
      <point x="398" y="720" type="line"/>
      <point x="400" y="738" type="line"/>
    </contour>
    <contour>
      <point x="219" y="130" type="line" smooth="yes"/>
      <point x="202" y="47"/>
      <point x="145" y="47" type="qcurve" smooth="yes"/>
      <point x="105" y="47"/>
      <point x="105" y="84" type="qcurve" smooth="yes"/>
      <point x="105" y="96" type="line"/>
      <point x="291" y="502" type="line"/>
    </contour>
    <contour>
      <point x="222" y="704" type="line" smooth="yes"/>
      <point x="238" y="785"/>
      <point x="295" y="785" type="qcurve" smooth="yes"/>
      <point x="336" y="785"/>
      <point x="336" y="746" type="qcurve" smooth="yes"/>
      <point x="336" y="745" type="line"/>
      <point x="152" y="345" type="line"/>
    </contour>
  </outline>
</glyph>
<glyph name="Uacute" format="1">
  <advance width="285"/>
  <unicode hex="00DA"/>
  <outline>
    <contour>
      <point x="283" y="126" type="qcurve" smooth="yes"/>
      <point x="420" y="834" type="line"/>
      <point x="355" y="834" type="line"/>
      <point x="219" y="130" type="line" smooth="yes"/>
      <point x="202" y="47"/>
      <point x="145" y="47" type="qcurve" smooth="yes"/>
      <point x="105" y="47"/>
      <point x="105" y="91" type="qcurve" smooth="yes"/>
      <point x="105" y="109"/>
      <point x="109" y="124" type="qcurve"/>
      <point x="246" y="834" type="line"/>
      <point x="182" y="834" type="line"/>
      <point x="46" y="132" type="line" smooth="yes"/>
      <point x="41" y="104"/>
      <point x="41" y="87" type="qcurve" smooth="yes"/>
      <point x="41" y="-8"/>
      <point x="140" y="-8" type="qcurve" smooth="yes"/>
      <point x="257" y="-8"/>
    </contour>
    <contour>
      <point x="402" y="991" type="line"/>
      <point x="343" y="1021" type="line"/>
      <point x="240" y="875" type="line"/>
      <point x="299" y="842" type="line"/>
    </contour>
  </outline>
</glyph>
<glyph name="Yacute" format="1">
  <advance width="280"/>
  <unicode hex="00DD"/>
  <outline>
    <contour>
      <point x="450" y="834" type="line"/>
      <point x="382" y="834" type="line"/>
      <point x="239" y="533" type="line"/>
      <point x="217" y="834" type="line"/>
      <point x="150" y="834" type="line"/>
      <point x="187" y="430" type="line"/>
      <point x="104" y="0" type="line"/>
      <point x="169" y="0" type="line"/>
      <point x="251" y="424" type="line"/>
      <point x="249" y="420" type="line"/>
    </contour>
    <contour>
      <point x="400" y="991" type="line"/>
      <point x="341" y="1021" type="line"/>
      <point x="237" y="875" type="line"/>
      <point x="296" y="842" type="line"/>
    </contour>
  </outline>
</glyph>
<glyph name="Thorn" format="1">
  <advance width="284"/>
  <unicode hex="00DE"/>
  <outline>
    <contour>
      <point x="338" y="367" type="qcurve" smooth="yes"/>
      <point x="360" y="482" type="line" smooth="yes"/>
      <point x="367" y="514"/>
      <point x="367" y="545" type="qcurve" smooth="yes"/>
      <point x="367" y="554"/>
      <point x="365" y="570" type="qcurve" smooth="yes"/>
      <point x="364" y="579"/>
      <point x="358" y="588" type="qcurve"/>
      <point x="359" y="586" type="line" smooth="yes"/>
      <point x="340" y="626"/>
      <point x="263" y="626" type="qcurve" smooth="yes"/>
      <point x="209" y="626" type="line"/>
      <point x="249" y="834" type="line"/>
      <point x="184" y="834" type="line"/>
      <point x="23" y="0" type="line"/>
      <point x="88" y="0" type="line"/>
      <point x="135" y="245" type="line"/>
      <point x="195" y="245" type="line" smooth="yes"/>
      <point x="315" y="245"/>
    </contour>
    <contour>
      <point x="275" y="375" type="line"/>
      <point x="267" y="328"/>
      <point x="245" y="310" type="qcurve"/>
      <point x="235" y="300"/>
      <point x="192" y="300" type="qcurve" smooth="yes"/>
      <point x="145" y="300" type="line"/>
      <point x="198" y="569" type="line"/>
      <point x="251" y="569" type="line" smooth="yes"/>
      <point x="292" y="569"/>
      <point x="301" y="556" type="qcurve"/>
      <point x="301" y="557" type="line"/>
      <point x="304" y="553"/>
      <point x="304" y="537" type="qcurve" smooth="yes"/>
      <point x="304" y="527"/>
      <point x="303" y="521" type="qcurve" smooth="yes"/>
      <point x="302" y="512"/>
      <point x="300" y="500" type="qcurve" smooth="yes"/>
    </contour>
  </outline>
</glyph>
<glyph name="germandbls" format="1">
  <advance width="326"/>
  <unicode hex="00DF"/>
  <outline>
    <contour>
      <point x="321" y="61" type="qcurve"/>
      <point x="382" y="377" type="line" smooth="yes"/>
      <point x="385" y="394"/>
      <point x="385" y="417" type="qcurve" smooth="yes"/>
      <point x="385" y="430" type="line" smooth="yes"/>
      <point x="385" y="438"/>
      <point x="384" y="443" type="qcurve" smooth="yes"/>
      <point x="380" y="482"/>
      <point x="342" y="497" type="qcurve"/>
      <point x="360" y="525"/>
      <point x="370" y="571" type="qcurve"/>
      <point x="395" y="702" type="line" smooth="yes"/>
      <point x="396" y="705"/>
      <point x="398" y="721"/>
      <point x="398" y="724" type="qcurve" smooth="yes"/>
      <point x="399" y="731"/>
      <point x="399" y="746" type="qcurve" smooth="yes"/>
      <point x="399" y="841"/>
      <point x="300" y="841" type="qcurve" smooth="yes"/>
      <point x="183" y="841"/>
      <point x="158" y="708" type="qcurve" smooth="yes"/>
      <point x="22" y="4" type="line"/>
      <point x="86" y="4" type="line"/>
      <point x="222" y="704" type="line" smooth="yes"/>
      <point x="238" y="785"/>
      <point x="295" y="785" type="qcurve" smooth="yes"/>
      <point x="336" y="785"/>
      <point x="336" y="741" type="qcurve" smooth="yes"/>
      <point x="336" y="732"/>
      <point x="334" y="722"/>
      <point x="332" y="710" type="qcurve" smooth="yes"/>
      <point x="306" y="580" type="line" smooth="yes"/>
      <point x="298" y="536"/>
      <point x="285" y="520" type="qcurve"/>
      <point x="267" y="505"/>
      <point x="241" y="505" type="qcurve" smooth="yes"/>
      <point x="215" y="505" type="line"/>
      <point x="205" y="449" type="line"/>
      <point x="268" y="449" type="line" smooth="yes"/>
      <point x="310" y="449"/>
      <point x="317" y="436" type="qcurve"/>
      <point x="317" y="437" type="line"/>
      <point x="321" y="430"/>
      <point x="321" y="415" type="qcurve" smooth="yes"/>
      <point x="321" y="407"/>
      <point x="316" y="379" type="qcurve" smooth="yes"/>
      <point x="255" y="64" type="line" smooth="yes"/>
      <point x="240" y="-13"/>
      <point x="169" y="-19" type="qcurve"/>
      <point x="159" y="-74" type="line"/>
      <point x="296" y="-74"/>
    </contour>
  </outline>
</glyph>
<glyph name="agrave" format="1">
  <advance width="285"/>
  <unicode hex="00E0"/>
  <outline>
    <contour>
      <point x="338" y="668" type="line"/>
      <point x="291" y="821" type="line"/>
      <point x="225" y="791" type="line"/>
      <point x="272" y="640" type="line"/>
    </contour>
    <contour>
      <point x="258" y="11" type="line"/>
      <point x="378" y="624" type="line"/>
      <point x="315" y="624" type="line"/>
      <point x="311" y="606" type="line"/>
      <point x="291" y="616"/>
      <point x="255" y="616" type="qcurve" smooth="yes"/>
      <point x="137" y="616"/>
      <point x="111" y="482" type="qcurve" smooth="yes"/>
      <point x="46" y="147" type="line" smooth="yes"/>
      <point x="46" y="143"/>
      <point x="44" y="128"/>
      <point x="43" y="125" type="qcurve" smooth="yes"/>
      <point x="42" y="118"/>
      <point x="42" y="103" type="qcurve" smooth="yes"/>
      <point x="42" y="7"/>
      <point x="142" y="7" type="qcurve" smooth="yes"/>
      <point x="170" y="7"/>
      <point x="196" y="16" type="qcurve"/>
      <point x="195" y="11" type="line"/>
    </contour>
    <contour>
      <point x="219" y="145" type="line" smooth="yes"/>
      <point x="202" y="62"/>
      <point x="147" y="62" type="qcurve" smooth="yes"/>
      <point x="105" y="62"/>
      <point x="105" y="107" type="qcurve" smooth="yes"/>
      <point x="105" y="116"/>
      <point x="106" y="121" type="qcurve" smooth="yes"/>
      <point x="108" y="128"/>
      <point x="109" y="139" type="qcurve"/>
      <point x="175" y="478" type="line" smooth="yes"/>
      <point x="191" y="560"/>
      <point x="250" y="560" type="qcurve" smooth="yes"/>
      <point x="289" y="560"/>
      <point x="289" y="516" type="qcurve" smooth="yes"/>
      <point x="289" y="507"/>
      <point x="288" y="502" type="qcurve" smooth="yes"/>
      <point x="285" y="484" type="line"/>
    </contour>
  </outline>
</glyph>
